<svg width="146" height="357" viewBox="0 0 146 357" fill="none" xmlns="http://www.w3.org/2000/svg">
    <path d="M97.9784 233.619C94.4985 231.628 79.8462 223.155 74.8645 220.273C73.8754 219.711 73.2527 219.345 73.2039 219.308C70.7269 217.928 67.8327 217.494 65.0597 218.087C62.6794 218.57 60.3997 219.458 58.3197 220.713C57.9778 220.908 57.6359 221.14 57.3062 221.36C51.6773 224.913 46.8421 230.505 42.8127 238.198C38.7098 245.69 36.5086 254.076 36.4023 262.618C36.4023 270.709 38.5595 276.387 42.8738 279.651C43.3106 279.977 43.7673 280.274 44.2413 280.543C48.2829 282.838 68.5518 294.584 69.0036 294.841H69.1135C68.6148 294.567 68.1373 294.257 67.6849 293.913C63.3625 290.657 61.2053 284.983 61.2135 276.892C61.3198 268.35 63.5209 259.964 67.6238 252.471C71.8811 244.331 77.046 238.499 83.1186 234.974C88.8981 231.637 93.888 231.201 98.0883 233.668L97.9784 233.619Z" fill="url(#paint0_linear_359_228)"/>
    <path opacity="0.4" d="M98.0908 233.692C93.8905 231.25 88.9005 231.681 83.1211 234.986C77.4799 238.242 72.6162 243.533 68.5299 250.859L43.7188 236.488C47.5528 229.638 52.0827 224.595 57.2965 221.311C57.6262 221.103 57.968 220.859 58.3099 220.663C60.3878 219.408 62.6686 218.523 65.05 218.05C67.8227 217.45 70.7194 217.884 73.1942 219.272L74.8548 220.236C79.8365 223.106 94.4888 231.579 97.9687 233.57L98.0908 233.692Z" fill="black"/>
    <path opacity="0.3" d="M69.1135 294.804H69.0036C68.5518 294.547 48.2462 282.801 44.2413 280.506C43.7673 280.237 43.3106 279.94 42.8738 279.614C38.5595 276.358 36.4023 270.685 36.4023 262.593C36.5057 254.051 38.707 245.665 42.8127 238.173C43.1057 237.599 43.411 237.037 43.7285 236.5L68.5274 250.823C68.2221 251.36 67.9169 251.921 67.6238 252.483C63.5209 259.976 61.3198 268.362 61.2135 276.904C61.2135 284.995 63.3706 290.669 67.6849 293.925C68.1388 294.252 68.6163 294.546 69.1135 294.804V294.804Z" fill="black"/>
    <path d="M87.1622 24.0913C99.2014 17.1314 109.45 14.1725 117.907 15.2144C121.35 15.6256 124.673 16.7305 127.676 18.4624C127.592 18.418 127.51 18.3691 127.431 18.3158C124.525 16.6797 107.016 6.58183 103.011 4.22526C99.9559 2.43969 96.563 1.30871 93.0475 0.904082C84.5818 -0.129715 74.3293 2.82515 62.29 9.76869C43.5677 20.5706 28.5085 36.4439 17.1123 57.3885C5.71611 78.333 0.0790583 99.7131 0.20116 121.529L25.0001 135.851C24.8291 114.019 30.4662 92.6353 41.9112 71.6988C53.3562 50.7624 68.4399 34.8932 87.1622 24.0913Z" fill="url(#paint1_linear_359_228)"/>
    <path opacity="0.2" d="M127.482 18.3279C124.523 16.6797 121.272 15.6222 117.909 15.2143C109.46 14.1723 99.2114 17.1313 87.164 24.0911C68.4417 34.8849 53.3825 50.7582 41.9863 71.7109C41.5101 72.5778 41.0461 73.4569 40.5943 74.3239L15.7344 59.9769C16.1862 59.11 16.6501 58.2308 17.1263 57.3639C28.5714 36.4356 43.6306 20.5623 62.3041 9.74411C74.3596 2.79243 84.6121 -0.162437 93.0616 0.8795C96.5778 1.28823 99.9708 2.42337 103.025 4.21288C107.067 6.59387 124.576 16.7039 127.482 18.3279Z" fill="black"/>
    <path opacity="0.3" d="M40.5324 74.2991C30.0235 94.3971 24.8504 114.906 25.0132 135.826L0.214305 121.504C0.0596423 100.575 5.2327 80.0664 15.7335 59.9766L40.5324 74.2991Z" fill="black"/>
    <path d="M104.01 64.6789C99.5087 62.2857 93.4972 63.2218 85.9757 67.4872C85.7216 71.9623 84.7998 76.3742 83.2407 80.5766C81.3603 85.6397 75.8901 96.0835 66.8301 111.908C57.4446 128.27 50.6557 143.895 46.4635 158.783C42.3056 173.482 40.1937 188.685 40.1875 203.961L40.3096 211.568L57.2329 221.336L65.1207 225.89L64.9864 218.271V218.173C65.0133 202.947 67.1249 187.796 71.2625 173.142C75.4546 158.254 82.2476 142.633 91.6413 126.279C100.693 110.455 106.159 100.007 108.04 94.9358C109.917 89.9222 110.877 84.6115 110.872 79.2579C110.872 71.9725 108.585 67.1128 104.01 64.6789Z" fill="url(#paint2_linear_359_228)"/>
    <path opacity="0.3" d="M105.61 100.418C102.81 106.246 98.1534 114.85 91.6413 126.23C82.2394 142.592 75.4465 158.217 71.2625 173.105C67.1206 187.77 65.0089 202.934 64.9864 218.173V218.368L65.1207 225.987L57.2329 221.445L40.3096 211.677L40.1875 204.058C40.1946 188.782 42.3065 173.58 46.4635 158.88C50.6557 143.992 57.4446 128.367 66.8301 112.005C73.3423 100.609 78.0066 92.009 80.8231 86.2051L105.61 100.418Z" fill="black"/>
    <path opacity="0.4" d="M110.874 79.2579C110.876 84.5944 109.921 89.888 108.053 94.8869C107.528 96.3155 106.71 98.1593 105.611 100.418L80.8242 86.1078C81.9069 83.8448 82.7209 82.0011 83.2663 80.5766C84.8254 76.3742 85.7472 71.9623 86.0013 67.4872C93.5228 63.2218 99.5343 62.2857 104.036 64.6789C108.537 67.0721 110.817 71.9318 110.874 79.2579Z" fill="black"/>
    <path d="M58.5774 116.437L25.0116 135.827C24.8406 113.995 30.4777 92.6111 41.9227 71.6747C53.3677 50.7383 68.427 34.865 87.1005 24.0549C99.1397 17.0951 109.388 14.1362 117.846 15.1781C126.303 16.2201 133.072 20.8559 138.151 29.0855C143.239 37.3152 145.783 47.5799 145.783 59.8797C145.732 67.0206 144.914 74.1353 143.341 81.101C141.438 89.4335 138.87 97.5998 135.66 105.521C133.609 110.699 128.697 120.255 120.923 134.191C113.491 147.476 108.835 156.515 106.954 161.31C104.867 167.001 103.318 172.875 102.327 178.856C100.848 187.795 100.032 196.83 99.8845 205.889L65.171 225.938L65.0366 218.319C65.0438 203.043 67.1557 187.841 71.3127 173.141C75.5048 158.253 82.2978 142.632 91.6915 126.279C100.743 110.454 106.209 100.006 108.09 94.9352C109.951 89.9185 110.894 84.6079 110.874 79.2573C110.874 71.9311 108.59 67.0715 104.024 64.6783C99.4572 62.2851 93.3276 63.2863 85.6352 67.682C77.7719 72.2242 71.3208 79.0375 66.2821 88.1219C61.3543 96.7543 58.703 106.498 58.5774 116.437V116.437Z" fill="url(#paint3_linear_359_228)"/>
    <path d="M83.0579 235.059C89.2851 231.453 94.6006 231.229 99.0044 234.388C103.408 237.546 105.61 243.167 105.61 251.25C105.477 259.839 103.234 268.263 99.0777 275.78C94.7309 284.043 89.4764 289.952 83.3143 293.51C77.1523 297.067 71.9182 297.213 67.612 293.949C63.2978 290.693 61.1406 285.015 61.1406 276.916C61.2469 268.374 63.4481 259.988 67.551 252.496C71.8245 244.372 76.9935 238.56 83.0579 235.059Z" fill="url(#paint4_linear_359_228)"/>
    <path d="M66.632 356.621C91.7712 356.621 112.151 344.851 112.151 330.332C112.151 315.813 91.7712 304.043 66.632 304.043C41.4927 304.043 21.1133 315.813 21.1133 330.332C21.1133 344.851 41.4927 356.621 66.632 356.621Z" fill="#E0E0E0"/>
    <defs>
        <linearGradient id="paint0_linear_359_228" x1="106.592" y1="246.291" x2="32.3322" y2="246.179" gradientUnits="userSpaceOnUse">
            <stop stop-color="#6B49FC"/>
            <stop offset="0.830081" stop-color="#DE85FF"/>
            <stop offset="1" stop-color="#E26FF1"/>
        </linearGradient>
        <linearGradient id="paint1_linear_359_228" x1="145.248" y1="50.653" x2="-8.21174" y2="50.3804" gradientUnits="userSpaceOnUse">
            <stop stop-color="#6B49FC"/>
            <stop offset="0.830081" stop-color="#DE85FF"/>
            <stop offset="1" stop-color="#E26FF1"/>
        </linearGradient>
        <linearGradient id="paint2_linear_359_228" x1="120.616" y1="123.448" x2="35.5235" y2="123.379" gradientUnits="userSpaceOnUse">
            <stop stop-color="#6B49FC"/>
            <stop offset="0.830081" stop-color="#DE85FF"/>
            <stop offset="1" stop-color="#E26FF1"/>
        </linearGradient>
        <linearGradient id="paint3_linear_359_228" x1="162.431" y1="92.9455" x2="17.0387" y2="92.7887" gradientUnits="userSpaceOnUse">
            <stop stop-color="#6B49FC"/>
            <stop offset="0.830081" stop-color="#DE85FF"/>
            <stop offset="1" stop-color="#E26FF1"/>
        </linearGradient>
        <linearGradient id="paint4_linear_359_228" x1="111.74" y1="255.873" x2="58.2064" y2="255.803" gradientUnits="userSpaceOnUse">
            <stop stop-color="#6B49FC"/>
            <stop offset="0.830081" stop-color="#DE85FF"/>
            <stop offset="1" stop-color="#E26FF1"/>
        </linearGradient>
    </defs>
</svg>
