<svg width="27" height="25" viewBox="0 0 27 25" fill="none" xmlns="http://www.w3.org/2000/svg">
    <path d="M13.6198 0.811523C6.52772 0.811523 0.757812 6.19461 0.757812 12.8115C0.757812 19.4283 6.52772 24.8115 13.6198 24.8115C20.7118 24.8115 26.4817 19.4283 26.4817 12.8115C26.4817 6.19461 20.7119 0.811523 13.6198 0.811523ZM21.0053 10.7846L12.9248 18.3235C12.5812 18.6441 12.1245 18.8205 11.6386 18.8205C11.1528 18.8205 10.6961 18.6441 10.3525 18.3235L6.2342 14.4812C5.89062 14.1607 5.70138 13.7346 5.70138 13.2813C5.70138 12.8279 5.89062 12.4017 6.2342 12.0812C6.57765 11.7606 7.03437 11.5841 7.52035 11.5841C8.0062 11.5841 8.46306 11.7606 8.80651 12.0813L11.6385 14.7234L18.4327 8.38453C18.7763 8.06398 19.233 7.88755 19.7189 7.88755C20.2047 7.88755 20.6615 8.06398 21.005 8.38453C21.7145 9.04643 21.7145 10.1229 21.0053 10.7846Z" fill="url(#paint0_linear_2_875)"/>
    <defs>
        <linearGradient id="paint0_linear_2_875" x1="30.0277" y1="9.68178" x2="-0.939434" y2="9.61925" gradientUnits="userSpaceOnUse">
            <stop stop-color="#6B49FC"/>
            <stop offset="0.830081" stop-color="#DE85FF"/>
            <stop offset="1" stop-color="#E26FF1"/>
        </linearGradient>
    </defs>
</svg>
