<svg width="236" height="218" viewBox="0 0 236 218" fill="none" xmlns="http://www.w3.org/2000/svg">
    <path d="M3.86197 113.02C5.39592 113.691 9.15927 113.622 9.15927 113.622C9.15927 113.622 8.35037 111.156 8.28132 111.018C7.44776 109.282 4.8435 106.441 2.74726 106.717C2.39709 106.774 2.06287 106.904 1.76629 107.099C1.46971 107.294 1.21742 107.549 1.02579 107.848C0.834151 108.146 0.707463 108.482 0.653947 108.833C0.60043 109.183 0.621282 109.541 0.715148 109.884C1.05055 111.363 2.5549 112.453 3.86197 113.02Z" fill="#263238"/>
    <path d="M5.15402 123.886C6.74715 124.118 10.0863 123.146 10.3576 123.072C10.9105 124.988 11.5894 126.864 12.3897 128.69C12.8484 129.756 13.3466 130.816 13.8694 131.872C13.5636 131.423 13.2874 131.023 13.243 130.974C11.9951 129.529 8.73488 127.477 6.76688 128.31C6.44338 128.458 6.15464 128.672 5.91955 128.938C5.68445 129.205 5.5083 129.518 5.40261 129.858C5.29692 130.197 5.26408 130.555 5.30624 130.908C5.3484 131.261 5.4646 131.601 5.64725 131.906C6.3723 133.228 8.11341 133.879 9.52405 134.086C10.9347 134.293 13.825 133.524 14.5797 133.312C14.7819 133.711 14.9792 134.116 15.1814 134.52C16.1679 136.449 17.1247 138.372 18.0224 140.286C18.343 140.962 18.6291 141.638 18.9201 142.313C18.6488 141.914 18.4269 141.583 18.3726 141.534C17.1247 140.094 13.8645 138.037 11.8965 138.876C11.5742 139.024 11.2867 139.238 11.0525 139.504C10.8183 139.77 10.6427 140.083 10.5372 140.422C10.4316 140.76 10.3984 141.117 10.4397 141.469C10.481 141.822 10.5958 142.161 10.7769 142.466C11.5019 143.788 13.243 144.439 14.6537 144.646C16.0643 144.853 18.6735 144.153 19.586 143.911C19.8622 144.612 20.1433 145.312 20.3751 146.003C20.528 146.496 20.7056 146.925 20.8289 147.413C20.9522 147.902 21.0953 148.365 21.2284 148.834C21.4455 149.746 21.6773 150.688 21.8696 151.581C22.0077 152.208 22.1261 152.799 22.2494 153.401C21.9436 152.725 21.3123 151.428 21.263 151.315C20.2518 149.697 17.3171 147.172 15.2653 147.699C14.9197 147.795 14.5984 147.963 14.3226 148.192C14.0467 148.421 13.8226 148.706 13.6651 149.029C13.5075 149.351 13.4201 149.703 13.4086 150.061C13.397 150.419 13.4616 150.776 13.5981 151.108C14.0914 152.523 15.7388 153.436 17.1001 153.85C18.6044 154.309 21.9239 153.889 22.3382 153.85C22.5404 154.836 22.7229 155.823 22.8808 156.726C23.2408 158.748 23.5072 160.558 23.7094 162.092H25.1102C24.8685 160.504 24.5479 158.615 24.1237 156.494C23.9215 155.507 23.6897 154.412 23.443 153.307C24.4441 152.908 25.4208 152.45 26.3679 151.936C27.4579 153.12 30.2644 154.506 30.6245 154.684C30.2447 155.621 29.8649 156.528 29.4901 157.382C28.7157 159.162 27.9808 160.745 27.3297 162.092H28.8439C29.4013 160.849 30.0178 159.438 30.659 157.875C31.0487 156.923 31.4482 155.902 31.8477 154.841C32.2522 154.925 35.5371 155.596 37.071 155.251C38.4619 154.935 40.1488 154.151 40.7703 152.785C40.9269 152.466 41.015 152.118 41.0287 151.764C41.0424 151.409 40.9816 151.055 40.85 150.726C40.7184 150.396 40.5191 150.098 40.2649 149.85C40.0107 149.602 39.7073 149.411 39.3744 149.288C37.3472 148.607 34.2547 150.91 33.1202 152.444C33.0561 152.533 32.4396 153.598 32.0647 154.274C32.2226 153.845 32.3853 153.426 32.558 152.982C32.8786 152.099 33.1745 151.211 33.5 150.254C33.6381 149.786 33.7812 149.317 33.9193 148.839C34.0574 148.36 34.1708 147.852 34.304 147.359C34.5802 146.205 34.7972 145.016 34.9995 143.818C35.7689 144.099 38.5261 145.061 39.9318 144.957C41.3375 144.853 43.1378 144.336 43.9615 143.073C44.1647 142.782 44.3045 142.451 44.3717 142.102C44.4389 141.753 44.432 141.394 44.3516 141.048C44.2711 140.702 44.1189 140.377 43.9047 140.094C43.6905 139.81 43.4191 139.575 43.1082 139.403C41.2092 138.417 37.8059 140.232 36.4545 141.578C36.3706 141.662 35.5075 142.737 35.0438 143.334C35.1573 142.614 35.2757 141.894 35.3644 141.159C35.6308 139.043 35.8281 136.888 36.0402 134.747C36.1043 134.086 36.1734 133.435 36.2424 132.774C36.5186 132.878 39.769 134.086 41.3671 133.978C42.7925 133.874 44.5731 133.351 45.3968 132.089C45.6009 131.798 45.7415 131.468 45.8095 131.12C45.8774 130.771 45.8711 130.413 45.7911 130.067C45.711 129.721 45.559 129.396 45.3449 129.113C45.1308 128.83 44.8594 128.595 44.5484 128.424C42.6495 127.437 39.2412 129.248 37.8898 130.594C37.7911 130.698 36.5531 132.246 36.2572 132.656C36.4101 131.211 36.5729 129.775 36.7948 128.365C37.0822 126.457 37.4941 124.571 38.0279 122.717C38.1512 122.767 41.5397 124.049 43.1822 123.931C44.6027 123.832 46.3882 123.309 47.2069 122.046C47.4111 121.756 47.5518 121.425 47.6198 121.076C47.6878 120.728 47.6816 120.369 47.6015 120.022C47.5215 119.676 47.3695 119.351 47.1553 119.067C46.9411 118.784 46.6697 118.548 46.3586 118.377C44.4596 117.39 41.0563 119.205 39.7 120.552C39.5964 120.656 38.2646 122.323 38.0427 122.643C38.0772 122.535 38.097 122.421 38.1315 122.313C38.7168 120.471 39.4645 118.685 40.3658 116.976C40.859 116.024 41.3523 115.141 41.8948 114.293C42.5015 114.599 45.2883 115.95 46.7729 116.009C48.2575 116.068 50.0282 115.743 50.9851 114.579C51.2197 114.312 51.3957 114 51.5014 113.661C51.6072 113.322 51.6405 112.964 51.5991 112.612C51.5577 112.259 51.4425 111.919 51.2611 111.614C51.0797 111.309 50.8361 111.045 50.5461 110.84C48.7606 109.656 45.1798 111.082 43.6902 112.271C43.6063 112.335 42.8566 113.084 42.3141 113.637C42.5558 113.257 42.8073 112.862 43.0391 112.502C43.9319 111.156 44.8345 109.982 45.6385 108.941C46.1021 108.359 46.5361 107.836 46.9455 107.353C47.6952 107.353 50.7187 107.249 52.0406 106.628C53.3625 106.007 54.8076 104.892 55.1184 103.417C55.2032 103.072 55.2147 102.714 55.1519 102.364C55.0891 102.015 54.9535 101.683 54.754 101.389C54.5544 101.096 54.2953 100.848 53.9936 100.661C53.6918 100.474 53.3541 100.353 53.0024 100.305C50.8766 100.073 48.3512 102.988 47.5769 104.744C47.5078 104.897 46.7334 107.373 46.768 107.373H46.8173C46.4128 107.827 45.9887 108.32 45.5349 108.852C44.7013 109.873 43.774 111.033 42.8468 112.364C41.832 113.788 40.9015 115.271 40.06 116.803C39.1095 118.517 38.3123 120.311 37.6777 122.165C37.6793 122.188 37.6793 122.211 37.6777 122.234C37.6777 121.607 37.6777 119.856 37.6432 119.718C37.4015 117.829 35.8133 114.317 33.6973 113.928C33.3467 113.873 32.9884 113.892 32.6458 113.985C32.3032 114.077 31.9839 114.241 31.7089 114.466C31.4338 114.69 31.2091 114.97 31.0495 115.287C30.8898 115.604 30.7988 115.951 30.7823 116.305C30.659 117.785 31.7688 119.314 32.8095 120.251C34.0081 121.326 37.3374 122.362 37.6037 122.441C37.0052 124.342 36.5355 126.282 36.198 128.246C35.9909 129.391 35.8232 130.55 35.6653 131.699C35.6653 131.156 35.6653 130.673 35.6653 130.604C35.4187 128.71 33.8305 125.178 31.7195 124.813C31.3688 124.758 31.0105 124.778 30.6679 124.87C30.3253 124.963 30.0061 125.127 29.731 125.351C29.456 125.575 29.2313 125.855 29.0716 126.172C28.912 126.489 28.821 126.836 28.8045 127.191C28.6812 128.671 29.7909 130.2 30.8316 131.137C31.8724 132.074 34.7331 133.041 35.4828 133.282C35.4236 133.726 35.3644 134.175 35.3102 134.619C35.0537 136.764 34.817 138.905 34.5013 141.001C34.3977 141.736 34.2645 142.481 34.1314 143.181C34.1314 142.688 34.1314 142.299 34.1314 142.234C33.8848 140.345 32.3015 136.809 30.1855 136.444C29.8346 136.389 29.4761 136.408 29.1332 136.501C28.7903 136.593 28.4708 136.757 28.1953 136.981C27.9199 137.206 27.6948 137.485 27.5346 137.802C27.3744 138.119 27.2827 138.466 27.2656 138.821C27.1423 140.326 28.252 141.83 29.2977 142.767C30.3434 143.704 32.923 144.582 33.8108 144.868C33.6529 145.603 33.5 146.348 33.3175 147.048C33.1844 147.542 33.0857 148 32.918 148.479C32.7503 148.957 32.6171 149.416 32.4692 149.88C32.1436 150.762 31.8181 151.675 31.4827 152.528C31.2509 153.125 31.024 153.687 30.7971 154.254C30.9106 153.52 31.1079 152.079 31.1079 151.961C31.0782 150.272 30.6127 148.618 29.7564 147.162C29.7623 146.975 29.7507 146.789 29.7219 146.604C29.6782 146.252 29.5606 145.913 29.3768 145.609C29.193 145.305 28.9471 145.043 28.6552 144.84C28.3634 144.638 28.0321 144.499 27.683 144.433C27.3339 144.368 26.9748 144.376 26.6293 144.459C24.5676 145.006 23.2556 148.632 23.1767 150.54C23.1767 150.649 23.2457 151.877 23.3049 152.651C23.2014 152.203 23.1027 151.764 22.9942 151.305C22.7772 150.388 22.5306 149.485 22.2741 148.508C22.136 148.045 21.9929 147.571 21.845 147.098C21.697 146.624 21.5145 146.111 21.3517 145.653C20.9424 144.538 20.4787 143.423 19.9806 142.313C20.7796 142.121 23.6058 141.401 24.7452 140.528C25.8845 139.655 27.0732 138.244 27.0634 136.735C27.0736 136.38 27.0088 136.026 26.8731 135.698C26.7375 135.37 26.534 135.074 26.2761 134.829C26.0182 134.585 25.7117 134.398 25.3765 134.28C25.0413 134.162 24.685 134.116 24.3309 134.145C22.205 134.377 20.385 137.761 19.9756 139.63C19.9756 139.744 19.8277 141.11 19.7734 141.874C19.4676 141.208 19.1717 140.543 18.8412 139.901C17.8893 137.988 16.8683 136.084 15.8818 134.175C15.5711 133.593 15.2702 133.006 14.9644 132.424C15.2505 132.355 18.6291 131.571 19.8967 130.594C21.0311 129.731 22.2297 128.31 22.2198 126.801C22.2293 126.446 22.1639 126.093 22.028 125.765C21.8921 125.437 21.6886 125.141 21.4309 124.897C21.1732 124.653 20.8669 124.466 20.5321 124.348C20.1972 124.23 19.8413 124.183 19.4873 124.212C17.3615 124.444 15.5415 127.827 15.1321 129.696C15.1025 129.835 14.9249 131.812 14.9052 132.316C14.2344 131.028 13.5784 129.736 12.9865 128.439C12.1752 126.69 11.4782 124.891 10.9002 123.053C11.0333 123.023 14.5649 122.219 15.867 121.218C17.0014 120.35 18.2 118.934 18.1901 117.425C18.1996 117.07 18.1342 116.717 17.9983 116.389C17.8624 116.061 17.6589 115.765 17.4012 115.521C17.1435 115.277 16.8372 115.089 16.5024 114.971C16.1675 114.853 15.8116 114.807 15.4576 114.835C13.3318 115.067 11.5118 118.451 11.1024 120.32C11.0728 120.468 10.8804 122.589 10.8755 122.979C10.841 122.87 10.7966 122.762 10.767 122.658C10.2271 120.799 9.85405 118.896 9.65229 116.971C9.53391 115.906 9.47966 114.885 9.45006 113.893C10.1209 113.809 13.1937 113.4 14.4662 112.631C15.7388 111.861 17.036 110.613 17.1889 109.114C17.2398 108.76 17.2153 108.399 17.1168 108.056C17.0183 107.712 16.8481 107.393 16.6174 107.12C16.3867 106.847 16.1008 106.626 15.7785 106.472C15.4561 106.317 15.1047 106.232 14.7474 106.224C12.6117 106.224 10.4069 109.38 9.81506 111.195C9.78053 111.294 9.56844 112.335 9.42047 113.094C9.42047 112.645 9.42047 112.182 9.42047 111.753C9.42047 110.135 9.52898 108.655 9.62763 107.348C9.69175 106.603 9.76573 105.928 9.83972 105.301C10.4563 104.877 12.9273 103.131 13.6869 101.883C14.4465 100.635 15.0384 98.9237 14.481 97.5082C14.3614 97.1775 14.1741 96.8754 13.9312 96.6212C13.6883 96.3669 13.395 96.1661 13.0702 96.0315C12.7453 95.8969 12.396 95.8316 12.0444 95.8395C11.6929 95.8475 11.3468 95.9286 11.0284 96.0778C9.12946 97.0643 8.62637 100.882 8.94204 102.766C8.97163 102.924 9.68681 105.42 9.72134 105.4L9.75587 105.375C9.67202 105.977 9.5931 106.623 9.51418 107.348C9.38594 108.66 9.24784 110.14 9.21331 111.787C9.15106 113.534 9.19223 115.283 9.33662 117.025C9.49361 118.979 9.82373 120.915 10.3231 122.811V122.875C9.98769 122.347 8.99629 120.902 8.90751 120.799C7.65963 119.358 4.39937 117.302 2.43138 118.14C2.10874 118.284 1.81989 118.494 1.58343 118.757C1.34698 119.02 1.16816 119.329 1.0585 119.665C0.948835 120.001 0.910764 120.356 0.946736 120.708C0.982709 121.059 1.09193 121.399 1.26735 121.706C2.0072 123.028 3.73351 123.684 5.15402 123.886Z" fill="#263238"/>
    <path d="M41.8029 113.848C41.8374 113.848 42.4835 111.352 42.5082 111.189C42.7696 109.3 42.1679 105.492 40.2443 104.565C39.9198 104.418 39.568 104.341 39.2117 104.339C38.8554 104.337 38.5028 104.41 38.1769 104.554C37.8509 104.698 37.5591 104.909 37.3204 105.174C37.0816 105.438 36.9015 105.75 36.7916 106.089C36.2984 107.505 36.9297 109.246 37.7041 110.439C38.6265 111.845 41.8029 113.843 41.8029 113.848Z" fill="#263238"/>
    <path d="M36.9424 182.329H16.4388L13.8789 159.562H39.5072L36.9424 182.329Z" fill="white" stroke="#263238" stroke-width="0.58204" stroke-linecap="round" stroke-linejoin="round"/>
    <path d="M14.3477 163.733L14.5943 165.938H38.7873L39.0388 163.733H14.3477Z" fill="#263238"/>
    <path d="M38.248 170.793L38.4946 168.588H14.8984L15.1451 170.793H38.248Z" fill="#263238"/>
    <path opacity="0.3" d="M31.7475 46.5394L49.5679 28.7338C51.1084 29.4305 52.8124 29.6843 54.4891 29.4667C56.1657 29.2492 57.7485 28.5689 59.0601 27.5021C60.3718 26.4353 61.3602 25.0242 61.9148 23.427C62.4693 21.8299 62.5679 20.1098 62.1996 18.4598L55.1069 25.5475C55.0565 25.5982 54.9966 25.6384 54.9305 25.6659C54.8645 25.6933 54.7937 25.7075 54.7222 25.7075C54.6507 25.7075 54.5799 25.6933 54.5139 25.6659C54.4478 25.6384 54.3879 25.5982 54.3375 25.5475L48.1918 19.4117C48.1411 19.3613 48.1009 19.3013 48.0734 19.2353C48.046 19.1693 48.0318 19.0985 48.0318 19.027C48.0318 18.9555 48.046 18.8847 48.0734 18.8186C48.1009 18.7526 48.1411 18.6927 48.1918 18.6423L55.2845 11.5545C53.6344 11.1862 51.9144 11.2848 50.3172 11.8393C48.7201 12.3939 47.309 13.3824 46.2422 14.694C45.1754 16.0056 44.4951 17.5884 44.2775 19.265C44.0599 20.9417 44.3138 22.6457 45.0105 24.1862L27.19 41.9918C25.6506 41.3017 23.9496 41.0531 22.2771 41.2737C20.6045 41.4944 19.0262 42.1756 17.7185 43.2414C16.4107 44.3071 15.4249 45.7155 14.8712 47.3091C14.3176 48.9027 14.2178 50.6188 14.583 52.2658L21.6757 45.1781C21.7257 45.1276 21.7852 45.0874 21.8508 45.06C21.9164 45.0326 21.9868 45.0185 22.0579 45.0185C22.129 45.0185 22.1994 45.0326 22.2651 45.06C22.3307 45.0874 22.3902 45.1276 22.4402 45.1781L28.5661 51.3238C28.6168 51.3742 28.6571 51.4341 28.6845 51.5002C28.712 51.5662 28.7261 51.637 28.7261 51.7085C28.7261 51.78 28.712 51.8508 28.6845 51.9168C28.6571 51.9828 28.6168 52.0428 28.5661 52.0932L21.4883 59.181C23.1388 59.549 24.8593 59.4496 26.4566 58.8939C28.0538 58.3382 29.4644 57.3482 30.5301 56.0351C31.5957 54.722 32.2742 53.1378 32.4892 51.4604C32.7043 49.783 32.4474 48.0789 31.7475 46.5394Z" stroke="black" stroke-width="0.58204" stroke-linecap="round" stroke-linejoin="round"/>
    <path opacity="0.3" d="M67.147 6.72588L61.7214 4.94531L57.4648 8.75306L58.6387 14.3463L64.0643 16.1219L68.3455 12.3142L67.147 6.72588ZM63.359 12.7482L61.2085 12.0429L60.7448 9.82831L62.4317 8.34861L64.5772 9.049L65.0409 11.2636L63.359 12.7482Z" stroke="black" stroke-width="0.58204" stroke-linecap="round" stroke-linejoin="round"/>
    <path opacity="0.3" d="M189.079 127.124L171.259 144.944C169.718 144.242 168.011 143.984 166.331 144.199C164.651 144.414 163.065 145.094 161.75 146.162C160.435 147.229 159.445 148.642 158.89 150.242C158.334 151.842 158.237 153.566 158.608 155.218L165.72 148.145C165.77 148.095 165.83 148.054 165.896 148.027C165.962 147.999 166.033 147.985 166.105 147.985C166.176 147.985 166.247 147.999 166.313 148.027C166.379 148.054 166.439 148.095 166.489 148.145L172.635 154.296C172.686 154.346 172.726 154.405 172.753 154.471C172.781 154.537 172.795 154.607 172.795 154.678C172.795 154.749 172.781 154.82 172.753 154.885C172.726 154.951 172.686 155.01 172.635 155.06L165.542 162.153C167.192 162.521 168.912 162.423 170.51 161.868C172.107 161.314 173.518 160.325 174.585 159.014C175.651 157.702 176.332 156.119 176.549 154.442C176.767 152.766 176.513 151.062 175.816 149.521L193.627 131.681C195.167 132.378 196.871 132.632 198.548 132.414C200.225 132.197 201.808 131.516 203.119 130.449C204.431 129.383 205.419 127.972 205.974 126.374C206.528 124.777 206.627 123.057 206.259 121.407L199.166 128.5C199.116 128.551 199.056 128.591 198.99 128.618C198.924 128.646 198.853 128.66 198.781 128.66C198.71 128.66 198.639 128.646 198.573 128.618C198.507 128.591 198.447 128.551 198.397 128.5L192.251 122.354C192.2 122.304 192.16 122.244 192.132 122.178C192.105 122.112 192.091 122.041 192.091 121.969C192.091 121.898 192.105 121.827 192.132 121.761C192.16 121.695 192.2 121.635 192.251 121.585L199.344 114.492C197.693 114.124 195.973 114.222 194.376 114.777C192.779 115.331 191.368 116.32 190.301 117.631C189.234 118.943 188.554 120.526 188.337 122.203C188.119 123.879 188.373 125.583 189.07 127.124H189.079Z" stroke="black" stroke-width="0.58204" stroke-linecap="round" stroke-linejoin="round"/>
    <path opacity="0.3" d="M153.674 166.952L159.099 168.732L163.351 164.92L162.182 159.331L156.757 157.551L152.5 161.363L153.674 166.952ZM157.462 160.929L159.612 161.635L160.076 163.844L158.389 165.354L156.244 164.648L155.78 162.439L157.462 160.929Z" stroke="black" stroke-width="0.58204" stroke-linecap="round" stroke-linejoin="round"/>
    <path opacity="0.3" d="M179.444 46.5395L197.264 28.7339C198.805 29.4319 200.51 29.6868 202.187 29.4698C203.865 29.2529 205.448 28.5727 206.761 27.5057C208.073 26.4387 209.062 25.0271 209.617 23.4292C210.171 21.8314 210.27 20.1105 209.901 18.4599L202.803 25.5476C202.753 25.5982 202.694 25.6383 202.628 25.6657C202.563 25.6931 202.492 25.7072 202.421 25.7072C202.35 25.7072 202.28 25.6931 202.214 25.6657C202.148 25.6383 202.089 25.5982 202.039 25.5476L195.888 19.4118C195.838 19.3614 195.797 19.3014 195.77 19.2354C195.742 19.1694 195.728 19.0986 195.728 19.0271C195.728 18.9556 195.742 18.8848 195.77 18.8187C195.797 18.7527 195.838 18.6928 195.888 18.6424L202.996 11.5448C201.346 11.1764 199.626 11.2751 198.028 11.8296C196.431 12.3841 195.02 13.3726 193.953 14.6842C192.887 15.9958 192.206 17.5787 191.989 19.2553C191.771 20.9319 192.025 22.636 192.722 24.1764L174.881 41.9919C173.341 41.2952 171.637 41.0414 169.96 41.259C168.284 41.4765 166.701 42.1569 165.389 43.2237C164.078 44.2905 163.089 45.7015 162.535 47.2987C161.98 48.8958 161.882 50.6159 162.25 52.266L169.342 45.1782C169.393 45.1275 169.453 45.0873 169.519 45.0598C169.585 45.0324 169.656 45.0182 169.727 45.0182C169.799 45.0182 169.87 45.0324 169.936 45.0598C170.002 45.0873 170.062 45.1275 170.112 45.1782L176.263 51.3239C176.313 51.3743 176.353 51.4342 176.381 51.5003C176.408 51.5663 176.423 51.6371 176.423 51.7086C176.423 51.7801 176.408 51.8509 176.381 51.9169C176.353 51.983 176.313 52.0429 176.263 52.0933L169.17 59.1811C170.821 59.5526 172.544 59.4558 174.144 58.9016C175.743 58.3473 177.156 57.3576 178.224 56.0439C179.292 54.7302 179.972 53.1445 180.187 51.4654C180.403 49.7863 180.145 48.0803 179.444 46.5395Z" stroke="black" stroke-width="0.58204" stroke-linecap="round" stroke-linejoin="round"/>
    <path opacity="0.3" d="M214.833 6.72588L209.408 4.94531L205.156 8.75306L206.325 14.3463L211.751 16.1219L216.002 12.3142L214.833 6.72588ZM211.045 12.7482L208.915 12.0429L208.421 9.82831L210.108 8.34861L212.254 9.049L212.717 11.2636L211.045 12.7482Z" stroke="black" stroke-width="0.58204" stroke-linecap="round" stroke-linejoin="round"/>
    <path opacity="0.3" d="M224.643 47.8616L219.218 46.0859L214.961 49.8937L216.135 55.482L221.56 57.2626L225.817 53.4499L224.643 47.8616ZM220.855 53.8839L218.705 53.1835L218.241 50.9788L219.928 49.4695L222.073 50.1748L222.537 52.3894L220.855 53.8839Z" stroke="black" stroke-width="0.58204" stroke-linecap="round" stroke-linejoin="round"/>
    <path opacity="0.3" d="M101.232 22.6663L95.8063 20.8857L91.5547 24.6984L92.7236 30.2867L98.1492 32.0673L102.401 28.2546L101.232 22.6663ZM97.4488 28.6887L95.2983 27.9833L94.8347 25.7737L96.5215 24.2644L98.6671 24.9697L99.1307 27.1794L97.4488 28.6887Z" stroke="black" stroke-width="0.58204" stroke-linecap="round" stroke-linejoin="round"/>
    <path opacity="0.3" d="M91.4389 150.982L86.0134 149.201L81.7617 153.009L82.9356 158.597L88.3612 160.378L92.6128 156.57L91.4389 150.982ZM87.646 157.024L85.5004 156.319L85.0368 154.104L86.7187 152.595L88.8643 153.3L89.3575 155.515L87.646 157.024Z" stroke="black" stroke-width="0.58204" stroke-linecap="round" stroke-linejoin="round"/>
    <path opacity="0.3" d="M22.5483 81.761L17.1228 79.9854L12.8711 83.7931L14.0401 89.3814L19.4656 91.162L23.7173 87.3493L22.5483 81.761ZM18.7553 87.7833L16.6098 87.083L16.1166 84.8683L17.8034 83.3591L19.949 84.0644L20.4422 86.279L18.7553 87.7833Z" stroke="black" stroke-width="0.58204" stroke-linecap="round" stroke-linejoin="round"/>
    <path opacity="0.3" d="M61.2601 155.884L79.0756 138.064C80.616 138.763 82.3207 139.018 83.9982 138.801C85.6757 138.584 87.2595 137.904 88.5717 136.837C89.8839 135.77 90.8725 134.358 91.4264 132.759C91.9803 131.161 92.0775 129.44 91.7073 127.79L84.6245 134.883C84.574 134.933 84.5141 134.974 84.4481 135.001C84.382 135.028 84.3112 135.043 84.2397 135.043C84.1682 135.043 84.0974 135.028 84.0314 135.001C83.9654 134.974 83.9054 134.933 83.855 134.883L77.7192 128.737C77.6685 128.687 77.6283 128.627 77.6008 128.561C77.5734 128.495 77.5592 128.424 77.5592 128.352C77.5592 128.281 77.5734 128.21 77.6008 128.144C77.6283 128.078 77.6685 128.018 77.7192 127.967L84.807 120.875C83.1569 120.507 81.4368 120.605 79.8397 121.16C78.2425 121.714 76.8315 122.703 75.7647 124.014C74.6979 125.326 74.0175 126.909 73.8 128.585C73.5824 130.262 73.8362 131.966 74.5329 133.506L56.7174 151.327C55.177 150.63 53.4729 150.376 51.7963 150.594C50.1197 150.812 48.5368 151.492 47.2252 152.559C45.9136 153.625 44.9251 155.037 44.3706 156.634C43.8161 158.231 43.7174 159.951 44.0858 161.601L51.1735 154.508C51.2239 154.458 51.2839 154.417 51.3499 154.39C51.4159 154.362 51.4867 154.348 51.5582 154.348C51.6297 154.348 51.7005 154.362 51.7666 154.39C51.8326 154.417 51.8925 154.458 51.9429 154.508L58.0886 160.654C58.1393 160.704 58.1796 160.764 58.207 160.83C58.2345 160.896 58.2486 160.967 58.2486 161.039C58.2486 161.11 58.2345 161.181 58.207 161.247C58.1796 161.313 58.1393 161.373 58.0886 161.423L50.9861 168.516C52.6361 168.884 54.3562 168.786 55.9533 168.231C57.5505 167.677 58.9616 166.688 60.0284 165.377C61.0952 164.065 61.7755 162.482 61.9931 160.806C62.2106 159.129 61.9568 157.425 61.2601 155.884V155.884Z" stroke="black" stroke-width="0.58204" stroke-linecap="round" stroke-linejoin="round"/>
    <path opacity="0.3" d="M96.6587 116.056L91.2331 114.275L86.9766 118.088L88.1504 123.676L93.576 125.457L97.8326 121.644L96.6587 116.056ZM92.8707 122.078L90.7202 121.373L90.2565 119.163L91.9385 117.654L94.089 118.359L94.5526 120.569L92.8707 122.078Z" stroke="black" stroke-width="0.58204" stroke-linecap="round" stroke-linejoin="round"/>
    <path d="M120.94 127.87H107.312V182.846H120.94V127.87Z" fill="#263238" stroke="#263238" stroke-width="0.58204" stroke-linecap="round" stroke-linejoin="round"/>
    <path d="M203.576 37.1846H31.6055V141.493H203.576V37.1846Z" fill="#263238" stroke="#263238" stroke-width="0.58204" stroke-linecap="round" stroke-linejoin="round"/>
    <path d="M200.115 37.1846H28.1445V141.493H200.115V37.1846Z" fill="url(#paint0_linear_2_1854)" stroke="#263238" stroke-width="0.58204" stroke-linecap="round" stroke-linejoin="round"/>
    <path d="M193.915 40.9424H34.3398V137.734H193.915V40.9424Z" fill="white" stroke="#263238" stroke-width="0.58204" stroke-linecap="round" stroke-linejoin="round"/>
    <path d="M193.915 131.904H34.3398V137.734H193.915V131.904Z" fill="white" stroke="#263238" stroke-width="0.58204" stroke-linecap="round" stroke-linejoin="round"/>
    <path d="M114.873 176.675L64.3516 179.94V183.23H163.905V179.94L114.873 176.675Z" fill="#263238" stroke="#263238" stroke-width="0.58204" stroke-linecap="round" stroke-linejoin="round"/>
    <path d="M193.915 40.9424H34.3398V137.734H193.915V40.9424Z" fill="white" stroke="#263238" stroke-width="0.58204" stroke-linecap="round" stroke-linejoin="round"/>
    <path d="M221.184 182.327H3.70312" stroke="#263238" stroke-width="0.58204" stroke-linecap="round" stroke-linejoin="round"/>
    <path d="M232.48 182.327H226.625" stroke="#263238" stroke-width="0.58204" stroke-linecap="round" stroke-linejoin="round"/>
    <path d="M189.351 121.428C189.351 121.428 190.169 150.528 190.584 155.594C190.998 160.659 192.231 173.991 192.507 176.463C192.784 178.934 192.231 185.937 192.231 185.937L191.546 186.618L192.093 190.071C192.093 190.071 187.698 192.818 185.503 193.642C183.309 194.465 186.051 195.56 187.97 195.837C189.854 196.153 191.785 196.053 193.627 195.546C195.827 194.998 198.559 194.036 199.546 193.898C200.532 193.76 201.025 192.537 201.025 191.018C201.025 189.499 200.887 189.37 201.025 188.68C201.164 187.989 200.335 185.114 200.197 184.428C200.059 183.743 202.12 168.226 201.711 163.283C201.302 158.341 201.159 151.614 201.159 150.928C201.159 150.242 200.887 143.1 200.887 143.1C200.887 143.1 203.22 158.884 203.497 159.441C203.773 159.998 208.301 182.914 208.429 184.014C208.557 185.114 208.015 186.347 208.153 187.171C208.291 187.994 208.976 190.465 208.976 190.465C208.976 190.465 208.562 194.174 207.329 195.822C206.096 197.469 205.82 198.84 206.505 199.393C207.191 199.945 208.7 199.94 210.486 199.531C212.271 199.122 212.271 199.393 213.938 198.017C215.605 196.641 216.133 192.665 216.133 192.251C216.133 191.837 216.824 190.465 216.824 188.956C216.824 187.447 216.824 188.132 216.271 185.937C215.719 183.743 215.862 175.229 215.724 170.287C215.586 165.345 213.938 155.456 213.938 153.517C213.938 151.579 213.115 122.898 213.115 122.898C213.115 122.898 199.926 126.937 189.351 121.428Z" fill="#263238" stroke="#263238" stroke-width="0.58204" stroke-linecap="round" stroke-linejoin="round"/>
    <path d="M195.467 191.23C194.244 191.216 193.06 190.804 192.093 190.056C192.093 190.056 187.698 192.804 185.503 193.627C183.309 194.451 186.051 195.546 187.97 195.822C189.853 196.143 191.784 196.049 193.627 195.546C195.827 194.998 198.559 194.037 199.546 193.899C200.532 193.76 201.025 192.537 201.025 191.018C201.025 190.382 201.001 189.992 200.981 189.701C199.457 190.342 196.927 191.294 195.467 191.23Z" fill="white" stroke="#263238" stroke-width="0.58204" stroke-linecap="round" stroke-linejoin="round"/>
    <path d="M198.955 192.325C196.464 192.522 193.604 195.545 189.786 195.116C188.119 194.974 186.486 194.566 184.947 193.908C183.917 194.682 186.269 195.58 187.976 195.822C189.858 196.142 191.787 196.047 193.628 195.545C195.828 194.998 198.561 194.036 199.547 193.898C200.243 193.799 200.721 193.119 200.933 192.182C200.445 192.211 199.823 192.256 198.955 192.325Z" fill="white" stroke="#263238" stroke-width="0.58204" stroke-linecap="round" stroke-linejoin="round"/>
    <path d="M213.303 192.227C212.502 192.236 211.707 192.084 210.965 191.782C210.223 191.48 209.549 191.032 208.982 190.466C208.982 190.466 208.568 194.175 207.335 195.822C206.102 197.47 205.826 198.841 206.511 199.393C207.197 199.946 208.706 199.941 210.492 199.531C212.277 199.122 212.277 199.393 213.944 198.017C215.611 196.641 216.139 192.666 216.139 192.251C216.165 192.042 216.216 191.836 216.292 191.64C215.348 192.042 214.329 192.242 213.303 192.227Z" fill="white" stroke="#263238" stroke-width="0.58204" stroke-linecap="round" stroke-linejoin="round"/>
    <path d="M213.926 198.017C214.656 197.41 215.174 196.285 215.519 195.186V195.215C214.955 196.121 214.209 196.898 213.327 197.499C212.446 198.099 211.448 198.509 210.399 198.702C208.987 199.089 207.485 198.993 206.133 198.431C206.112 198.609 206.134 198.789 206.197 198.957C206.261 199.124 206.364 199.274 206.498 199.393C207.183 199.94 208.693 199.94 210.478 199.531C212.264 199.122 212.279 199.393 213.926 198.017Z" fill="white" stroke="#263238" stroke-width="0.58204" stroke-linecap="round" stroke-linejoin="round"/>
    <path d="M189.036 120.553C189.036 120.553 188.641 122.467 189.435 123.424C190.229 124.381 193.42 126.452 200.996 126.536C208.572 126.62 211.764 124.963 212.864 124.223C213.963 123.483 213.5 120.316 213.5 120.316C209.906 121.837 206.076 122.726 202.18 122.945C196.133 123.187 189.036 120.553 189.036 120.553Z" fill="url(#paint1_linear_2_1854)" stroke="#263238" stroke-width="0.58204" stroke-linecap="round" stroke-linejoin="round"/>
    <path d="M195.6 85.5751L188.641 81.9548C188.641 81.9548 180.123 74.4971 175.935 71.7301C171.748 68.9631 168.197 69.8854 167.91 73.2936C167.624 76.7019 182.037 87.987 184.68 90.1178C187.324 92.2485 187.876 93.3139 187.876 93.3139C187.876 93.3139 188.232 112.338 188.37 115.391C188.508 118.444 188.37 120.501 189.356 121.428C190.343 122.355 194.964 125.187 201.426 124.831C207.887 124.476 210.797 123.845 212.005 122.858C213.214 121.872 213.919 121.014 213.919 119.312C213.919 117.61 215.759 94.8774 215.759 94.8774C215.759 94.8774 228.538 86.1472 231.804 83.2372C235.069 80.3271 235.286 76.2086 233.155 75.7795C231.024 75.3504 225.628 77.9843 223.498 79.3308C221.367 80.6773 214.555 82.8081 212.213 83.4493C209.87 84.0905 207.527 84.7958 207.527 84.7958C207.527 84.7958 201.633 86.4235 195.6 85.5751Z" fill="url(#paint2_linear_2_1854)" stroke="#263238" stroke-width="0.58204" stroke-linecap="round" stroke-linejoin="round"/>
    <path d="M187.863 93.3138L185.703 85.4961" stroke="#263238" stroke-width="0.58204" stroke-linecap="round" stroke-linejoin="round"/>
    <path d="M186.936 90.5114L183.656 83.4434" stroke="#263238" stroke-width="0.58204" stroke-linecap="round" stroke-linejoin="round"/>
    <path d="M215.758 94.8721L217.563 88.1592" stroke="#263238" stroke-width="0.58204" stroke-linecap="round" stroke-linejoin="round"/>
    <path d="M216.336 93.181L218.797 88.7715" stroke="#263238" stroke-width="0.58204" stroke-linecap="round" stroke-linejoin="round"/>
    <path d="M178.735 76.0703L174.227 78.5266" stroke="#263238" stroke-width="0.58204" stroke-linecap="round" stroke-linejoin="round"/>
    <path d="M224.227 81.9092L226.377 83.6503" stroke="#263238" stroke-width="0.58204" stroke-linecap="round" stroke-linejoin="round"/>
    <path d="M195.957 93.8896L194.181 105.357C194.172 105.418 194.175 105.479 194.189 105.538C194.204 105.597 194.23 105.653 194.266 105.702C194.303 105.751 194.348 105.792 194.4 105.824C194.453 105.855 194.51 105.876 194.571 105.885C194.631 105.895 194.693 105.892 194.752 105.878C194.811 105.864 194.867 105.838 194.917 105.801C194.966 105.765 195.007 105.719 195.038 105.667C195.07 105.614 195.09 105.556 195.098 105.495L196.736 94.3829L195.957 93.8896Z" fill="white" stroke="#263238" stroke-width="0.58204" stroke-linecap="round" stroke-linejoin="round"/>
    <path d="M202.842 94.3049L201.9 105.556C201.894 105.63 201.904 105.706 201.929 105.777C201.954 105.847 201.994 105.912 202.047 105.966C202.099 106.019 202.163 106.061 202.233 106.088C202.303 106.116 202.378 106.127 202.453 106.123C202.581 106.116 202.703 106.061 202.794 105.97C202.885 105.879 202.939 105.758 202.946 105.63L203.701 94.0879L202.842 94.3049Z" fill="white" stroke="#263238" stroke-width="0.58204" stroke-linecap="round" stroke-linejoin="round"/>
    <path d="M195.17 85.0755C195.17 85.0755 192.615 87.9165 192.403 89.0509C192.19 90.1854 194.178 91.6059 194.178 91.6059C194.178 91.6059 193.192 91.8919 193.892 92.5282C194.593 93.1645 198.721 96.3656 199.929 96.3656C201.138 96.3656 202.627 94.4469 206.341 93.5936C210.055 92.7403 212.66 88.9079 212.378 87.1323C212.369 86.9103 212.31 86.6932 212.208 86.4962C212.105 86.2991 211.96 86.1269 211.784 85.9916C211.608 85.8563 211.404 85.7611 211.187 85.7128C210.971 85.6644 210.746 85.6641 210.529 85.7118C210.529 85.7118 211.239 84.1531 210.105 83.4429C208.97 82.7326 206.341 82.7326 205.064 82.8757C203.786 83.0187 198.366 83.2999 195.17 85.0755Z" fill="url(#paint3_linear_2_1854)" stroke="#263238" stroke-width="0.58204" stroke-linecap="round" stroke-linejoin="round"/>
    <path d="M205.883 91.918C205.431 92.2866 204.96 92.6323 204.473 92.9538" stroke="#263238" stroke-width="0.58204" stroke-linecap="round" stroke-linejoin="round"/>
    <path d="M210.506 85.7129C210.506 85.7129 208.805 88.983 207.547 90.3986" stroke="#263238" stroke-width="0.58204" stroke-linecap="round" stroke-linejoin="round"/>
    <path d="M194.18 91.6064L195.955 92.6028" stroke="#263238" stroke-width="0.58204" stroke-linecap="round" stroke-linejoin="round"/>
    <path d="M169.4 76.2729C168.621 75.5626 166.633 73.5749 168.197 71.163C169.76 68.7511 172.172 69.5995 174.16 69.5995C176.148 69.5995 190.486 73.0768 190.486 73.0768C190.486 73.0768 193.539 67.8238 194.18 66.9015C194.821 65.9792 197.302 65.915 197.302 65.915C197.302 65.915 197.87 66.1271 197.588 66.8374C197.307 67.5476 196.804 67.1925 196.666 68.8103C196.528 70.4281 195.739 76.263 194.392 76.9733C193.046 77.6835 189.495 76.8303 189.495 76.8303L173.376 77.6145" fill="#BDBDBD"/>
    <path d="M169.4 76.2729C168.621 75.5626 166.633 73.5749 168.197 71.163C169.76 68.7511 172.172 69.5995 174.16 69.5995C176.148 69.5995 190.486 73.0768 190.486 73.0768C190.486 73.0768 193.539 67.8238 194.18 66.9015C194.821 65.9792 197.302 65.915 197.302 65.915C197.302 65.915 197.87 66.1271 197.588 66.8374C197.307 67.5476 196.804 67.1925 196.666 68.8103C196.528 70.4281 195.739 76.263 194.392 76.9733C193.046 77.6835 189.495 76.8303 189.495 76.8303L173.376 77.6145" stroke="#263238" stroke-width="0.58204" stroke-linecap="round" stroke-linejoin="round"/>
    <path d="M173.376 77.6145L180.31 77.2742C179.919 76.9387 179.604 76.5226 179.388 76.0545C179.172 75.5863 179.059 75.0771 179.058 74.5614C179.085 73.1817 179.521 71.8411 180.31 70.7093C177.45 70.0828 174.885 69.5798 174.15 69.5798C172.177 69.5798 169.745 68.7265 168.187 71.1433C166.628 73.5601 168.611 75.5429 169.39 76.2532" fill="url(#paint4_linear_2_1854)"/>
    <path d="M173.376 77.6145L180.31 77.2742C179.919 76.9387 179.604 76.5226 179.388 76.0545C179.172 75.5863 179.059 75.0771 179.058 74.5614C179.085 73.1817 179.521 71.8411 180.31 70.7093C177.45 70.0828 174.885 69.5798 174.15 69.5798C172.177 69.5798 169.745 68.7265 168.187 71.1433C166.628 73.5601 168.611 75.5429 169.39 76.2532" stroke="#263238" stroke-width="0.58204" stroke-linecap="round" stroke-linejoin="round"/>
    <path d="M196.451 66.4026C196.451 66.4026 193.492 72.2967 193.615 73.007C193.738 73.7172 194.108 74.5705 194.108 74.8517C194.108 75.1328 192.55 78.7581 192.831 79.7495C193.112 80.7409 194.31 85.3624 195.46 86.995C196.609 88.6276 197.373 88.6276 197.373 88.6276C197.373 88.6276 196.806 92.5291 197.235 93.6685C197.664 94.8078 199.08 96.6278 199.933 96.3664C200.787 96.105 205.467 90.6154 205.896 88.968C206.326 87.3206 206.819 81.7224 206.819 81.7224C206.819 81.7224 207.672 80.1638 208.165 79.4535C209.708 77.5856 210.606 75.269 210.725 72.8492C210.863 69.1598 207.317 65.7516 204.121 64.8292C200.925 63.9069 197.576 65.7762 196.451 66.4026Z" fill="#BDBDBD" stroke="#263238" stroke-width="0.58204" stroke-linecap="round" stroke-linejoin="round"/>
    <path d="M195.882 75.5625C195.882 75.5625 194.323 79.0151 194.604 79.1828C194.954 79.4411 195.356 79.6192 195.782 79.7044C196.209 79.7897 196.648 79.78 197.07 79.676C198.417 79.3209 198.417 78.6107 198.417 78.6107" stroke="#263238" stroke-width="0.58204" stroke-linecap="round" stroke-linejoin="round"/>
    <path d="M197.263 82.9458C197.46 83.4391 197.361 83.9717 197.051 84.0901C196.74 84.2085 196.331 83.8879 196.133 83.3749C195.936 82.862 196.035 82.349 196.345 82.2306C196.656 82.1123 197.08 82.4329 197.263 82.9458Z" fill="#263238"/>
    <path d="M197.369 88.628C197.369 88.628 198.435 88.4849 199.288 88.2728C200.141 88.0607 203.549 85.2197 203.549 85.2197L197.078 92.6725L197.369 88.628Z" fill="#263238" stroke="#263238" stroke-width="0.58204" stroke-linecap="round" stroke-linejoin="round"/>
    <path d="M199.5 72.5092C199.5 72.5092 201.35 71.3748 202.341 73.5746" stroke="#263238" stroke-width="0.58204" stroke-linecap="round" stroke-linejoin="round"/>
    <path d="M196.524 72.5829C196.221 72.3688 195.848 72.2786 195.481 72.3309C195.114 72.3832 194.781 72.574 194.551 72.8641" stroke="#263238" stroke-width="0.58204" stroke-linecap="round" stroke-linejoin="round"/>
    <path d="M200.642 75.8142C200.642 76.2235 200.435 76.5589 200.178 76.5589C199.922 76.5589 199.715 76.2235 199.715 75.8142C199.715 75.4048 199.922 75.0645 200.178 75.0645C200.435 75.0645 200.642 75.3999 200.642 75.8142Z" fill="#263238"/>
    <path d="M195.131 76.1094C195.365 76.1094 195.555 75.8046 195.555 75.4287C195.555 75.0528 195.365 74.748 195.131 74.748C194.897 74.748 194.707 75.0528 194.707 75.4287C194.707 75.8046 194.897 76.1094 195.131 76.1094Z" fill="#263238"/>
    <path d="M206.037 81.0267C206.314 81.2308 206.604 81.4154 206.905 81.5792C207.137 81.1599 207.764 80.0403 208.163 79.4681C209.706 77.6002 210.604 75.2836 210.723 72.8638C210.861 69.1744 207.315 65.7662 204.119 64.8438C202.384 64.4224 200.56 64.5623 198.91 65.2433C199.004 65.4258 199.329 65.633 200.212 65.7662C202.131 66.0473 204.4 65.125 205.608 65.9783C206.817 66.8315 207.315 69.3865 206.249 70.3088C205.184 71.2312 202.984 72.7207 203.907 73.9291C204.562 74.7201 205.046 75.6389 205.327 76.6271C205.327 76.9132 204.898 77.1943 205.327 77.2683C205.756 77.3423 206.314 77.4804 206.531 76.8392C206.748 76.198 207.882 75.2066 208.449 76.346C209.016 77.4853 208.306 78.8121 207.67 79.6802C207.223 80.2359 206.668 80.6941 206.037 81.0267Z" fill="#263238" stroke="#263238" stroke-width="0.58204" stroke-linecap="round" stroke-linejoin="round"/>
    <path d="M229.18 82.8761L223.572 82.6641C223.572 82.6641 207.098 78.6146 205.894 77.9784C204.691 77.3421 204.972 75.5122 204.829 75.0634C204.686 74.6145 204.336 72.7205 204.686 72.2273C205.036 71.734 208.025 69.4553 208.237 69.1742C208.449 68.893 207.882 67.5416 208.025 67.2012C208.168 66.8609 208.518 66.7721 208.874 66.9892C209.085 67.1153 209.239 67.3187 209.303 67.5564C209.303 67.5564 210.013 67.6945 210.649 68.8338C211.285 69.9732 211.428 70.8906 211.29 71.3C211.152 71.7094 211.927 72.5775 211.784 73.2137C211.499 74.0021 211.144 74.7631 210.723 75.4875C210.723 75.4875 224.139 74.9203 226.413 74.9203C228.687 74.9203 234.009 74.6342 234.645 75.9068C235.281 77.1793 234.645 79.3841 233.579 80.8785" fill="#BDBDBD"/>
    <path d="M229.18 82.8761L223.572 82.6641C223.572 82.6641 207.098 78.6146 205.894 77.9784C204.691 77.3421 204.972 75.5122 204.829 75.0634C204.686 74.6145 204.336 72.7205 204.686 72.2273C205.036 71.734 208.025 69.4553 208.237 69.1742C208.449 68.893 207.882 67.5416 208.025 67.2012C208.168 66.8609 208.518 66.7721 208.874 66.9892C209.085 67.1153 209.239 67.3187 209.303 67.5564C209.303 67.5564 210.013 67.6945 210.649 68.8338C211.285 69.9732 211.428 70.8906 211.29 71.3C211.152 71.7094 211.927 72.5775 211.784 73.2137C211.499 74.0021 211.144 74.7631 210.723 75.4875C210.723 75.4875 224.139 74.9203 226.413 74.9203C228.687 74.9203 234.009 74.6342 234.645 75.9068C235.281 77.1793 234.645 79.3841 233.579 80.8785" stroke="#263238" stroke-width="0.58204" stroke-linecap="round" stroke-linejoin="round"/>
    <path d="M210.722 75.4927L208.754 75.2461" stroke="#263238" stroke-width="0.58204" stroke-linecap="round" stroke-linejoin="round"/>
    <path d="M209.301 67.542C209.301 67.542 210.189 69.3078 209.981 69.8207L209.779 70.314" stroke="#263238" stroke-width="0.58204" stroke-linecap="round" stroke-linejoin="round"/>
    <path d="M211.291 71.3057C210.887 71.7006 210.45 72.0603 209.984 72.3809" stroke="#263238" stroke-width="0.58204" stroke-linecap="round" stroke-linejoin="round"/>
    <path d="M233.58 80.8881C234.645 79.4084 235.286 77.1938 234.645 75.9163C234.004 74.6389 228.756 74.9299 226.457 74.9299C226.725 75.5309 226.871 76.179 226.887 76.8367C226.903 77.4945 226.789 78.1489 226.551 78.7623C225.92 80.5724 224.139 81.8302 222.926 82.5059L223.572 82.6687L229.18 82.8808" fill="url(#paint5_linear_2_1854)"/>
    <path d="M233.58 80.8881C234.645 79.4084 235.286 77.1938 234.645 75.9163C234.004 74.6389 228.756 74.9299 226.457 74.9299C226.725 75.5309 226.871 76.179 226.887 76.8367C226.903 77.4945 226.789 78.1489 226.551 78.7623C225.92 80.5724 224.139 81.8302 222.926 82.5059L223.572 82.6687L229.18 82.8808" stroke="#263238" stroke-width="0.58204" stroke-linecap="round" stroke-linejoin="round"/>
    <g opacity="0.3">
        <path d="M113.233 64.1358C113.692 63.2645 113.932 62.2945 113.933 61.3096C113.933 59.6325 113.267 58.0242 112.081 56.8384C110.895 55.6525 109.287 54.9863 107.61 54.9863C105.933 54.9863 104.324 55.6525 103.139 56.8384C101.953 58.0242 101.287 59.6325 101.287 61.3096C101.289 62.3078 101.534 63.2905 102 64.1729C102.467 65.0554 103.141 65.8112 103.965 66.3751C103.149 66.5229 102.386 66.8823 101.752 67.4174C101.118 67.9525 100.636 68.6445 100.353 69.4243C100.071 70.2041 99.9977 71.0444 100.142 71.8613C100.285 72.6782 100.641 73.443 101.173 74.0793C100.131 74.6066 99.2522 75.4067 98.6294 76.3943C98.0066 77.3819 97.6635 78.5201 97.6367 79.6874C97.6367 83.3176 100.946 86.2671 105.035 86.2671C109.124 86.2671 112.434 83.3077 112.434 79.6874C112.431 78.8355 112.244 77.9943 111.886 77.2212C112.126 77.2409 112.368 77.2508 112.611 77.2508C116.843 77.2508 120.276 74.2914 120.276 70.6859C120.246 67.2579 117.179 64.4169 113.233 64.1358Z" fill="black"/>
        <path d="M99.6946 56.0855C101.912 56.0855 103.709 54.2879 103.709 52.0706C103.709 49.8532 101.912 48.0557 99.6946 48.0557C97.4772 48.0557 95.6797 49.8532 95.6797 52.0706C95.6797 54.2879 97.4772 56.0855 99.6946 56.0855Z" fill="black"/>
        <path d="M88.8716 46.8379C88.6305 46.8369 88.3945 46.9075 88.1935 47.0408C87.9925 47.1741 87.8356 47.364 87.7426 47.5865C87.6496 47.8091 87.6248 48.0542 87.6712 48.2908C87.7177 48.5275 87.8333 48.745 88.0035 48.9159C88.1737 49.0867 88.3908 49.2033 88.6272 49.2507C88.8637 49.2981 89.1089 49.2743 89.3318 49.1822C89.5547 49.0901 89.7452 48.934 89.8793 48.7335C90.0134 48.5331 90.085 48.2973 90.085 48.0562C90.0837 47.7343 89.9556 47.4259 89.7285 47.1979C89.5014 46.9698 89.1935 46.8405 88.8716 46.8379Z" fill="black"/>
        <path d="M113.435 49.501C114.109 49.502 114.768 49.3029 115.329 48.929C115.891 48.5551 116.328 48.0232 116.587 47.4005C116.846 46.7778 116.914 46.0924 116.783 45.4309C116.652 44.7695 116.328 44.1617 115.851 43.6846C115.375 43.2074 114.767 42.8823 114.106 42.7504C113.445 42.6185 112.759 42.6857 112.136 42.9435C111.513 43.2013 110.981 43.6382 110.606 44.1988C110.231 44.7594 110.031 45.4185 110.031 46.0928C110.031 46.5401 110.118 46.9832 110.289 47.3967C110.46 47.8102 110.71 48.1859 111.026 48.5025C111.342 48.819 111.718 49.0702 112.131 49.2415C112.544 49.4128 112.987 49.501 113.435 49.501Z" fill="black"/>
    </g>
    <g opacity="0.3">
        <path d="M124.863 22.8652C124.622 22.8652 124.386 22.9368 124.185 23.0709C123.985 23.205 123.829 23.3956 123.737 23.6185C123.645 23.8414 123.621 24.0866 123.668 24.323C123.716 24.5595 123.832 24.7765 124.003 24.9467C124.174 25.1169 124.392 25.2325 124.628 25.279C124.865 25.3254 125.11 25.3006 125.332 25.2077C125.555 25.1147 125.745 24.9578 125.878 24.7568C126.011 24.5558 126.082 24.3198 126.081 24.0786C126.081 23.9188 126.05 23.7607 125.988 23.6131C125.927 23.4656 125.837 23.3316 125.724 23.2189C125.611 23.1061 125.476 23.0169 125.329 22.9562C125.181 22.8955 125.023 22.8646 124.863 22.8652Z" fill="black"/>
        <path d="M122.258 12.6065C121.555 12.9754 120.978 13.5444 120.598 14.2414C120.219 14.9385 120.054 15.7324 120.126 16.5228C120.197 17.3133 120.501 18.0648 121 18.6824C121.498 19.3001 122.168 19.7562 122.926 19.9931C123.683 20.23 124.494 20.237 125.256 20.0134C126.017 19.7897 126.695 19.3454 127.204 18.7365C127.713 18.1276 128.031 17.3815 128.116 16.5925C128.201 15.8034 128.051 15.0068 127.683 14.3032C127.44 13.8346 127.105 13.4189 126.7 13.0798C126.295 12.7407 125.827 12.485 125.323 12.3273C124.819 12.1697 124.289 12.1132 123.763 12.1611C123.237 12.209 122.725 12.3603 122.258 12.6065Z" fill="black"/>
        <path d="M149.24 40.129C149.699 39.2577 149.94 38.2878 149.94 37.3028C149.937 36.3416 149.708 35.3947 149.272 34.5381C148.836 33.6814 148.205 32.939 147.43 32.3705C150.424 30.7083 152.022 27.6108 151.538 24.7994C151.922 24.5038 152.238 24.1298 152.466 23.7022C152.693 23.2746 152.827 22.8034 152.858 22.32C152.889 21.8367 152.816 21.3523 152.645 20.8993C152.473 20.4462 152.207 20.035 151.864 19.6931C151.521 19.3511 151.109 19.0863 150.656 18.9164C150.202 18.7464 149.718 18.6752 149.234 18.7076C148.751 18.7399 148.28 18.8751 147.853 19.1039C147.427 19.3328 147.053 19.6502 146.759 20.0348C145.065 19.6846 143.304 19.8743 141.723 20.5773C141.726 19.5931 141.489 18.623 141.033 17.7511C140.648 17.0153 140.121 16.3625 139.484 15.8301C138.847 15.2977 138.111 14.896 137.318 14.648C136.526 14.3999 135.692 14.3105 134.865 14.3847C134.038 14.4588 133.233 14.6952 132.497 15.0803C131.761 15.4653 131.109 15.9916 130.576 16.6289C130.044 17.2662 129.642 18.0022 129.394 18.7948C128.893 20.3955 129.049 22.1296 129.826 23.6156C130.373 24.6516 131.207 25.5078 132.228 26.0818C131.884 26.6824 131.702 27.3624 131.701 28.0547C131.701 28.4824 131.771 28.9072 131.908 29.3125C131.144 29.1438 130.353 29.1398 129.587 29.3008C128.821 29.4617 128.099 29.7838 127.467 30.2458C126.836 30.7077 126.31 31.2988 125.925 31.9798C125.54 32.6608 125.304 33.416 125.233 34.1951C125.163 34.9743 125.259 35.7596 125.515 36.4987C125.772 37.2378 126.183 37.9138 126.721 38.4818C127.259 39.0497 127.912 39.4965 128.636 39.7924C129.361 40.0883 130.14 40.2266 130.921 40.1981C130.154 41.0096 129.651 42.035 129.48 43.1386C129.308 44.2422 129.475 45.3719 129.96 46.3783C128.945 47.0709 128.191 48.0828 127.817 49.2533C127.443 50.4237 127.471 51.6855 127.897 52.838C128.323 53.9905 129.122 54.9676 130.167 55.6141C131.211 56.2605 132.442 56.5391 133.664 56.4057C134.058 59.7103 137.195 62.285 141.008 62.285C145.092 62.285 148.406 59.3256 148.406 55.7053C148.403 54.854 148.218 54.0133 147.864 53.2391C148.101 53.2589 148.342 53.2687 148.589 53.2687C152.821 53.2687 156.249 50.3093 156.249 46.7038C156.239 43.2364 153.146 40.42 149.24 40.129Z" fill="black"/>
        <path d="M112.103 16.5479C111.89 16.6613 111.715 16.8355 111.601 17.0483C111.487 17.2612 111.439 17.5031 111.463 17.7433C111.487 17.9836 111.581 18.2114 111.735 18.3977C111.888 18.5841 112.094 18.7207 112.325 18.7901C112.556 18.8596 112.803 18.8587 113.034 18.7878C113.264 18.7168 113.469 18.5788 113.621 18.3914C113.773 18.204 113.866 17.9756 113.888 17.7352C113.911 17.4947 113.861 17.2532 113.745 17.0411C113.593 16.758 113.334 16.5471 113.026 16.4546C112.718 16.3621 112.386 16.3957 112.103 16.5479Z" fill="black"/>
        <path d="M135.106 7.53074C135.7 7.21611 136.187 6.73267 136.507 6.14139C136.826 5.55012 136.964 4.87747 136.901 4.20827C136.839 3.53907 136.58 2.90328 136.157 2.38106C135.734 1.85885 135.166 1.47359 134.524 1.27386C133.882 1.07414 133.196 1.06889 132.551 1.25878C131.906 1.44868 131.332 1.8252 130.901 2.34089C130.47 2.85658 130.202 3.48834 130.129 4.15651C130.057 4.82468 130.184 5.49935 130.494 6.09544C130.702 6.49362 130.986 6.84684 131.33 7.13474C131.675 7.42265 132.073 7.63956 132.501 7.77297C132.93 7.90638 133.381 7.95366 133.828 7.91209C134.275 7.87052 134.709 7.74091 135.106 7.53074Z" fill="black"/>
    </g>
    <path d="M99.1658 68.16C99.1658 67.4889 98.9667 66.8328 98.5939 66.2747C98.221 65.7167 97.691 65.2818 97.0709 65.0249C96.4509 64.7681 95.7686 64.7009 95.1103 64.8318C94.4521 64.9627 93.8474 65.2859 93.3728 65.7605C92.8982 66.2351 92.575 66.8397 92.4441 67.498C92.3132 68.1563 92.3804 68.8386 92.6372 69.4586C92.8941 70.0787 93.329 70.6087 93.887 70.9816C94.4451 71.3544 95.1012 71.5535 95.7723 71.5535C96.6723 71.5535 97.5355 71.196 98.1719 70.5596C98.8082 69.9232 99.1658 69.06 99.1658 68.16Z" fill="white" stroke="#263238" stroke-width="0.58204" stroke-linecap="round" stroke-linejoin="round"/>
    <path d="M98.2184 65.7285L93.582 70.3649" stroke="#263238" stroke-width="0.58204" stroke-linecap="round" stroke-linejoin="round"/>
    <path d="M130.658 103.939C130.658 103.268 130.459 102.612 130.086 102.054C129.713 101.496 129.183 101.061 128.563 100.804C127.943 100.547 127.261 100.48 126.603 100.611C125.944 100.742 125.34 101.065 124.865 101.54C124.39 102.014 124.067 102.619 123.936 103.277C123.805 103.936 123.873 104.618 124.129 105.238C124.386 105.858 124.821 106.388 125.379 106.761C125.937 107.134 126.593 107.333 127.265 107.333C128.165 107.333 129.028 106.975 129.664 106.339C130.3 105.702 130.658 104.839 130.658 103.939Z" fill="#263238" stroke="#263238" stroke-width="0.58204" stroke-linecap="round" stroke-linejoin="round"/>
    <path d="M159.045 68.16C159.045 67.4889 158.846 66.8328 158.473 66.2747C158.1 65.7167 157.57 65.2818 156.95 65.0249C156.33 64.7681 155.647 64.7009 154.989 64.8318C154.331 64.9627 153.726 65.2859 153.252 65.7605C152.777 66.2351 152.454 66.8397 152.323 67.498C152.192 68.1563 152.259 68.8386 152.516 69.4586C152.773 70.0787 153.208 70.6087 153.766 70.9816C154.324 71.3544 154.98 71.5535 155.651 71.5535C156.551 71.5535 157.414 71.196 158.051 70.5596C158.687 69.9232 159.045 69.06 159.045 68.16Z" fill="white" stroke="#263238" stroke-width="0.58204" stroke-linecap="round" stroke-linejoin="round"/>
    <path d="M158.097 65.7285L153.461 70.3649" stroke="#263238" stroke-width="0.58204" stroke-linecap="round" stroke-linejoin="round"/>
    <path d="M113.05 184.064L101.213 188.178C101.019 188.245 100.854 188.377 100.745 188.551C100.637 188.725 100.591 188.931 100.616 189.135C100.644 189.363 100.759 189.571 100.936 189.718C101.112 189.865 101.339 189.938 101.568 189.924L113.726 189.199L113.05 184.064Z" fill="white" stroke="#263238" stroke-width="0.58204" stroke-linecap="round" stroke-linejoin="round"/>
    <path d="M101.586 189.924L103.534 187.532" stroke="#263238" stroke-width="0.58204" stroke-linecap="round" stroke-linejoin="round"/>
    <path d="M103.801 189.752L106.361 186.635" stroke="#263238" stroke-width="0.58204" stroke-linecap="round" stroke-linejoin="round"/>
    <path d="M106.027 189.693L109.544 185.377" stroke="#263238" stroke-width="0.58204" stroke-linecap="round" stroke-linejoin="round"/>
    <path d="M108.359 189.563L112.527 184.458" stroke="#263238" stroke-width="0.58204" stroke-linecap="round" stroke-linejoin="round"/>
    <path d="M117.094 186.353C117.013 185.687 116.736 185.06 116.299 184.551C115.861 184.042 115.283 183.674 114.636 183.494C113.99 183.314 113.304 183.329 112.667 183.539C112.029 183.748 111.468 184.142 111.054 184.67C110.64 185.198 110.392 185.838 110.342 186.507C110.291 187.176 110.44 187.845 110.77 188.43C111.1 189.014 111.595 189.488 112.194 189.791C112.793 190.094 113.468 190.212 114.135 190.131C114.577 190.077 115.005 189.937 115.393 189.718C115.781 189.499 116.122 189.206 116.397 188.855C116.672 188.504 116.875 188.103 116.994 187.673C117.114 187.244 117.148 186.795 117.094 186.353Z" fill="white" stroke="#263238" stroke-width="0.58204" stroke-linecap="round" stroke-linejoin="round"/>
    <path d="M115.861 184.049L111.816 189.208" stroke="#263238" stroke-width="0.58204" stroke-linecap="round" stroke-linejoin="round"/>
    <path d="M174.624 183.393L173.445 184.873C173.307 184.784 173.169 184.695 173.011 184.611C172.467 184.308 171.903 184.041 171.324 183.812L174.283 182.934L175.428 182.668V182.594H175.452H175.428V179.344L169.785 180.424L170.771 181.257L170.328 181.129L166.194 182.357C164.458 182.002 165.075 180.616 163.082 180.424L161.415 179.827L154.317 179.511L153.129 179.541C150.662 178.121 148.394 177.953 147.294 181.514L144.551 179.98L141.207 180.473L143.096 179.043L138.203 177.593V180.932L134.44 181.548H128.107V184.888L133.419 185.667C133.235 185.841 133.069 186.035 132.926 186.244L127.905 186.486L126.691 184.414V187.753L127.905 189.82L132.546 189.598V192.395L137.676 193.874L141.839 192.636C143.696 193.007 145.571 193.28 147.456 193.455L146.618 195.167L153.716 195.482L154.564 193.771C156.631 193.771 158.712 193.667 160.744 193.475L163.486 195.009L169.829 194.047L169.336 191.926C170.096 191.699 170.816 191.462 171.423 191.206L176.71 191.985L179.886 190.111V187.309L181.287 187.245V183.906L174.624 183.393ZM139.831 181.864L140.941 182.486C140.245 182.639 139.594 182.806 138.968 182.979L139.831 181.864ZM162.327 190.742V189.051L160.419 189.105V188.858L158.401 189.169C154.672 189.277 149.602 189.43 149.424 189.43L149.005 190.284C146.011 190.441 143.402 190.254 141.794 189.351C138.248 187.378 140.837 184.942 147.585 183.926C154.332 182.91 162.668 183.689 166.214 185.667C169.4 187.433 167.62 189.578 162.327 190.732V190.742ZM178.338 187.709L176.365 187.482L178.944 187.359L178.338 187.709Z" fill="#263238" stroke="#263238" stroke-width="0.58204" stroke-linecap="round" stroke-linejoin="round"/>
    <path d="M161.4 176.493L159.777 178.979L161.4 178.58V176.493Z" fill="#263238" stroke="#263238" stroke-width="0.58204" stroke-linecap="round" stroke-linejoin="round"/>
    <path d="M160.416 187.744C153.673 188.765 145.332 187.986 141.791 186.008C138.25 184.03 140.834 181.593 147.582 180.582C154.329 179.571 162.665 180.34 166.211 182.318C169.757 184.296 167.163 186.728 160.416 187.744ZM144.533 176.646L138.186 177.633L140.938 179.172C139.448 179.486 137.987 179.921 136.568 180.474L131.28 179.699L128.104 181.569L133.416 182.348C133.151 182.572 132.935 182.848 132.781 183.16C132.627 183.471 132.54 183.811 132.523 184.158L126.703 184.434L127.916 186.506L133.751 186.225C134.138 186.54 134.552 186.819 134.989 187.058C135.534 187.36 136.097 187.625 136.676 187.852L132.558 189.076L137.687 190.555L141.821 189.327C143.681 189.696 145.56 189.969 147.448 190.146L146.6 191.852L153.698 192.168L154.546 190.462C156.613 190.462 158.694 190.353 160.726 190.161L163.469 191.695L169.812 190.738L167.059 189.199C168.548 188.882 170.01 188.447 171.429 187.897L176.717 188.671L179.893 186.802L174.581 186.022C174.846 185.798 175.062 185.522 175.216 185.21C175.369 184.899 175.457 184.559 175.474 184.212L181.294 183.931L180.081 181.865L174.246 182.141C173.859 181.827 173.445 181.55 173.008 181.312C172.463 181.011 171.899 180.744 171.321 180.513L175.444 179.29L170.31 177.81L166.176 179.038C164.316 178.668 162.438 178.394 160.549 178.22L161.397 176.513L154.299 176.192L153.451 177.904C151.384 177.904 149.303 178.012 147.276 178.2L144.533 176.666" fill="#BDBDBD"/>
    <path d="M144.533 176.646L138.186 177.633L140.938 179.172C139.448 179.486 137.987 179.921 136.568 180.474L131.28 179.699L128.104 181.569L133.416 182.348C133.151 182.572 132.935 182.848 132.781 183.16C132.627 183.471 132.54 183.811 132.523 184.158L126.703 184.434L127.916 186.506L133.751 186.225C134.138 186.54 134.552 186.819 134.989 187.058C135.534 187.36 136.097 187.625 136.676 187.852L132.558 189.076L137.687 190.555L141.821 189.327C143.681 189.696 145.56 189.969 147.448 190.146L146.6 191.852L153.698 192.168L154.546 190.462C156.613 190.462 158.694 190.353 160.726 190.161L163.469 191.695L169.812 190.738L167.059 189.199C168.548 188.882 170.01 188.447 171.429 187.897L176.717 188.671L179.893 186.802L174.581 186.022C174.846 185.798 175.062 185.522 175.216 185.21C175.369 184.899 175.457 184.559 175.474 184.212L181.294 183.931L180.081 181.865L174.246 182.141C173.859 181.827 173.445 181.55 173.008 181.312C172.463 181.011 171.899 180.744 171.321 180.513L175.444 179.29L170.31 177.81L166.176 179.038C164.316 178.668 162.438 178.394 160.549 178.22L161.397 176.513L154.299 176.192L153.451 177.904C151.384 177.904 149.303 178.012 147.276 178.2L144.533 176.666M160.416 187.744C153.673 188.765 145.332 187.986 141.791 186.008C138.25 184.03 140.834 181.593 147.582 180.582C154.329 179.571 162.665 180.34 166.211 182.318C169.757 184.296 167.163 186.728 160.416 187.744Z" stroke="#263238" stroke-width="0.58204" stroke-linecap="round" stroke-linejoin="round"/>
    <path d="M114.588 102.341C114.586 101.478 114.522 100.616 114.395 99.7619L118.943 98.2822L119.564 96.8025L118.578 97.0935L117.172 92.7629L112.61 94.2426C111.816 92.7385 110.807 91.3578 109.616 90.1439L112.427 86.272L113.049 84.7923L112.062 86.0057L107.737 82.8638L104.915 86.7455C103.39 85.9905 101.761 85.4653 100.082 85.1869V80.4025H95.2282L94.8533 78.9229L94.2368 80.4025V85.2017C92.5582 85.4868 90.931 86.0187 89.4081 86.78L86.5966 82.8934L83.435 85.1918L82.5127 84.8219L82.414 85.0636L81.8912 86.3115L84.7174 90.1932C83.5358 91.4129 82.5388 92.7987 81.758 94.3067L78.7049 93.3203L77.827 91.3474L77.2055 92.8271L75.4102 98.3512L79.9725 99.8309C79.8517 100.659 79.7907 101.495 79.79 102.332C79.7915 103.195 79.8558 104.057 79.9824 104.911L77.5162 105.715L76.0661 104.901L75.4496 106.381L77.2252 111.925L81.7876 110.445C82.5821 111.952 83.5924 113.334 84.7865 114.549L83.0355 116.951H82.5916L81.9701 118.431L86.6706 121.849L89.4919 117.967C91.0185 118.72 92.647 119.245 94.3256 119.526V124.31H100.136L100.757 122.83H100.136V119.516C101.815 119.231 103.442 118.699 104.965 117.937L107.776 121.804L112.481 118.391L113.098 116.912L111.84 117.518L109.66 114.514C110.842 113.295 111.839 111.909 112.62 110.401L117.172 111.881L118.967 106.356L114.405 104.877C114.527 104.037 114.588 103.19 114.588 102.341ZM97.1814 113.523C94.9697 113.524 92.8074 112.869 90.9679 111.641C89.1285 110.413 87.6945 108.667 86.8475 106.624C86.0004 104.581 85.7783 102.332 86.2092 100.163C86.64 97.9938 87.7046 96.0009 89.2682 94.4367C90.8317 92.8724 92.8241 91.807 94.9932 91.3751C97.1624 90.9433 99.4109 91.1644 101.454 92.0106C103.498 92.8568 105.244 94.2899 106.473 96.1288C107.702 97.9677 108.358 100.13 108.358 102.341C108.358 105.306 107.181 108.15 105.085 110.246C102.989 112.343 100.146 113.522 97.1814 113.523Z" fill="#263238" stroke="#263238" stroke-width="0.58204" stroke-linecap="round" stroke-linejoin="round"/>
    <path d="M117.793 110.368L119.589 104.838L115.026 103.359C115.143 102.529 115.202 101.691 115.204 100.853C115.204 99.9915 115.141 99.131 115.016 98.2784L119.564 96.7987L117.769 91.2696L113.206 92.7493C112.412 91.2427 111.402 89.8602 110.207 88.6456L113.024 84.7737L108.299 81.3655L105.482 85.2423C103.955 84.4892 102.324 83.9656 100.644 83.6886V78.9043H94.8532V83.7034C93.1746 83.9885 91.5474 84.5204 90.0244 85.2818L87.213 81.4099L82.5125 84.8231L85.3338 88.7097C84.1537 89.9307 83.1569 91.3163 82.3744 92.8233L77.8268 91.3436L76.0117 96.853L80.5741 98.3327C80.4534 99.1608 80.3924 99.9965 80.3916 100.833C80.3904 101.697 80.4547 102.559 80.584 103.413L76.0315 104.893L77.8317 110.422L82.3941 108.942C83.184 110.449 84.1929 111.83 85.3881 113.041L82.5766 116.918L87.2771 120.331L90.0984 116.449C91.6229 117.207 93.2522 117.732 94.9321 118.008V122.792H100.742V117.993C102.421 117.708 104.048 117.176 105.571 116.415L108.383 120.286L113.083 116.868L110.272 113.001C111.453 111.782 112.45 110.396 113.231 108.888L117.793 110.368ZM86.6211 100.853C86.6211 98.6414 87.277 96.4794 88.5059 94.6404C89.7348 92.8015 91.4814 91.3684 93.5248 90.5222C95.5683 89.6761 97.8168 89.4549 99.9859 89.8868C102.155 90.3186 104.147 91.384 105.711 92.9483C107.275 94.5126 108.339 96.5054 108.77 98.6747C109.201 100.844 108.979 103.092 108.132 105.136C107.285 107.179 105.851 108.925 104.011 110.153C102.172 111.381 100.009 112.036 97.7978 112.035C96.3296 112.035 94.8758 111.745 93.5195 111.183C92.1632 110.621 90.9309 109.798 89.8929 108.759C88.855 107.721 88.0319 106.488 87.4705 105.132C86.9091 103.775 86.6205 102.321 86.6211 100.853Z" fill="#BDBDBD" stroke="#263238" stroke-width="0.58204" stroke-linecap="round" stroke-linejoin="round"/>
    <path d="M144.881 71.4256C144.882 70.5621 144.817 69.6998 144.688 68.846L149.241 67.3663L149.857 65.8866L148.871 66.1776L147.445 61.8323L142.883 63.312C142.087 61.8076 141.077 60.427 139.884 59.2132L142.7 55.3413L143.317 53.8616L142.33 55.075L138.005 51.9331L135.188 55.8148C133.661 55.0601 132.031 54.5349 130.35 54.2562V49.4719H125.531L125.161 47.9922L124.54 49.4719V54.271C122.861 54.5561 121.234 55.088 119.711 55.8494L116.899 51.9775L113.723 54.276L112.806 53.911L112.702 54.1477L112.189 55.4203L115.01 59.302C113.828 60.5225 112.831 61.9102 112.051 63.4205L108.998 62.434L108.12 60.4611L107.503 61.9408L105.708 67.465L110.27 68.9447C110.15 69.7728 110.089 70.6085 110.088 71.4453C110.087 72.3088 110.151 73.1712 110.28 74.0249L107.814 74.8289L106.325 73.9954L105.703 75.475L107.498 80.9992L112.066 79.5195C112.858 81.0248 113.867 82.4057 115.06 83.6183L113.314 86.0253H112.865L112.243 87.4803L116.944 90.8984L119.76 87.0167C121.288 87.7714 122.918 88.2966 124.599 88.5753V93.3991H130.409L131.031 91.9194H130.409V88.6049C132.088 88.3198 133.715 87.7879 135.238 87.0265L138.049 90.8984L142.75 87.4803L143.371 86.0006L142.109 86.6024L139.928 83.6035C141.111 82.383 142.108 80.9953 142.888 79.485L147.44 80.9647L149.236 75.4405L144.668 73.9608C144.801 73.122 144.872 72.2747 144.881 71.4256ZM127.474 82.6072C125.263 82.6072 123.101 81.9514 121.262 80.7227C119.423 79.4941 117.99 77.7478 117.144 75.7046C116.298 73.6614 116.076 71.4132 116.508 69.2442C116.939 67.0752 118.004 65.0828 119.568 63.5191C121.132 61.9553 123.124 60.8903 125.293 60.4589C127.462 60.0275 129.71 60.2489 131.753 61.0952C133.797 61.9415 135.543 63.3747 136.771 65.2135C138 67.0523 138.656 69.2141 138.656 71.4256C138.656 74.3911 137.478 77.2352 135.381 79.3322C133.284 81.4291 130.44 82.6072 127.474 82.6072Z" fill="#263238" stroke="#263238" stroke-width="0.58204" stroke-linecap="round" stroke-linejoin="round"/>
    <path d="M148.09 79.4506L149.885 73.9215L145.323 72.4418C145.444 71.6137 145.505 70.778 145.506 69.9411C145.504 69.0777 145.44 68.2155 145.313 67.3615L149.861 65.8818L148.065 60.3527L143.503 61.8324C142.713 60.3256 141.704 58.9443 140.509 57.7336L143.32 53.8568L138.62 50.4437L135.799 54.3254C134.274 53.5685 132.645 53.0432 130.965 52.7668V47.9824H125.155V52.7816C123.476 53.0667 121.849 53.5985 120.326 54.3599L117.515 50.488L112.814 53.9061L115.635 57.7879C114.454 59.0075 113.457 60.3934 112.676 61.9014L108.123 60.4217L106.328 65.9558L110.891 67.4355C110.77 68.2652 110.709 69.1026 110.708 69.9411C110.709 70.8029 110.774 71.6634 110.9 72.5158L106.353 73.9955L108.148 79.5246L112.711 78.0449C113.505 79.5515 114.515 80.934 115.709 82.1486L112.873 86.0007L117.574 89.4533L120.395 85.5765C121.921 86.329 123.55 86.8525 125.229 87.1302V91.9146H131.044V87.1203C132.721 86.834 134.347 86.3004 135.868 85.5371L138.684 89.4089L143.385 85.9958L140.563 82.1091C141.744 80.8883 142.74 79.5027 143.523 77.9956L148.09 79.4506ZM116.918 69.9411C116.917 67.7294 117.572 65.5671 118.8 63.7276C120.028 61.8882 121.774 60.4542 123.817 59.6072C125.86 58.7601 128.108 58.538 130.278 58.9689C132.447 59.3997 134.44 60.4643 136.004 62.0279C137.568 63.5914 138.634 65.5838 139.066 67.7529C139.498 69.9221 139.276 72.1706 138.43 74.214C137.584 76.2575 136.151 78.0041 134.312 79.2329C132.473 80.4618 130.311 81.1177 128.099 81.1177C125.135 81.1177 122.291 79.9403 120.195 77.8445C118.098 75.7486 116.919 72.9058 116.918 69.9411Z" fill="#BDBDBD" stroke="#263238" stroke-width="0.58204" stroke-linecap="round" stroke-linejoin="round"/>
    <path opacity="0.2" d="M138.992 108.339H139.037L139.781 107.663L138.992 108.339Z" fill="black"/>
    <path opacity="0.2" d="M138.151 110.663L137.914 110.786C137.924 110.851 137.968 110.855 138.151 110.663Z" fill="black"/>
    <path opacity="0.2" d="M138.56 109.809C138.629 109.72 138.066 110.302 137.879 110.539C138.066 110.45 138.599 109.952 138.56 109.809Z" fill="black"/>
    <path opacity="0.2" d="M137.277 111.925L139.363 111.249C139.521 111.092 139.605 110.953 139.492 110.875C139.137 111.368 139.181 111.052 138.924 111.235V111.279C138.86 111.323 138.668 111.457 138.742 111.323C139.249 111.031 139.734 110.701 140.192 110.337C139.985 110.445 140.251 110.036 140.261 109.962C140.656 109.641 140.365 110.056 140.409 110.149C140.606 109.967 141.04 109.789 141.075 109.513C141.243 109.148 140.641 109.735 140.468 109.735L141.692 108.833H141.632C141.793 108.767 141.93 108.656 142.027 108.512C142.052 108.329 141.785 108.556 141.647 108.739C142.086 108.058 142.89 108.024 143.127 107.304L142.939 107.422C143.008 107.328 143.073 107.289 143.132 107.289C143.191 107.289 143.132 107.289 143.132 107.289L143.512 107.052C143.512 107.003 143.512 106.909 143.467 106.953L143.847 106.731C144.493 106.238 143.847 106.406 143.985 106.179L143.955 106.209C144.103 106.006 144.163 105.799 144.02 105.903L144.725 105.41C144.646 105.41 144.582 105.41 144.567 105.36L144.725 105.41C145.105 105.321 146.017 104.477 146.269 104.749C146.293 104.717 146.316 104.684 146.338 104.65C146.338 104.601 146.313 104.546 146.303 104.492C146.244 104.554 146.178 104.609 146.106 104.655L146.303 104.492C146.192 103.916 146.126 103.332 146.106 102.746C145.943 102.879 145.825 102.998 145.82 103.086L145.889 103.047L145.864 103.185C145.848 103.175 145.835 103.16 145.827 103.142C145.819 103.125 145.817 103.105 145.82 103.086C145.351 103.368 145.011 103.831 144.641 104.073L144.74 104.211C144.526 104.335 144.33 104.487 144.158 104.665C144.158 104.665 144.212 104.665 144.261 104.665L144.533 104.453C144.464 104.548 144.37 104.621 144.261 104.665C143.655 105.15 143.077 105.671 142.53 106.223C142.639 106.273 142.688 106.322 143.023 106.051C142.653 106.643 141.598 107.175 140.912 107.95H141.021L140.528 108.26C140.651 108.216 140.636 108.31 140.69 108.359C140.01 109.084 139.137 109.947 138.54 110.076C138.791 109.937 138.362 110.534 138.865 110.219C138.27 110.631 137.714 111.096 137.203 111.609L137.277 111.925ZM141.139 109.01L141.598 108.65L141.129 109.104L141.139 109.01ZM139.95 110.1L139.546 110.505L139.294 110.638L139.95 110.1Z" fill="black"/>
    <path opacity="0.2" d="M137.893 110.806C137.893 110.712 138.021 110.455 137.695 110.904L137.893 110.806Z" fill="black"/>
    <path opacity="0.2" d="M137.938 109.292L138.756 108.798L138.45 108.932L138.944 108.572C138.796 108.522 138.233 108.833 137.938 109.292Z" fill="black"/>
    <path opacity="0.2" d="M138.384 109.252C138.292 109.3 138.207 109.361 138.133 109.434C138.21 109.365 138.295 109.304 138.384 109.252Z" fill="black"/>
    <path opacity="0.2" d="M138.387 109.251C138.49 109.221 138.357 109.443 138.683 109.216C138.678 109.123 138.545 109.182 138.387 109.251Z" fill="black"/>
    <path opacity="0.2" d="M154.961 121.73L155.212 121.345C154.847 121.325 155.015 121.537 154.961 121.73Z" fill="black"/>
    <path opacity="0.2" d="M139.22 108.349L139.038 108.339L138.988 108.383L139.22 108.349Z" fill="black"/>
    <path opacity="0.2" d="M159.195 89.6798C159.398 89.5959 159.713 89.586 159.822 89.1865C159.442 89.2161 159.521 89.4973 159.195 89.6798Z" fill="black"/>
    <path opacity="0.2" d="M154.879 121.858C154.918 121.824 154.946 121.78 154.958 121.729L154.879 121.858Z" fill="black"/>
    <path opacity="0.2" d="M161.829 85.5576H161.75C161.676 85.6908 161.641 85.7993 161.681 85.8141C161.708 85.7178 161.759 85.6297 161.829 85.5576Z" fill="black"/>
    <path opacity="0.2" d="M159.736 90.9339H159.617C160.323 90.4406 160.87 89.4295 161.482 88.7538C161.482 88.8426 160.949 89.2914 161.166 89.39L162.024 88.6206C162.024 88.5318 162.375 88.1668 162.069 88.3C161.96 88.3898 161.867 88.4964 161.793 88.6157L161.817 88.4332C162.666 87.7574 162.01 88.7143 162.167 88.8524C162.518 88.3986 162.809 88.4036 163.08 88.1323C163.055 87.8561 162.389 88.4924 162.587 87.9843C162.977 87.4908 163.486 87.1039 164.066 86.8598C164.085 86.7025 164.14 86.5519 164.229 86.4208C164.007 86.3221 163.78 86.2284 163.553 86.1396C162.301 87.2938 160.855 88.083 159.884 89.6169H159.938L158.858 90.337C158.715 90.5195 158.809 90.707 158.587 91.0226C158.587 90.8747 158.419 91.0226 158.227 91.2199C158.592 91.2545 158.947 91.3038 159.297 91.3679C159.41 91.1934 159.56 91.0454 159.736 90.9339Z" fill="black"/>
    <path opacity="0.2" d="M140.694 107.358C140.832 107.175 140.664 107.126 141.044 106.899C141.083 107.042 141.414 107.141 141.779 106.638C141.378 106.725 140.998 106.893 140.664 107.131L140.694 107.358Z" fill="black"/>
    <path opacity="0.2" d="M141.746 106.938L142.239 106.321C141.741 106.425 141.889 106.662 141.746 106.938Z" fill="black"/>
    <path opacity="0.2" d="M141.747 106.938L141.594 107.14C141.657 107.083 141.709 107.014 141.747 106.938Z" fill="black"/>
    <path opacity="0.2" d="M146.188 100.665H146.194V100.659L146.188 100.665Z" fill="black"/>
    <path opacity="0.2" d="M171.053 91.7562L170.95 91.6279C170.876 91.692 170.802 91.7611 170.723 91.84C170.733 91.9584 170.905 91.8597 171.053 91.7562Z" fill="black"/>
    <path opacity="0.2" d="M165.714 109.74C165.897 109.454 166.124 109.519 166.281 109.361C166.237 109.232 166.099 109.292 165.99 109.301C165.887 109.43 165.788 109.553 165.68 109.676C165.684 109.701 165.696 109.723 165.714 109.74Z" fill="black"/>
    <path opacity="0.2" d="M166.264 109.216C166.264 109.112 166.446 108.935 166.594 108.722C166.368 108.688 166.165 109.181 166.264 109.216Z" fill="black"/>
    <path opacity="0.2" d="M163.379 113.095C163.216 113.184 162.812 113.134 162.684 113.504L162.93 113.376L162.896 113.43L163.034 113.47C162.743 113.287 163.261 113.198 163.379 113.095Z" fill="black"/>
    <path opacity="0.2" d="M167.55 95.9443L167.328 96.2649L167.525 96.0824L167.55 95.9443Z" fill="black"/>
    <path opacity="0.2" d="M146.596 105.729C146.423 105.908 146.237 106.073 146.039 106.223L146.133 106.366C145.92 106.488 145.724 106.639 145.551 106.815C145.567 106.822 145.585 106.826 145.603 106.826C145.62 106.826 145.638 106.822 145.654 106.815L145.931 106.598C145.86 106.694 145.764 106.769 145.654 106.815C145.058 107.297 144.488 107.813 143.948 108.358C144.056 108.408 144.111 108.457 144.441 108.186C144.071 108.778 143.011 109.31 142.325 110.085H142.439L141.945 110.395C142.069 110.356 142.054 110.45 142.103 110.494L141.97 110.632C142.745 112.058 143.714 113.37 144.85 114.529L142.039 118.401L146.74 121.819L149.556 117.937C151.084 118.69 152.714 119.215 154.394 119.496V120.625C154.444 120.589 154.484 120.541 154.511 120.486C154.539 120.431 154.553 120.371 154.552 120.309L154.429 120.364C154.468 120.304 154.508 120.285 154.552 120.295C154.597 120.304 154.552 120.295 154.552 120.295L154.804 120.186C154.804 120.147 154.804 120.078 154.75 120.097L155.001 120.004C155.411 119.747 154.922 119.742 155.001 119.594C155.075 119.466 155.08 119.318 155.001 119.367L155.455 119.126C155.428 119.126 155.402 119.119 155.378 119.106C155.355 119.093 155.336 119.075 155.322 119.052L155.455 119.126C155.736 119.126 156.284 118.657 156.54 118.923C156.609 118.81 156.639 118.692 156.54 118.692C156.5 118.739 156.449 118.776 156.392 118.8L156.54 118.692C156.816 118.45 156.279 118.549 156.732 118.174C156.683 118.124 156.649 118.174 156.565 118.228C156.668 118.115 156.727 118.085 156.777 118.095C156.74 118.059 156.716 118.012 156.708 117.962C156.806 118.06 156.959 117.863 157.028 117.75H156.718C156.802 117.745 156.884 117.72 156.956 117.675C157.028 117.63 157.086 117.567 157.127 117.493H156.905C157.226 117.246 157.152 117.7 157.398 117.266L157.191 117.68C157.586 117.355 157.684 117.68 157.931 117.616C158.478 117.404 158.641 116.63 159.263 116.679C159.199 116.526 159.115 116.536 159.129 116.339C159.033 116.427 158.919 116.493 158.795 116.533C158.67 116.573 158.539 116.586 158.409 116.571C157.788 116.872 158.7 117.094 157.941 117.35C157.832 117.187 157.985 117.024 158.197 116.951C158.089 116.817 157.837 116.916 157.67 116.951C158.025 116.724 158.296 116.156 158.493 115.964H158.469H158.513C158.722 115.926 158.911 115.818 159.051 115.658C159.051 115.658 159.051 115.614 159.051 115.56C159.06 115.574 159.066 115.591 159.066 115.609C159.066 115.626 159.06 115.644 159.051 115.658C159.125 115.767 159.647 115.377 159.692 115.703C160.052 115.436 159.628 115.249 160.146 115.16C159.874 115.116 160.239 114.844 159.973 114.839C160.003 115.081 159.445 115.195 159.189 115.259L159.559 114.721C159.49 114.874 159.746 114.81 159.83 114.765L159.761 114.578C160.146 114.82 160.333 113.557 160.925 113.69C160.762 113.814 160.747 114.045 160.515 113.947C160.343 114.302 160.806 114.129 160.792 114.361C161.329 114.075 161.749 113.246 162.424 113.034C162.247 113.034 162.054 113.236 161.906 113.123C162.163 112.724 162.853 112.63 163.347 112.354L163.115 112.255C163.578 112.077 163.179 112.068 163.578 111.762C163.578 111.796 163.578 111.905 163.677 111.821C163.948 111.53 163.569 111.658 163.712 111.431C164.003 111.382 164.012 111.303 164.012 111.194C162.59 112.279 160.929 113.006 159.167 113.315C157.406 113.624 155.596 113.506 153.89 112.97C152.183 112.435 150.631 111.498 149.361 110.238C148.092 108.978 147.144 107.432 146.596 105.729ZM162.927 112.043C163.125 112.161 162.681 112.477 162.612 112.625C162.488 112.368 162.977 112.408 162.927 112.058V112.043Z" fill="black"/>
    <path opacity="0.2" d="M171.056 92.4136C171.085 92.3661 171.109 92.3146 171.125 92.2607C171.065 92.3347 171.051 92.3791 171.056 92.4136Z" fill="black"/>
    <path opacity="0.2" d="M171.164 92.4822C171.229 92.4802 171.291 92.4538 171.337 92.4082C171.273 92.4159 171.213 92.4416 171.164 92.4822Z" fill="black"/>
    <path opacity="0.2" d="M171.167 92.4821C171.108 92.4821 171.069 92.4821 171.059 92.418C170.699 92.9451 170.278 93.4284 169.806 93.8582C169.717 94.09 170.299 93.73 170.472 93.6412C169.865 93.4439 171.005 93.148 171.187 92.6843C171.064 92.7287 170.857 92.9556 170.743 92.9507C170.849 92.7657 170.994 92.6059 171.167 92.4821Z" fill="black"/>
    <path opacity="0.2" d="M154.92 121.514C154.74 121.515 154.56 121.533 154.383 121.568C154.41 121.619 154.451 121.662 154.503 121.689C154.554 121.717 154.612 121.729 154.67 121.723C154.728 121.717 154.783 121.694 154.827 121.657C154.872 121.619 154.904 121.57 154.92 121.514Z" fill="black"/>
    <path opacity="0.2" d="M170.08 92.7085L170.879 91.9391C170.677 91.7467 170.549 92.2548 170.312 92.2992C170.346 92.0378 170.657 91.8059 170.919 91.5889C170.523 91.0841 170.101 90.6001 169.656 90.1388L172.467 86.2669L169.084 83.8008C168.793 84.077 168.457 84.4568 168.097 84.7429L168.201 84.8366L167.816 85.1078L167.994 85.0635C167.663 85.3791 167.111 85.6011 166.82 86.0499C167.027 85.7786 167.244 85.8773 167.288 85.971L166.134 86.7799C166.179 86.8736 165.769 87.3274 166.134 87.1054L165.641 87.3718L165.749 87.4211C164.359 89.103 162.46 89.8527 161.276 91.727H161.33L161.133 91.8602C163.429 92.7216 165.38 94.3121 166.687 96.3881C167.226 96.0383 167.723 95.6261 168.166 95.1599C168.053 95.1599 167.851 95.3375 167.796 95.3375C168.383 94.8442 169.419 94.4891 169.557 93.8923C169.222 94.06 168.827 94.2672 168.467 94.4645C168.416 94.5204 168.349 94.5585 168.275 94.573C168.048 94.7012 167.836 94.8196 167.678 94.9182C167.969 94.5187 168.112 94.6026 168.275 94.573L168.467 94.4645C168.57 94.3591 168.655 94.2374 168.719 94.1044L168.418 94.1932C169.034 93.5076 169.148 93.9318 169.641 93.6999L169.893 93.1525C170.258 92.6784 170.692 92.2612 171.18 91.9144L171.067 91.7763C170.771 92.0969 170.396 92.5951 170.08 92.7085Z" fill="black"/>
    <path opacity="0.2" d="M160.368 115.683L160.27 115.766C160.309 115.748 160.343 115.719 160.368 115.683Z" fill="black"/>
    <path opacity="0.2" d="M160.089 115.802C160.173 115.911 160.183 115.861 160.281 115.768C160.133 115.837 159.995 115.674 159.887 115.95C159.961 115.94 159.99 115.812 160.089 115.802Z" fill="black"/>
    <path opacity="0.2" d="M160.82 115.067C160.731 114.742 160.326 115.205 160.203 115.432C160.331 115.403 160.583 114.934 160.82 115.067Z" fill="black"/>
    <path opacity="0.2" d="M160.258 114.845L160.282 115.018L160.435 114.825L160.258 114.845Z" fill="black"/>
    <path opacity="0.2" d="M161.938 113.227L162.189 113.094L162.184 113.06L161.938 113.193V113.227Z" fill="black"/>
    <path opacity="0.2" d="M161.75 115.131C161.508 114.963 161.651 115.372 161.355 115.456C161.454 115.555 161.691 115.353 161.824 115.353C161.898 115.239 161.686 115.279 161.592 115.254C161.633 115.2 161.687 115.157 161.75 115.131Z" fill="black"/>
    <path opacity="0.2" d="M161.1 116.088L161.012 116.167C161.05 116.153 161.082 116.125 161.1 116.088Z" fill="black"/>
    <path opacity="0.2" d="M161.098 116.087L161.246 115.964C161.137 115.885 161.147 115.999 161.098 116.087Z" fill="black"/>
    <path opacity="0.2" d="M159.523 88.8068L159.726 88.5799C159.509 88.9005 160.219 88.4023 159.864 88.8611C159.721 89.0435 160.234 88.6835 160.382 88.4517C160.273 88.4023 159.928 88.8117 159.957 88.5848L160.101 88.4023C159.888 88.6786 159.76 88.3481 159.523 88.8068Z" fill="black"/>
    <path opacity="0.2" d="M170.735 105.995C170.611 106.064 170.567 106.049 170.508 106.271C170.631 106.222 170.745 106.064 170.735 105.995Z" fill="black"/>
    <path opacity="0.2" d="M167.359 108.196C167.319 108.196 167.048 108.512 166.949 108.418L167.023 108.64C167.132 108.468 167.393 108.443 167.359 108.532C167.378 108.32 167.546 108.27 167.359 108.196Z" fill="black"/>
    <path opacity="0.2" d="M169.13 106.224C169.022 106.391 168.637 106.416 168.746 106.653L169.111 106.421C169.101 106.307 169.268 106.258 169.13 106.224Z" fill="black"/>
    <path opacity="0.2" d="M174.651 102.342C174.652 101.479 174.587 100.616 174.458 99.7627L179.011 98.283L177.215 92.7588L172.653 94.2385C172.392 93.7453 172.105 93.2816 171.805 92.818C171.661 92.9954 171.481 93.1401 171.277 93.2422C171.277 93.3309 171.474 93.1041 171.39 93.2915C170.404 94.2434 168.766 95.5012 167.721 96.7786C167.573 96.7046 167.346 96.8181 167.074 97.0154C168.057 98.8196 168.523 100.86 168.421 102.912C168.319 104.964 167.654 106.948 166.497 108.646C166.595 108.598 166.7 108.57 166.808 108.562C166.69 107.985 167.652 107.575 167.39 107.309C167.39 107.344 167.578 107.358 167.647 107.21H167.484C167.686 106.762 168.046 107.132 168.189 106.87C168.135 106.826 168.056 106.87 167.962 106.841C168.337 106.347 168.973 106.485 169.25 105.889C169.2 105.889 169.156 105.864 169.121 105.918C169.087 105.972 169.151 105.829 169.363 105.751L169.309 106.007C169.851 106.091 169.802 105.262 170.231 104.986C170.137 104.986 169.866 105.223 169.925 104.986C170.157 104.749 170.468 105.109 170.586 104.665C170.424 104.754 170.305 104.562 170.152 104.665C170.116 104.713 170.075 104.756 170.029 104.794C170.059 104.742 170.102 104.698 170.152 104.665C170.315 104.463 170.35 104.241 170.537 104.295C170.555 104.271 170.565 104.242 170.565 104.212C170.565 104.181 170.555 104.152 170.537 104.128C170.508 104.135 170.477 104.135 170.448 104.128C170.448 104.088 170.502 104.098 170.537 104.128C170.749 104.128 170.867 103.852 170.961 103.704L170.872 103.674C171.415 103.763 171.262 103.314 171.583 103.033L171.445 102.993C171.607 102.905 171.908 102.821 171.992 102.475H171.77C172.022 102.377 172.179 101.884 172.49 101.903C172.525 101.81 172.13 101.869 172.401 101.573C172.535 101.573 172.826 101.425 172.801 101.247C172.752 101.198 172.658 101.173 172.633 101.302C172.594 101.356 172.633 101.336 172.683 101.351H172.505C172.643 101.055 172.761 101.252 172.939 100.971C172.939 100.863 172.761 100.971 172.673 100.927L173.728 100.246C173.827 100.305 173.758 100.458 173.935 100.473L173.669 100.803C173.669 101.075 173.98 100.803 174.162 100.7L173.97 100.917C173.973 100.92 173.977 100.923 173.981 100.925C173.985 100.926 173.99 100.927 173.995 100.927C173.999 100.927 174.004 100.926 174.008 100.925C174.012 100.923 174.016 100.92 174.019 100.917L173.861 101.065C174.448 100.823 173.684 101.726 174.261 101.415C174.123 101.509 173.959 101.557 173.792 101.553C173.551 101.721 173.689 101.755 173.659 101.884L174.078 101.701C173.56 102.125 174.266 101.79 174.014 102.224C173.521 102.525 173.694 103.146 173.521 103.363C173.087 103.743 173.521 103.057 173.2 103.235C172.959 103.437 173.2 103.432 173.067 103.605L172.796 103.526C172.515 103.753 172.949 103.704 172.742 103.783C172.648 104.093 172.875 103.783 173.062 103.871C172.974 103.871 172.687 104.034 172.663 104.197C172.712 104.246 172.988 103.985 172.835 104.197C172.115 104.734 172.16 105.09 171.573 105.627L171.711 105.667C171.627 105.711 171.538 105.721 171.509 105.815H171.597C171.201 106.092 170.83 106.404 170.488 106.747L170.784 106.663L170.325 106.875L170.522 106.993C170.251 106.954 169.96 107.442 169.6 107.714L169.703 107.807L169.452 107.94H169.585C169.393 108.123 169.003 108.177 168.865 108.478C168.973 108.305 169.166 108.429 169.22 108.513L168.48 108.912C168.534 108.991 168.308 109.267 168.559 109.169L168.219 109.272L168.317 109.336C167.573 110.372 166.231 110.564 165.688 111.802H165.733L165.028 112.138C164.954 112.256 165.067 112.419 164.959 112.631C164.885 112.409 164.643 112.912 164.421 112.883C164.357 113.07 164.52 112.981 164.613 113.006C164.258 113.652 163.627 113.805 163.173 114.456C163.354 114.044 163.584 113.654 163.859 113.297C163.331 113.657 163.405 113.879 162.872 114.308L163.163 114.15C163.134 114.619 162.315 114.757 162.487 115.078C162.172 115.324 161.683 115.319 161.383 115.709L161.743 115.778L161.432 116.094L161.279 115.951C161.171 116.044 161.146 116.123 161.171 116.172C161.247 116.16 161.326 116.16 161.402 116.172C161.294 116.232 161.2 116.217 161.171 116.172C160.791 116.217 160.584 116.611 160.154 116.779L160.199 116.883C160.248 116.883 160.288 116.883 160.199 116.967V116.883C160.159 116.887 160.12 116.887 160.08 116.883C160.154 117.07 159.868 117.258 159.977 117.376C160.1 117.307 160.386 117.154 160.288 117.095C160.677 117.001 160.076 117.47 159.923 117.628C160.021 117.391 159.785 117.593 159.661 117.657C159.661 117.692 159.706 117.657 159.75 117.687C159.538 118.062 159.059 117.79 159.119 118.249L158.931 118.16L158.798 118.496C158.502 118.239 158.443 118.796 158.147 118.579C157.876 118.841 158.339 118.703 158.216 118.767C158.024 119.073 157.338 119.26 157.382 119.472H157.427V119.581C157.397 119.559 157.377 119.528 157.368 119.492C157.057 119.615 156.874 119.906 156.648 120.034L156.751 120.168C156.613 120.215 156.488 120.295 156.386 120.399C156.413 120.41 156.443 120.41 156.47 120.399L156.638 120.286C156.62 120.317 156.596 120.343 156.567 120.363C156.538 120.382 156.505 120.395 156.47 120.399C156.103 120.656 155.759 120.945 155.444 121.263C155.543 121.327 155.592 121.376 155.794 121.228C155.627 121.623 154.902 121.82 154.522 122.289H154.611L154.398 122.377V122.506C154.405 122.519 154.415 122.531 154.428 122.54L154.398 122.57V124.197H160.209V119.398C161.887 119.113 163.515 118.581 165.037 117.82L167.849 121.687L172.549 118.274L169.728 114.387C170.911 113.168 171.908 111.782 172.687 110.273L177.235 111.753L179.035 106.229L174.468 104.749C174.584 103.952 174.645 103.148 174.651 102.342ZM169.388 105.514C169.605 105.173 169.462 105.435 169.782 105.188L169.388 105.514Z" fill="black"/>
    <path opacity="0.2" d="M139.867 102.342C139.866 103.206 139.93 104.068 140.06 104.922L135.507 106.401L136.903 110.693C137.317 110.316 137.67 109.877 137.948 109.39L137.189 109.839C137.539 109.43 138.358 108.937 138.096 108.744C137.736 109.238 137.781 108.922 137.524 109.104V109.149C137.46 109.193 137.268 109.326 137.342 109.193C137.85 108.9 138.337 108.571 138.797 108.207C138.585 108.315 138.851 107.906 138.861 107.832C139.256 107.511 138.965 107.926 139.009 108.019C139.206 107.837 139.64 107.659 139.68 107.383C139.842 107.018 139.241 107.605 139.068 107.6L140.262 106.717H140.203C140.362 106.65 140.499 106.539 140.597 106.397C140.597 106.214 140.36 106.441 140.217 106.623C140.656 105.943 141.46 105.908 141.697 105.188L141.51 105.306C141.584 105.213 141.643 105.173 141.702 105.168L142.082 104.927C142.082 104.882 142.082 104.789 142.042 104.833L142.417 104.611C143.068 104.118 142.417 104.285 142.555 104.054L142.526 104.083C142.674 103.881 142.733 103.679 142.59 103.782L143.295 103.289C143.216 103.289 143.157 103.289 143.137 103.24L143.295 103.289C143.675 103.2 144.587 102.352 144.839 102.628C144.982 102.446 145.056 102.273 144.947 102.303L144.918 102.332C144.847 102.409 144.768 102.477 144.681 102.535L144.918 102.332C144.918 102.332 144.918 102.332 144.943 102.303C145.406 101.879 144.637 102.209 145.391 101.528C145.342 101.479 145.273 101.573 145.145 101.662C145.327 101.469 145.421 101.41 145.48 101.405C145.461 101.385 145.447 101.36 145.439 101.334C145.43 101.308 145.428 101.28 145.431 101.252C145.534 101.346 145.811 101.025 145.954 100.843L145.534 100.932C145.795 100.836 146.02 100.664 146.181 100.438L145.88 100.522C146.131 100.31 146.2 100.345 146.264 100.364C146.688 98.0146 147.852 95.8621 149.588 94.2219C151.323 92.5818 153.537 91.5401 155.907 91.2494C156.025 91.1559 156.104 91.0225 156.129 90.8745C156.233 90.9189 156.129 91.0718 155.976 91.2445C156.075 91.2445 156.173 91.2346 156.272 91.2149H156.198C156.893 90.8104 156.356 90.9387 157.007 90.3961C157.007 90.4405 156.982 90.5835 157.12 90.4454C157.614 89.9522 157.027 90.258 157.308 89.893C158.171 89.5379 157.431 89.4343 158.329 88.803H158.215C158.921 88.3097 159.463 87.3233 160.075 86.6229C160.075 86.7117 159.542 87.1605 159.759 87.2591L160.583 86.4946C160.583 86.4059 160.933 86.0409 160.627 86.174C160.519 86.2638 160.426 86.3704 160.351 86.4897L160.381 86.3023C161.224 85.6315 160.573 86.5883 160.726 86.7265C161.076 86.2727 161.367 86.2776 161.638 86.0063C161.638 85.7252 160.948 86.3664 161.145 85.8584C161.235 85.7166 161.346 85.59 161.476 85.4835C161.022 85.375 160.568 85.2763 160.104 85.1974V80.4131H154.304V85.2122C152.625 85.4973 150.998 86.0292 149.475 86.7906L146.664 82.9187L141.963 86.3368L144.799 90.1939C143.618 91.4135 142.621 92.7994 141.84 94.3074L137.292 92.8277L135.492 98.3519L140.06 99.8316C139.935 100.663 139.871 101.502 139.867 102.342ZM137.031 109.741L136.622 109.78C136.908 109.548 137.071 109.677 137.006 109.736L137.031 109.741ZM138.146 108.374L137.894 108.508L138.55 107.97L138.146 108.374ZM139.729 106.974V106.88L140.183 106.52L139.729 106.974Z" fill="black"/>
    <path opacity="0.2" d="M165.802 111.046C165.703 110.982 165.516 111.233 165.491 111.046L165.565 110.933C165.457 111.1 165.289 110.819 165.195 111.13L165.309 110.992C165.205 111.199 165.659 110.957 165.476 111.243C165.402 111.372 165.733 111.194 165.802 111.046Z" fill="black"/>
    <path opacity="0.2" d="M171.28 104.127H171.325C171.326 104.081 171.338 104.035 171.359 103.994C171.31 104.014 171.265 104.039 171.28 104.127Z" fill="black"/>
    <path opacity="0.2" d="M172.838 102.914L172.962 102.85C173.026 102.663 172.814 102.742 172.695 102.85C172.745 102.855 172.75 102.924 172.838 102.914Z" fill="black"/>
    <path opacity="0.2" d="M170.789 106.114C170.991 105.971 171.154 106.183 171.248 105.907C171.09 106.031 170.937 105.784 170.789 106.114Z" fill="black"/>
    <path opacity="0.2" d="M171.016 103.816C171.124 103.816 171.386 103.688 171.455 103.816C171.593 103.589 171.736 103.357 171.4 103.411L171.252 103.609C171.331 103.525 171.336 103.564 171.381 103.574C171.316 103.757 171.139 103.757 171.016 103.816Z" fill="black"/>
    <path opacity="0.2" d="M171.474 103.946C171.482 103.926 171.486 103.905 171.486 103.884C171.486 103.863 171.482 103.842 171.474 103.822L171.375 104.005C171.434 103.995 171.459 103.99 171.474 103.946Z" fill="black"/>
    <path opacity="0.2" d="M165.512 111.505C165.216 111.451 165.334 111.688 165.117 111.762C165.255 111.742 165.512 111.796 165.512 111.505Z" fill="black"/>
    <path opacity="0.2" d="M167.98 83.0803C167.978 83.064 167.978 83.0473 167.98 83.031L167.887 82.9619C167.645 83.1543 167.32 83.3121 167.394 83.5291L167.98 83.0803Z" fill="black"/>
    <path opacity="0.2" d="M140.418 110.475H140.457L141.207 109.799L140.418 110.475Z" fill="black"/>
    <path opacity="0.2" d="M139.867 111.067L140.36 110.707C140.031 110.759 139.734 110.936 139.531 111.2L139.985 111.052L140.158 110.949L139.867 111.067Z" fill="black"/>
    <path opacity="0.2" d="M160.742 91.7228L160.821 91.7474C160.924 91.7229 161.018 91.6703 161.093 91.5954C161.168 91.5205 161.221 91.4263 161.245 91.3232C160.925 91.3479 160.925 91.5501 160.742 91.7228Z" fill="black"/>
    <path opacity="0.2" d="M161.811 90.5884C161.703 90.544 161.358 90.9484 161.387 90.7216L161.53 90.5391C161.318 90.8153 161.19 90.4897 160.953 90.9435L161.155 90.7216C160.938 91.0372 161.649 90.5391 161.293 90.9978C161.15 91.1803 161.663 90.8202 161.811 90.5884Z" fill="black"/>
    <path opacity="0.2" d="M143.016 109.276C143.078 109.22 143.13 109.153 143.169 109.079L143.016 109.276Z" fill="black"/>
    <path opacity="0.2" d="M143.2 108.772C142.801 108.863 142.424 109.031 142.09 109.266L142.114 109.498C142.258 109.315 142.09 109.266 142.47 109.039C142.504 109.182 142.825 109.276 143.2 108.772Z" fill="black"/>
    <path opacity="0.2" d="M167.769 82.8486L167.602 83.0805C167.685 83.0257 167.766 82.9664 167.843 82.9029L167.769 82.8486Z" fill="black"/>
    <path opacity="0.2" d="M143.172 109.079L143.665 108.458C143.167 108.562 143.32 108.798 143.172 109.079Z" fill="black"/>
    <path opacity="0.2" d="M164.499 86.5293C164.425 86.5737 164.366 86.5983 164.336 86.5687V86.8499C164.416 86.7473 164.515 86.6604 164.627 86.5934L164.499 86.5293Z" fill="black"/>
    <path opacity="0.2" d="M163.108 87.9336C163.108 87.7955 163.458 87.4798 163.734 87.1592C163.443 87.1543 162.994 87.8843 163.108 87.9336Z" fill="black"/>
    <path opacity="0.2" d="M140.643 110.484L140.456 110.475L140.406 110.524L140.643 110.484Z" fill="black"/>
    <defs>
        <linearGradient id="paint0_linear_2_1854" x1="223.82" y1="75.7364" x2="16.7992" y2="75.0934" gradientUnits="userSpaceOnUse">
            <stop stop-color="#6B49FC"/>
            <stop offset="0.830081" stop-color="#DE85FF"/>
            <stop offset="1" stop-color="#E26FF1"/>
        </linearGradient>
        <linearGradient id="paint1_linear_2_1854" x1="216.996" y1="122.616" x2="187.312" y2="122.395" gradientUnits="userSpaceOnUse">
            <stop stop-color="#6B49FC"/>
            <stop offset="0.830081" stop-color="#DE85FF"/>
            <stop offset="1" stop-color="#E26FF1"/>
        </linearGradient>
        <linearGradient id="paint2_linear_2_1854" x1="243.732" y1="90.3419" x2="163.51" y2="90.158" gradientUnits="userSpaceOnUse">
            <stop stop-color="#6B49FC"/>
            <stop offset="0.830081" stop-color="#DE85FF"/>
            <stop offset="1" stop-color="#E26FF1"/>
        </linearGradient>
        <linearGradient id="paint3_linear_2_1854" x1="215.158" y1="87.8142" x2="191.066" y2="87.7473" gradientUnits="userSpaceOnUse">
            <stop stop-color="#6B49FC"/>
            <stop offset="0.830081" stop-color="#DE85FF"/>
            <stop offset="1" stop-color="#E26FF1"/>
        </linearGradient>
        <linearGradient id="paint4_linear_2_1854" x1="182.062" y1="72.4572" x2="166.767" y2="72.4125" gradientUnits="userSpaceOnUse">
            <stop stop-color="#6B49FC"/>
            <stop offset="0.830081" stop-color="#DE85FF"/>
            <stop offset="1" stop-color="#E26FF1"/>
        </linearGradient>
        <linearGradient id="paint5_linear_2_1854" x1="236.552" y1="77.8505" x2="222.136" y2="77.8097" gradientUnits="userSpaceOnUse">
            <stop stop-color="#6B49FC"/>
            <stop offset="0.830081" stop-color="#DE85FF"/>
            <stop offset="1" stop-color="#E26FF1"/>
        </linearGradient>
    </defs>
</svg>
