<svg width="301" height="277" viewBox="0 0 301 277" fill="none" xmlns="http://www.w3.org/2000/svg">
    <path d="M150.582 276.937C233.237 276.937 300.242 241.101 300.242 196.896C300.242 152.69 233.237 116.854 150.582 116.854C67.927 116.854 0.921875 152.69 0.921875 196.896C0.921875 241.101 67.927 276.937 150.582 276.937Z" fill="#F5F5F5"/>
    <path d="M209.485 170.6L259.895 197.553C260.53 197.895 261.251 198.075 261.986 198.075C262.72 198.075 263.442 197.895 264.077 197.553L292.123 182.543C292.312 182.442 292.469 182.296 292.578 182.12C292.688 181.945 292.745 181.746 292.745 181.544C292.745 181.341 292.688 181.142 292.578 180.967C292.469 180.791 292.312 180.646 292.123 180.544L241.727 153.659C241.093 153.321 240.374 153.143 239.643 153.143C238.911 153.143 238.192 153.321 237.558 153.659L209.492 168.594C209.303 168.696 209.145 168.842 209.036 169.018C208.926 169.193 208.868 169.392 208.867 169.595C208.867 169.798 208.923 169.998 209.032 170.174C209.14 170.35 209.297 170.497 209.485 170.6Z" fill="#E0E0E0"/>
    <path d="M169.818 160.575L48.5657 225.575C47.5783 226.105 46.4582 226.388 45.3166 226.393C44.175 226.398 43.0517 226.127 42.0585 225.606L10.561 209.093C10.2338 208.919 9.96196 208.668 9.77294 208.366C9.58391 208.064 9.48437 207.72 9.48438 207.371C9.48437 207.021 9.58391 206.678 9.77294 206.376C9.96196 206.073 10.2338 205.822 10.561 205.648L131.585 140.903C132.57 140.378 133.684 140.099 134.82 140.093C135.956 140.086 137.074 140.352 138.066 140.865L169.791 157.334C170.102 157.494 170.361 157.728 170.543 158.011C170.724 158.295 170.821 158.618 170.824 158.947C170.826 159.277 170.735 159.601 170.558 159.887C170.381 160.173 170.126 160.41 169.818 160.575Z" fill="#E0E0E0"/>
    <path d="M189.223 225.81C207.599 225.81 222.496 217.842 222.496 208.013C222.496 198.184 207.599 190.216 189.223 190.216C170.846 190.216 155.949 198.184 155.949 208.013C155.949 217.842 170.846 225.81 189.223 225.81Z" fill="#E0E0E0"/>
    <path d="M261.194 218.249C267.601 218.249 272.795 215.47 272.795 212.042C272.795 208.613 267.601 205.834 261.194 205.834C254.787 205.834 249.594 208.613 249.594 212.042C249.594 215.47 254.787 218.249 261.194 218.249Z" fill="#E0E0E0"/>
    <path d="M261.57 114.234L261.584 196.156L290.226 180.823V98.9814L261.57 114.234Z" fill="#E6E6E6"/>
    <path d="M212.922 170.134L261.582 196.157V114.309L212.935 88.3672L212.922 170.134Z" fill="#EBEBEB"/>
    <path d="M212.922 88.2863L261.582 114.309L290.225 98.9821L241.585 73.0342L212.922 88.2863Z" fill="#F5F5F5"/>
    <path d="M218.624 118.244L255.597 138.022C255.758 138.108 255.941 138.153 256.127 138.152C256.313 138.152 256.496 138.107 256.658 138.021C256.819 137.935 256.953 137.811 257.047 137.662C257.141 137.513 257.19 137.344 257.192 137.171V119.796C257.189 119.367 257.064 118.946 256.828 118.576C256.593 118.207 256.256 117.902 255.851 117.692L218.939 97.9888C218.777 97.9029 218.593 97.8579 218.406 97.8584C218.22 97.8589 218.036 97.9048 217.875 97.9916C217.713 98.0783 217.579 98.2029 217.486 98.3527C217.393 98.5026 217.344 98.6725 217.344 98.8455V116.14C217.34 116.564 217.456 116.981 217.68 117.351C217.905 117.72 218.23 118.028 218.624 118.244Z" fill="#FAFAFA"/>
    <path d="M240.514 113.893C240.387 113.892 240.262 113.86 240.152 113.8L233.625 110.324C233.475 110.226 233.37 110.08 233.33 109.914C233.29 109.747 233.319 109.574 233.41 109.426C233.502 109.279 233.649 109.168 233.824 109.116C233.999 109.064 234.188 109.074 234.355 109.145L240.883 112.627C241.012 112.706 241.111 112.82 241.165 112.954C241.22 113.088 241.227 113.234 241.186 113.372C241.145 113.51 241.058 113.632 240.937 113.721C240.817 113.811 240.668 113.862 240.514 113.869V113.893Z" fill="#E0E0E0"/>
    <path d="M218.624 142.503L255.597 162.275C255.758 162.36 255.941 162.405 256.127 162.405C256.313 162.405 256.496 162.36 256.658 162.274C256.819 162.188 256.953 162.064 257.047 161.915C257.14 161.766 257.19 161.597 257.191 161.424V144.043C257.188 143.614 257.063 143.193 256.827 142.824C256.592 142.454 256.255 142.149 255.851 141.938L218.939 122.279C218.777 122.193 218.594 122.148 218.408 122.148C218.222 122.149 218.039 122.194 217.878 122.28C217.716 122.366 217.582 122.49 217.488 122.639C217.395 122.788 217.345 122.957 217.344 123.129V140.424C217.345 140.843 217.463 141.255 217.688 141.62C217.912 141.984 218.235 142.289 218.624 142.503Z" fill="#FAFAFA"/>
    <path d="M240.514 138.146C240.388 138.145 240.264 138.115 240.152 138.059L233.625 134.577C233.475 134.479 233.37 134.333 233.33 134.166C233.29 134 233.319 133.827 233.41 133.679C233.502 133.531 233.649 133.421 233.824 133.369C233.999 133.317 234.188 133.327 234.355 133.397L240.883 136.88C241.012 136.958 241.111 137.073 241.165 137.207C241.22 137.341 241.227 137.487 241.186 137.625C241.145 137.763 241.058 137.885 240.937 137.974C240.817 138.064 240.668 138.115 240.514 138.121V138.146Z" fill="#E0E0E0"/>
    <path d="M218.624 166.757L255.597 186.528C255.758 186.614 255.941 186.659 256.127 186.659C256.314 186.658 256.496 186.613 256.658 186.527C256.819 186.441 256.953 186.317 257.047 186.168C257.141 186.019 257.191 185.85 257.192 185.678V168.296C257.188 167.867 257.063 167.447 256.827 167.077C256.592 166.707 256.255 166.402 255.851 166.192L218.939 146.489C218.777 146.403 218.594 146.358 218.408 146.358C218.222 146.359 218.039 146.404 217.878 146.49C217.717 146.576 217.582 146.7 217.489 146.849C217.395 146.998 217.345 147.167 217.344 147.339V164.64C217.338 165.066 217.453 165.486 217.678 165.857C217.903 166.229 218.229 166.539 218.624 166.757Z" fill="#FAFAFA"/>
    <path d="M240.513 162.399C240.386 162.401 240.261 162.371 240.151 162.313L233.624 158.83C233.541 158.786 233.468 158.727 233.409 158.656C233.351 158.585 233.308 158.505 233.283 158.419C233.258 158.333 233.252 158.244 233.264 158.155C233.277 158.067 233.308 157.982 233.356 157.905C233.404 157.828 233.468 157.76 233.544 157.706C233.62 157.652 233.707 157.613 233.8 157.59C233.893 157.568 233.99 157.563 234.085 157.575C234.18 157.588 234.272 157.617 234.354 157.663L240.882 161.139C240.965 161.184 241.038 161.243 241.096 161.313C241.155 161.384 241.198 161.464 241.223 161.55C241.248 161.636 241.254 161.726 241.242 161.814C241.229 161.902 241.198 161.987 241.15 162.064C241.086 162.168 240.993 162.254 240.881 162.313C240.769 162.372 240.642 162.402 240.513 162.399Z" fill="#E0E0E0"/>
    <path d="M243.34 31.7412V53.6355L263.813 64.5796V42.6853L243.34 31.7412Z" fill="#FAFAFA"/>
    <path d="M245.559 32.9209L263.841 42.6855V62.2085L245.585 52.4501V32.9209H245.559ZM244.473 31.1455L243.367 31.7663V53.6606L263.841 64.5798L264.946 63.9591V42.0958L244.446 31.1455H244.473Z" fill="#E0E0E0"/>
    <path d="M244.446 33.5107L262.701 43.2753V62.7984L244.446 53.0337V33.5107ZM243.34 31.7354V53.6297L263.84 64.58V42.6856L243.34 31.7416V31.7354Z" fill="#EBEBEB"/>
    <path d="M246.344 48.6259L261.831 56.9069L257.254 45.8821L254.091 49.3646L250.847 45.0938L246.344 48.6259Z" fill="#E0E0E0"/>
    <path d="M251.719 41.7482C251.745 42.2024 251.887 42.6443 252.133 43.0381C252.378 43.4318 252.721 43.7662 253.133 44.014C253.91 44.4299 254.547 44.0885 254.547 43.2567C254.519 42.8028 254.377 42.3612 254.132 41.9676C253.886 41.574 253.544 41.2394 253.133 40.9909C252.349 40.575 251.719 40.9102 251.719 41.7482Z" fill="#E0E0E0"/>
    <path d="M269.945 58.2412V75.6847L286.25 84.4064V66.9629L269.945 58.2412Z" fill="#FAFAFA"/>
    <path d="M271.708 59.1919L286.25 66.9639V82.5513L271.708 74.7731V59.254V59.1919ZM270.823 57.8324L269.945 58.3042V75.7477L286.25 84.4135L287.135 83.9418V66.4983L270.823 57.8076V57.8324Z" fill="#E0E0E0"/>
    <path d="M270.823 59.6628L285.366 67.4347V82.9911L270.823 75.2129V59.6628ZM269.945 58.2412V75.6847L286.25 84.4126V66.9691L269.945 58.2785V58.2412Z" fill="#EBEBEB"/>
    <path d="M272.336 71.6939L284.667 78.2926L281.028 69.5088L278.501 72.2898L275.921 68.8818L272.336 71.6939Z" fill="#E0E0E0"/>
    <path d="M276.613 66.2182C276.635 66.58 276.748 66.932 276.943 67.2458C277.139 67.5597 277.412 67.8264 277.739 68.0246C278.362 68.3536 278.865 68.0867 278.865 67.4038C278.845 67.0418 278.732 66.6894 278.536 66.3754C278.341 66.0615 278.067 65.7948 277.739 65.5974C277.116 65.2808 276.613 65.554 276.613 66.2182Z" fill="#E0E0E0"/>
    <path d="M261.875 196.225C261.875 196.225 254.744 189.775 258.805 178.974C261.077 172.921 268.61 168.477 272.879 168.055C271.458 169.618 270.326 171.389 269.528 173.294L264.126 176.621L269.092 175.181L268.033 179.117C268.033 179.117 263.416 181.705 262.732 182.27L267.712 181.066C267.712 181.066 267.35 192.215 261.875 196.225Z" fill="url(#paint0_linear_2_1396)"/>
    <path opacity="0.4" d="M261.875 196.225C261.875 196.225 254.744 189.775 258.805 178.974C261.077 172.921 268.61 168.477 272.879 168.055C271.458 169.618 270.326 171.389 269.528 173.294L264.126 176.621L269.092 175.181L268.033 179.117C268.033 179.117 263.416 181.705 262.732 182.27L267.712 181.066C267.712 181.066 267.35 192.215 261.875 196.225Z" fill="black"/>
    <path d="M261.877 196.225C261.877 196.225 258.185 182.73 263.646 174.858C263.646 174.858 257.246 181.805 261.877 196.225Z" fill="white"/>
    <path d="M270.035 198.05L261.323 197.951H261.236L252.524 198.05C252.524 198.05 252.423 207.983 255.734 212.055C256.652 213.135 258.79 213.917 261.289 213.917C263.789 213.917 265.94 213.154 266.852 212.055C270.136 207.995 270.035 198.05 270.035 198.05Z" fill="#37474F"/>
    <path d="M270.031 198.05C270.031 200.459 266.111 202.396 261.266 202.396C256.42 202.396 252.5 200.44 252.5 198.05C252.5 195.66 256.427 193.705 261.266 193.705C266.104 193.705 270.031 195.642 270.031 198.05Z" fill="#455A64"/>
    <path d="M261.268 196.895C264.283 196.895 266.837 197.789 267.741 199.031C267.962 198.744 268.083 198.402 268.09 198.05C268.09 196.331 265.034 194.946 261.268 194.946C257.501 194.946 254.445 196.343 254.445 198.05C254.451 198.403 254.575 198.746 254.8 199.031C255.699 197.789 258.252 196.895 261.268 196.895Z" fill="#263238"/>
    <path d="M261.268 196.896C258.252 196.896 255.699 197.789 254.801 199.031C255.699 200.272 258.252 201.173 261.268 201.173C264.284 201.173 266.837 200.272 267.742 199.031C266.837 197.789 264.284 196.896 261.268 196.896Z" fill="#E0E0E0"/>
    <path d="M261.375 199.571C261.375 199.571 258.024 199.453 255.102 195.294C253.902 193.581 253.326 192.681 253.326 192.681L258.017 192.352L252.743 191.11L250.25 187.578L254.626 187.274C252.822 186.691 250.943 186.33 249.037 186.2C249.037 186.2 245.016 179.595 243.816 178.651C246.881 178.824 249.876 179.565 252.625 180.831C255.374 182.097 257.821 183.861 259.82 186.02C266.434 193.289 262.36 199.757 261.375 199.571Z" fill="url(#paint1_linear_2_1396)"/>
    <path d="M261.377 199.571C261.377 199.571 263.495 187.777 249.984 180.688C250.004 180.688 264.004 186.92 261.377 199.571Z" fill="white"/>
    <path d="M261.373 199.571C261.373 199.571 264.436 199.757 267.472 196.262C268.725 194.816 269.335 194.052 269.335 194.052L265.12 193.351L270.005 192.73L272.612 189.756L268.692 189.105C270.379 188.735 272.112 188.575 273.845 188.627C273.845 188.627 278.161 183.04 279.32 182.27C276.551 182.156 273.784 182.556 271.184 183.447C268.584 184.338 266.203 185.703 264.181 187.46C257.453 193.462 260.489 199.651 261.373 199.571Z" fill="url(#paint2_linear_2_1396)"/>
    <path opacity="0.2" d="M261.373 199.571C261.373 199.571 264.436 199.757 267.472 196.262C268.725 194.816 269.335 194.052 269.335 194.052L265.12 193.351L270.005 192.73L272.612 189.756L268.692 189.105C270.379 188.735 272.112 188.575 273.845 188.627C273.845 188.627 278.161 183.04 279.32 182.27C276.551 182.156 273.784 182.556 271.184 183.447C268.584 184.338 266.203 185.703 264.181 187.46C257.453 193.462 260.489 199.651 261.373 199.571Z" fill="black"/>
    <path d="M261.375 199.571C261.375 199.571 260.665 188.751 273.558 183.524C273.558 183.524 260.296 187.926 261.375 199.571Z" fill="white"/>
    <path d="M128.326 48.9357L125.277 47.7873L124.969 47.6694H124.935C124.389 47.4865 123.806 47.4168 123.227 47.465C122.648 47.5133 122.087 47.6784 121.585 47.9487L16.9459 103.892C14.7469 105.066 12.9206 106.756 11.6512 108.791C10.3817 110.827 9.71384 113.137 9.71484 115.488V199.874C9.71537 200.771 9.97078 201.652 10.4554 202.429C10.94 203.205 11.6367 203.85 12.4755 204.298C13.3144 204.746 14.2657 204.981 15.2339 204.98C16.2021 204.98 17.1532 204.743 17.9913 204.294L122.731 148.283C124.225 147.483 125.466 146.332 126.328 144.947C127.19 143.563 127.644 141.992 127.643 140.393V51.2015C127.645 50.5628 127.469 49.9343 127.134 49.3765L128.326 48.9357Z" fill="url(#paint3_linear_2_1396)"/>
    <path opacity="0.3" d="M128.326 48.9357L125.277 47.7873L124.969 47.6694H124.935C124.389 47.4865 123.806 47.4168 123.227 47.465C122.648 47.5133 122.087 47.6784 121.585 47.9487L16.9459 103.892C14.7469 105.066 12.9206 106.756 11.6512 108.791C10.3817 110.827 9.71384 113.137 9.71484 115.488V199.874C9.71537 200.771 9.97078 201.652 10.4554 202.429C10.94 203.205 11.6367 203.85 12.4755 204.298C13.3144 204.746 14.2657 204.981 15.2339 204.98C16.2021 204.98 17.1532 204.743 17.9913 204.294L122.731 148.283C124.225 147.483 125.466 146.332 126.328 144.947C127.19 143.563 127.644 141.992 127.643 140.393V51.2015C127.645 50.5628 127.469 49.9343 127.134 49.3765L128.326 48.9357Z" fill="black"/>
    <path d="M130.419 52.2195V141.442C130.42 143.041 129.966 144.611 129.103 145.995C128.239 147.38 126.996 148.528 125.5 149.326L20.7609 205.343C19.9219 205.79 18.9707 206.026 18.0027 206.025C17.0347 206.024 16.0838 205.788 15.2455 205.34C14.4072 204.891 13.7108 204.247 13.2262 203.471C12.7416 202.694 12.4858 201.814 12.4844 200.917V116.493C12.485 114.18 13.1338 111.906 14.3675 109.895C15.302 108.403 16.6511 107.17 18.2746 106.325L126.459 48.4639C127.508 48.4942 128.504 48.8984 129.239 49.5923C129.975 50.2862 130.392 51.2162 130.406 52.1884L130.419 52.2195Z" fill="url(#paint4_linear_2_1396)"/>
    <path opacity="0.1" d="M130.419 52.2195V141.442C130.42 143.041 129.966 144.611 129.103 145.995C128.239 147.38 126.996 148.528 125.5 149.326L20.7609 205.343C19.9219 205.79 18.9707 206.026 18.0027 206.025C17.0347 206.024 16.0838 205.788 15.2455 205.34C14.4072 204.891 13.7108 204.247 13.2262 203.471C12.7416 202.694 12.4858 201.814 12.4844 200.917V116.493C12.485 114.18 13.1338 111.906 14.3675 109.895C15.302 108.403 16.6511 107.17 18.2746 106.325L126.459 48.4639C127.508 48.4942 128.504 48.8984 129.239 49.5923C129.975 50.2862 130.392 51.2162 130.406 52.1884L130.419 52.2195Z" fill="black"/>
    <path d="M125.499 149.325L20.7597 205.343C19.949 205.782 19.0297 206.02 18.0905 206.035C17.1514 206.049 16.2241 205.838 15.3984 205.424L77.9378 118.237L130.418 141.435C130.418 143.035 129.964 144.606 129.1 145.991C128.237 147.376 126.995 148.526 125.499 149.325Z" fill="url(#paint5_linear_2_1396)"/>
    <path opacity="0.2" d="M125.499 149.325L20.7597 205.343C19.949 205.782 19.0297 206.02 18.0905 206.035C17.1514 206.049 16.2241 205.838 15.3984 205.424L77.9378 118.237L130.418 141.435C130.418 143.035 129.964 144.606 129.1 145.991C128.237 147.376 126.995 148.526 125.499 149.325Z" fill="black"/>
    <path d="M128.656 49.1281L85.947 131.882C85.1058 133.508 83.9113 134.955 82.4382 136.134C80.9651 137.312 79.2453 138.197 77.3863 138.731C75.5274 139.265 73.5693 139.438 71.6348 139.239C69.7002 139.04 67.8309 138.474 66.1438 137.574L14.3672 109.913C15.251 108.46 16.5402 107.253 18.1 106.418L126.458 48.4639C127.245 48.4812 128.01 48.7121 128.656 49.1281Z" fill="url(#paint6_linear_2_1396)"/>
    <path d="M25.1172 83.3452L55.7971 66.9323V46.5898L33.5009 57.9746C30.9614 59.2694 28.8438 61.1719 27.3691 63.4835C25.8944 65.7952 25.1167 68.4311 25.1172 71.1162V83.3452Z" fill="url(#paint7_linear_2_1396)"/>
    <path opacity="0.5" d="M25.1172 83.3452L55.7971 66.9323V46.5898L33.5009 57.9746C30.9614 59.2694 28.8438 61.1719 27.3691 63.4835C25.8944 65.7952 25.1167 68.4311 25.1172 71.1162V83.3452Z" fill="white"/>
    <path d="M151.925 4.56429L149.117 3.09308C145.551 1.18298 141.502 0.180888 137.383 0.18852C133.263 0.196152 129.219 1.21324 125.661 3.13654L37.9172 50.4884C34.0224 52.5894 30.7907 55.6 28.5446 59.2197C26.2985 62.8393 25.1167 66.9414 25.1172 71.1163C25.1169 68.9716 25.728 66.8648 26.8888 65.009C28.0496 63.1532 29.7188 61.6143 31.7277 60.5478C33.7366 59.4813 36.0139 58.9251 38.3293 58.9355C40.6447 58.9459 42.9161 59.5224 44.9137 60.6068L48.5862 62.5995C52.4099 64.6726 55.5814 67.6363 57.7857 71.1962C59.9901 74.7561 61.1505 78.7883 61.1517 82.8922V203.656L55.1672 217.728L66.4058 211.39L156.75 162.834C159.959 161.111 162.622 158.636 164.472 155.658C166.323 152.681 167.295 149.304 167.292 145.869V29.2645C167.291 24.2612 165.871 19.346 163.174 15.011C160.477 10.676 156.598 7.07353 151.925 4.56429Z" fill="url(#paint8_linear_2_1396)"/>
    <path opacity="0.7" d="M151.925 4.56429L149.117 3.09308C145.551 1.18298 141.502 0.180888 137.383 0.18852C133.263 0.196152 129.219 1.21324 125.661 3.13654L37.9172 50.4884C34.0224 52.5894 30.7907 55.6 28.5446 59.2197C26.2985 62.8393 25.1167 66.9414 25.1172 71.1163C25.1169 68.9716 25.728 66.8648 26.8888 65.009C28.0496 63.1532 29.7188 61.6143 31.7277 60.5478C33.7366 59.4813 36.0139 58.9251 38.3293 58.9355C40.6447 58.9459 42.9161 59.5224 44.9137 60.6068L48.5862 62.5995C52.4099 64.6726 55.5814 67.6363 57.7857 71.1962C59.9901 74.7561 61.1505 78.7883 61.1517 82.8922V203.656L55.1672 217.728L66.4058 211.39L156.75 162.834C159.959 161.111 162.622 158.636 164.472 155.658C166.323 152.681 167.295 149.304 167.292 145.869V29.2645C167.291 24.2612 165.871 19.346 163.174 15.011C160.477 10.676 156.598 7.07353 151.925 4.56429Z" fill="white"/>
    <path d="M28.7578 206.754C28.7578 206.754 35.0506 215.277 45.1633 218.101C56.04 221.137 61.1534 214.457 61.1534 205.599V189.577L28.7578 206.754Z" fill="url(#paint9_linear_2_1396)"/>
    <path opacity="0.5" d="M28.7578 206.754C28.7578 206.754 35.0506 215.277 45.1633 218.101C56.04 221.137 61.1534 214.457 61.1534 205.599V189.577L28.7578 206.754Z" fill="white"/>
    <path d="M80.7023 121.038C80.4849 121.035 80.2746 120.967 80.1032 120.843C79.9318 120.719 79.8087 120.547 79.7526 120.352C79.6965 120.158 79.7104 119.952 79.7923 119.765C79.8742 119.579 80.0196 119.422 80.2064 119.319L147.222 83.4636C147.451 83.3418 147.722 83.309 147.977 83.3725C148.231 83.4359 148.448 83.5904 148.579 83.802C148.711 84.0135 148.746 84.2648 148.678 84.5005C148.609 84.7363 148.443 84.9372 148.214 85.059L81.1982 120.914C81.0471 120.994 80.8763 121.037 80.7023 121.038Z" fill="white"/>
    <path d="M80.7008 134.788C80.4828 134.788 80.2711 134.721 80.0983 134.598C79.9254 134.475 79.8012 134.303 79.7448 134.108C79.6883 133.913 79.7028 133.706 79.786 133.519C79.8691 133.333 80.0164 133.176 80.2049 133.075L147.221 97.2136C147.449 97.0918 147.721 97.059 147.975 97.1225C148.23 97.1859 148.446 97.3404 148.578 97.5519C148.709 97.7635 148.745 98.0148 148.676 98.2505C148.608 98.4863 148.441 98.6872 148.213 98.809L81.1967 134.695C81.0425 134.765 80.8719 134.797 80.7008 134.788Z" fill="white"/>
    <path d="M80.7008 148.532C80.4828 148.531 80.2711 148.464 80.0983 148.341C79.9254 148.218 79.8012 148.046 79.7448 147.851C79.6883 147.656 79.7028 147.449 79.786 147.262C79.8691 147.076 80.0164 146.92 80.2049 146.818L147.221 110.963C147.447 110.854 147.711 110.83 147.956 110.896C148.201 110.962 148.409 111.113 148.537 111.318C148.665 111.523 148.702 111.766 148.642 111.995C148.582 112.225 148.428 112.425 148.213 112.552L81.1967 148.407C81.0456 148.487 80.8748 148.53 80.7008 148.532Z" fill="white"/>
    <path d="M80.7008 162.276C80.4828 162.275 80.2711 162.208 80.0983 162.085C79.9254 161.962 79.8012 161.79 79.7448 161.595C79.6883 161.4 79.7028 161.193 79.786 161.006C79.8691 160.82 80.0164 160.664 80.2049 160.562L147.221 124.707C147.447 124.598 147.711 124.574 147.956 124.64C148.201 124.706 148.409 124.858 148.537 125.062C148.665 125.267 148.702 125.51 148.642 125.74C148.582 125.969 148.428 126.169 148.213 126.296L81.1967 162.152C81.0468 162.234 80.8753 162.277 80.7008 162.276Z" fill="white"/>
    <path d="M80.7008 176.019C80.4828 176.018 80.2711 175.952 80.0983 175.828C79.9254 175.705 79.8012 175.533 79.7448 175.338C79.6883 175.143 79.7028 174.936 79.786 174.75C79.8691 174.563 80.0164 174.407 80.2049 174.306L147.221 138.45C147.447 138.341 147.711 138.317 147.956 138.383C148.201 138.45 148.409 138.601 148.537 138.806C148.665 139.01 148.702 139.253 148.642 139.483C148.582 139.713 148.428 139.912 148.213 140.039L81.1967 175.895C81.0468 175.977 80.8753 176.02 80.7008 176.019Z" fill="white"/>
    <path d="M124.711 166.224C124.537 166.225 124.366 166.183 124.215 166.102C124.064 166.021 123.939 165.905 123.854 165.764C123.726 165.555 123.693 165.307 123.761 165.075C123.829 164.843 123.992 164.645 124.215 164.523L147.235 152.194C147.462 152.085 147.725 152.061 147.97 152.128C148.216 152.194 148.424 152.345 148.552 152.55C148.679 152.754 148.717 152.997 148.657 153.227C148.596 153.457 148.442 153.656 148.227 153.784L125.207 166.106C125.056 166.184 124.885 166.224 124.711 166.224Z" fill="white"/>
    <path d="M127.369 69.291L108.055 79.6206V70.8057C108.055 64.6788 112.076 57.5586 117.042 54.9017L118.382 54.1879C123.341 51.531 127.369 54.3493 127.369 60.4762V69.291Z" fill="url(#paint10_linear_2_1396)"/>
    <path d="M131.866 72.2156L103.559 87.3561L108.055 77.7094L127.369 67.3799L131.866 72.2156Z" fill="url(#paint11_linear_2_1396)"/>
    <path d="M117.749 57.4536C116.911 57.9006 116.234 57.5405 116.234 56.6466V53.2138C116.264 52.7275 116.416 52.2545 116.679 51.8328C116.942 51.4112 117.309 51.0528 117.749 50.7866C118.58 50.3397 119.257 50.6997 119.257 51.5936V55.0327C119.227 55.5173 119.076 55.9888 118.814 56.4093C118.552 56.8297 118.187 57.1874 117.749 57.4536Z" fill="url(#paint12_linear_2_1396)"/>
    <path d="M114.496 82.7996C114.577 84.5812 115.984 85.2826 117.713 84.3577C118.619 83.809 119.378 83.0769 119.935 82.2166C120.491 81.3564 120.829 80.3904 120.923 79.3916L114.496 82.7996Z" fill="url(#paint13_linear_2_1396)"/>
    <path d="M212.922 55.957C220.705 55.957 227.015 50.1122 227.015 42.9023C227.015 35.6924 220.705 29.8477 212.922 29.8477C205.138 29.8477 198.828 35.6924 198.828 42.9023C198.828 50.1122 205.138 55.957 212.922 55.957Z" fill="url(#paint14_linear_2_1396)"/>
    <path d="M210.41 53.0518C210.41 53.0518 211.67 57.1985 206.57 61.0472C206.57 61.0472 214.425 60.3147 214.853 53.3994L210.41 53.0518Z" fill="url(#paint15_linear_2_1396)"/>
    <path d="M214.31 44.1064H211.281L210.523 37.3711H215.067L214.31 44.1064ZM212.795 48.4517C212.516 48.4694 212.237 48.4347 211.972 48.3498C211.708 48.2649 211.466 48.1316 211.258 47.9577C211.051 47.7838 210.884 47.573 210.767 47.3379C210.65 47.1028 210.585 46.8482 210.577 46.5894C210.637 46.0834 210.897 45.6158 211.306 45.2761C211.715 44.9364 212.246 44.7485 212.795 44.7485C213.345 44.7485 213.875 44.9364 214.284 45.2761C214.694 45.6158 214.953 46.0834 215.014 46.5894C215.003 46.8472 214.937 47.1004 214.82 47.334C214.702 47.5677 214.534 47.777 214.327 47.9496C214.12 48.1222 213.878 48.2544 213.615 48.3386C213.352 48.4227 213.073 48.457 212.795 48.4393V48.4517Z" fill="white"/>
    <path d="M185.092 93.3644C183.642 93.2604 182.185 93.4892 180.853 94.0305C179.52 94.5719 178.352 95.4092 177.452 96.4683C174.47 100.106 168.157 108.71 168.157 108.71C168.157 108.71 165.517 105.997 163.788 104.091C162.059 102.185 160.437 100.572 160.437 100.572C160.21 99.5457 160.04 98.5097 159.928 97.4677C159.78 95.9903 159.566 94.9846 158.4 93.9728C157.234 92.9609 156.342 92.0112 156.249 91.2414C156.155 90.4717 155.578 89.7019 154.841 90.4903C154.104 91.2787 154.171 93.6997 155.712 95.3136C155.712 95.3136 152.958 94.128 151.691 92.7375C150.425 91.347 148.79 88.926 148.066 89.5964C147.342 90.2668 145.955 97.4863 148.066 99.0941C150.177 100.702 155.397 103.439 155.397 103.439C155.397 103.439 162.22 118.909 167.018 118.909C171.816 118.909 179.751 107.474 179.751 107.474L185.092 93.3644Z" fill="#FFA8A7"/>
    <path d="M176.578 174.125L178.059 195.113C178.059 195.113 179.399 197.336 181.98 197.336L184.325 194.965C184.293 192.157 184.547 189.354 185.082 186.59C185.954 182.351 187.642 176.149 188.132 172.567L176.578 174.125Z" fill="#FFA8A7"/>
    <path d="M177.911 126.711C177.911 126.711 176.731 133.77 176.148 140.635C175.686 146.11 175.384 153.702 175.277 156.552C175.251 157.297 175.269 158.043 175.331 158.786L176.577 174.125C176.577 174.125 183.902 177.105 188.144 172.567C188.144 172.567 188.66 168.172 187.923 165.118C187.491 163.19 187.544 161.196 188.077 159.289L192.668 142.206V126.562L177.911 126.711Z" fill="#37474F"/>
    <path d="M181.469 132.565C181.779 133.82 182.454 134.972 183.42 135.896C184.386 136.821 185.607 137.483 186.951 137.811L189.692 153.268L193.713 139.723V132.565H181.469Z" fill="#263238"/>
    <path d="M195.711 177.254L200.342 200.912H205.348C205.348 200.912 207.244 180.979 207.144 175.541L195.711 177.254Z" fill="#FFA8A7"/>
    <path d="M180.243 126.556C180.243 126.556 179.265 135.688 188.084 136.488L192.661 163.684L195.711 177.248C195.711 177.248 202.854 181.562 207.143 175.534C207.143 175.534 207.579 168.706 205.803 164.001C205.34 162.778 205.148 161.482 205.24 160.189C205.736 153.522 207.103 133.962 206.433 129.629L202.023 124.284L180.243 126.556Z" fill="#37474F"/>
    <path d="M196.305 94.345H200.782L203.778 108.194L201.807 114.123C201.391 115.351 201.487 116.68 202.076 117.847C203.416 120.554 205.902 125.843 206.445 129.642C205.192 129.727 203.937 129.495 202.814 128.971C201.692 128.448 200.744 127.652 200.072 126.668C200.072 126.668 196.312 131.256 187.164 131.256C182.728 131.256 179.123 128.232 177.91 126.718L179.551 119.852C179.687 119.295 179.737 118.722 179.699 118.151C179.612 116.73 179.444 113.806 179.484 111.584C179.484 111.584 175.236 110.019 176.328 105.177C177.42 100.335 185.094 93.3828 185.094 93.3828L188.384 93.5008L196.305 94.345Z" fill="url(#paint16_linear_2_1396)"/>
    <path d="M185.504 67.6519C185.504 67.6519 180.076 65.9076 178.749 71.0537C177.422 76.1998 181.51 81.197 175.398 82.9103C175.398 82.9103 179.004 85.6913 182.18 80.4955L184.861 91.0485C184.861 91.0485 184.861 91.6258 183.909 92.0665C183.909 92.0665 199.323 95.2448 202.292 88.1185C202.701 88.5287 202.98 89.0355 203.098 89.5831C203.217 90.1307 203.169 90.6979 202.962 91.2223C202.962 91.2223 207.512 89.5152 206.232 84.0587C206.232 84.0587 209.831 83.9656 210.689 81.2528C210.689 81.2528 204.932 81.5073 204.966 75.6225C205.006 68.8251 201.146 69.8122 201.146 69.8122C201.146 69.8122 196.421 63.3066 185.504 67.6519Z" fill="#455A64"/>
    <path d="M188.379 88.9444V93.4822C188.379 93.4822 183.306 98.709 188.252 99.1249C193.197 99.5408 196.293 94.3451 196.293 94.3451V84.748L188.379 88.9444Z" fill="#FFA8A7"/>
    <path d="M196.216 83.233V83.4937C194.453 89.9497 189.863 91.3526 188.382 91.6816L188.328 81.6935L195.995 81.6562L196.216 83.233Z" fill="#F28F8F"/>
    <path d="M188.886 68.8933C185.958 69.1168 179.873 71.097 179.786 78.242C179.699 85.387 180.871 90.8373 184.872 91.0608C188.873 91.2842 197.806 87.9569 198.222 78.6455C198.637 69.334 191.735 68.645 188.886 68.8933Z" fill="#FFA8A7"/>
    <path d="M185.179 81.0791L185.253 85.2755L182.586 84.5616L185.179 81.0791Z" fill="#F28F8F"/>
    <path d="M189.162 80.9671C189.166 81.137 189.115 81.3042 189.016 81.4474C188.918 81.5905 188.775 81.7032 188.607 81.7711C188.438 81.839 188.252 81.859 188.072 81.8286C187.891 81.7981 187.725 81.7187 187.593 81.6003C187.461 81.4819 187.371 81.3299 187.333 81.1636C187.295 80.9974 187.311 80.8244 187.379 80.6667C187.447 80.509 187.565 80.3736 187.716 80.2779C187.868 80.1822 188.047 80.1304 188.23 80.1291C188.351 80.1266 188.471 80.1464 188.584 80.1874C188.696 80.2283 188.799 80.2895 188.886 80.3675C188.972 80.4455 189.041 80.5387 189.089 80.6416C189.136 80.7446 189.161 80.8552 189.162 80.9671Z" fill="#263238"/>
    <path d="M183.084 80.4524C183.087 80.5646 183.065 80.6762 183.021 80.7807C182.977 80.8853 182.911 80.9807 182.827 81.0615C182.743 81.1423 182.642 81.2068 182.531 81.2515C182.42 81.2961 182.3 81.3199 182.179 81.3215C181.996 81.3252 181.816 81.2784 181.661 81.1871C181.507 81.0957 181.385 80.964 181.312 80.8086C181.239 80.6531 181.217 80.481 181.249 80.314C181.281 80.1469 181.366 79.9926 181.493 79.8704C181.621 79.7483 181.784 79.6639 181.963 79.6279C182.142 79.5919 182.329 79.606 182.499 79.6683C182.669 79.7307 182.816 79.8385 182.92 79.9781C183.024 80.1177 183.081 80.2828 183.084 80.4524Z" fill="#263238"/>
    <path d="M187.674 86.6351C186.669 86.8725 185.68 87.1626 184.712 87.5042C184.712 87.5042 184.437 86.0454 185.744 85.7102C186.131 85.6343 186.535 85.6849 186.887 85.8535C187.239 86.0221 187.517 86.2983 187.674 86.6351Z" fill="#F28F8F"/>
    <path d="M182.746 77.292L180.957 78.3038C180.957 78.3038 181.627 78.9618 182.338 78.5521C182.535 78.4045 182.679 78.2053 182.752 77.9805C182.825 77.7557 182.823 77.5158 182.746 77.292Z" fill="#263238"/>
    <path d="M193.589 80.9422C193.589 80.9422 193.522 83.5867 195.392 83.5867H199.057V77.857C199.057 71.4259 193.79 64.7093 182.585 70.023C182.585 70.023 181.928 78.9682 193.589 80.9422Z" fill="#455A64"/>
    <path d="M181.241 83.4446C179.499 83.4446 178.078 82.3272 178.078 80.9616C178.078 79.5959 179.499 78.4785 181.241 78.4785C182.984 78.4785 184.404 79.5959 184.404 80.9616C184.404 82.3272 182.984 83.4446 181.241 83.4446ZM181.241 78.9565C179.8 78.9565 178.628 79.8504 178.628 80.9429C178.628 82.0355 179.8 82.9356 181.241 82.9356C182.682 82.9356 183.855 82.0417 183.855 80.9429C183.855 79.8442 182.682 78.9565 181.241 78.9565Z" fill="url(#paint17_linear_2_1396)"/>
    <path d="M189.022 83.4633C187.072 83.4633 185.477 82.3335 185.477 80.943C185.477 79.5525 187.072 78.46 189.022 78.46C190.972 78.46 192.567 79.5898 192.567 80.943C192.567 82.2963 190.979 83.4633 189.022 83.4633ZM189.022 78.969C187.393 78.969 186.06 79.8567 186.06 80.943C186.06 82.0294 187.4 82.9233 189.022 82.9233C190.643 82.9233 191.984 82.0356 191.984 80.943C191.984 79.8505 190.657 78.969 189.022 78.969Z" fill="url(#paint18_linear_2_1396)"/>
    <path d="M185.767 80.6758H184.125V81.2159H185.767V80.6758Z" fill="url(#paint19_linear_2_1396)"/>
    <path d="M196.509 80.6758H192.273V81.2159H196.509V80.6758Z" fill="url(#paint20_linear_2_1396)"/>
    <path d="M195.377 83.2398C195.355 82.5846 195.492 81.9331 195.78 81.3341C195.92 80.9611 196.174 80.6343 196.513 80.3938C196.851 80.1533 197.258 80.0098 197.683 79.9808C199.868 79.9498 200.136 81.899 200.102 82.588C200.002 84.4069 198.393 86.3561 195.411 86.3995L195.377 83.2398Z" fill="#FFA8A7"/>
    <path d="M200.78 94.3449C200.78 94.3449 195.673 105.655 203.775 108.194L205.551 104.681C205.551 104.681 220.375 92.104 224.001 89.3478C227.626 86.5916 222.975 82.5194 218.479 78.7017C213.982 74.884 209.472 71.1904 209.472 71.1904L207.22 67.4969C206.972 67.0936 206.635 66.7434 206.231 66.4695C205.827 66.1956 205.364 66.0041 204.874 65.9078C202.515 65.4546 198.072 64.6662 195.673 64.7966C192.322 64.9642 197.382 68.8315 198.233 68.8315C199 68.8527 199.748 69.0556 200.406 69.4207C201.064 69.7859 201.61 70.3011 201.993 70.9173C203.011 72.5996 203.192 75.6289 206.442 75.4923L213.975 85.915L200.78 94.3449Z" fill="#FFA8A7"/>
    <path d="M213.977 85.915L216.59 89.0127L212.516 86.8524L213.977 85.915Z" fill="#F28F8F"/>
    <path d="M168.156 108.716L170.482 111.205L169.135 107.394L168.156 108.716Z" fill="#F28F8F"/>
    <path opacity="0.2" d="M188.242 111.808C188.242 111.808 194.944 112.31 197.021 106.413C197.021 106.413 197.102 113.931 188.242 111.808Z" fill="black"/>
    <path d="M177.419 196.019C177.419 196.019 176.487 193.313 177.928 193.17C179.369 193.027 181.915 193.735 182.17 194.442C182.326 194.91 182.389 195.4 182.358 195.889C183.06 195.668 183.726 195.357 184.335 194.964V193.964C184.335 193.964 185.836 194.101 185.95 195.144C186.064 196.187 186.084 197.459 186.131 198.645C186.218 201.041 186.6 202.643 183.658 203.35C181.56 203.839 179.666 204.893 178.216 206.38C177.21 207.363 175.958 208.102 174.57 208.529C173.183 208.957 171.703 209.061 170.261 208.832C165.832 208.261 166.086 204.797 167.648 203.686C169.148 202.662 170.753 201.777 172.439 201.041L177.419 196.019Z" fill="url(#paint21_linear_2_1396)"/>
    <path d="M175.84 203.674C175.774 203.675 175.708 203.659 175.651 203.627C175.594 203.596 175.548 203.549 175.519 203.494C174.808 202.434 173.677 201.674 172.369 201.377C172.321 201.368 172.276 201.349 172.236 201.323C172.196 201.298 172.162 201.265 172.136 201.227C172.11 201.189 172.092 201.146 172.084 201.101C172.075 201.057 172.077 201.011 172.087 200.967C172.098 200.924 172.117 200.883 172.145 200.847C172.172 200.81 172.207 200.779 172.248 200.756C172.288 200.732 172.333 200.716 172.381 200.709C172.428 200.701 172.476 200.703 172.523 200.713C173.277 200.882 173.988 201.188 174.613 201.614C175.238 202.041 175.764 202.579 176.162 203.196C176.192 203.247 176.208 203.305 176.207 203.364C176.205 203.422 176.188 203.48 176.155 203.53C176.123 203.58 176.076 203.622 176.021 203.65C175.966 203.679 175.904 203.693 175.84 203.693V203.674Z" fill="#FAFAFA"/>
    <path d="M177.534 201.998C177.468 201.999 177.402 201.983 177.345 201.951C177.288 201.92 177.242 201.873 177.212 201.818C176.502 200.758 175.371 199.998 174.063 199.701C173.968 199.682 173.885 199.628 173.832 199.553C173.78 199.477 173.761 199.386 173.781 199.298C173.791 199.254 173.81 199.212 173.837 199.175C173.864 199.138 173.899 199.106 173.94 199.082C173.98 199.058 174.026 199.041 174.073 199.033C174.121 199.026 174.17 199.027 174.217 199.037C174.972 199.205 175.683 199.511 176.308 199.937C176.933 200.364 177.459 200.902 177.856 201.52C177.901 201.599 177.911 201.692 177.884 201.778C177.856 201.863 177.793 201.936 177.708 201.979C177.652 201.997 177.593 202.003 177.534 201.998Z" fill="#FAFAFA"/>
    <path d="M179.231 200.322C179.165 200.322 179.1 200.305 179.043 200.274C178.986 200.242 178.94 200.196 178.909 200.142C178.195 199.085 177.066 198.327 175.759 198.025C175.666 198.004 175.585 197.951 175.533 197.875C175.482 197.8 175.465 197.709 175.485 197.622C175.493 197.578 175.512 197.536 175.538 197.499C175.565 197.462 175.599 197.431 175.639 197.406C175.679 197.382 175.724 197.366 175.771 197.358C175.819 197.35 175.867 197.351 175.914 197.361C176.669 197.529 177.381 197.836 178.007 198.262C178.633 198.688 179.161 199.226 179.559 199.844C179.604 199.924 179.613 200.017 179.584 200.103C179.556 200.189 179.491 200.261 179.405 200.303C179.349 200.322 179.29 200.328 179.231 200.322Z" fill="#FAFAFA"/>
    <path d="M200.344 200.911C200.289 200.646 200.301 200.373 200.38 200.113C200.458 199.853 200.6 199.614 200.794 199.413C200.989 199.212 201.231 199.056 201.502 198.956C201.772 198.856 202.064 198.816 202.354 198.838C204.7 198.838 206.375 198.9 206.168 200.514V201.669C206.168 201.669 206.168 207.423 206.637 209.285C207.106 211.148 208.259 217.045 203.474 217.908C198.689 218.771 196.946 214.99 197.817 211.408C198.358 209.39 198.685 207.327 198.796 205.25C198.903 203.941 198.36 199.148 199.915 198.838L200.344 200.911Z" fill="url(#paint22_linear_2_1396)"/>
    <path d="M204.726 208.038C204.664 208.037 204.604 208.02 204.552 207.989C203.337 207.449 201.942 207.371 200.665 207.771C200.62 207.787 200.572 207.795 200.524 207.793C200.476 207.792 200.429 207.781 200.386 207.763C200.342 207.744 200.303 207.718 200.27 207.685C200.238 207.653 200.212 207.614 200.196 207.573C200.179 207.531 200.171 207.486 200.172 207.441C200.174 207.396 200.185 207.352 200.204 207.311C200.224 207.27 200.253 207.233 200.288 207.202C200.323 207.172 200.365 207.148 200.41 207.132C201.143 206.899 201.918 206.802 202.691 206.848C203.464 206.894 204.219 207.081 204.914 207.399C204.998 207.444 205.06 207.519 205.085 207.606C205.11 207.693 205.097 207.786 205.048 207.864C205.016 207.918 204.97 207.962 204.913 207.993C204.856 208.023 204.792 208.039 204.726 208.038Z" fill="#FAFAFA"/>
    <path d="M204.98 205.462C204.917 205.459 204.855 205.444 204.799 205.418C203.587 204.875 202.193 204.795 200.918 205.195C200.873 205.218 200.823 205.232 200.771 205.235C200.72 205.239 200.668 205.232 200.619 205.215C200.571 205.199 200.527 205.173 200.49 205.139C200.453 205.105 200.425 205.065 200.406 205.02C200.388 204.975 200.38 204.927 200.384 204.88C200.387 204.832 200.401 204.785 200.426 204.743C200.45 204.701 200.484 204.664 200.525 204.635C200.566 204.606 200.613 204.585 200.664 204.574C201.395 204.338 202.169 204.24 202.941 204.285C203.714 204.331 204.468 204.52 205.161 204.841C205.203 204.863 205.24 204.891 205.27 204.926C205.3 204.961 205.322 205.001 205.335 205.044C205.348 205.086 205.352 205.131 205.346 205.175C205.34 205.219 205.325 205.262 205.301 205.301C205.268 205.351 205.22 205.393 205.164 205.421C205.107 205.449 205.044 205.463 204.98 205.462Z" fill="#FAFAFA"/>
    <path d="M205.241 202.922C205.178 202.92 205.116 202.905 205.06 202.879C203.844 202.34 202.45 202.26 201.173 202.656C201.127 202.679 201.076 202.694 201.024 202.698C200.972 202.702 200.919 202.695 200.87 202.678C200.821 202.662 200.776 202.635 200.739 202.601C200.702 202.567 200.673 202.525 200.655 202.48C200.637 202.434 200.63 202.386 200.634 202.337C200.638 202.289 200.653 202.242 200.679 202.2C200.705 202.157 200.74 202.121 200.782 202.092C200.825 202.064 200.873 202.044 200.925 202.035C201.655 201.798 202.43 201.699 203.202 201.745C203.975 201.791 204.729 201.98 205.421 202.302C205.464 202.323 205.501 202.352 205.53 202.387C205.56 202.421 205.583 202.461 205.596 202.504C205.609 202.547 205.612 202.592 205.607 202.636C205.601 202.68 205.586 202.722 205.562 202.761C205.528 202.812 205.481 202.853 205.425 202.881C205.368 202.91 205.305 202.924 205.241 202.922Z" fill="#FAFAFA"/>
    <path d="M170.764 201.837C169.678 202.386 168.636 203.009 167.648 203.699C166.086 204.81 165.832 208.274 170.261 208.845C172.126 209.13 174.041 208.867 175.737 208.094C175.529 206.752 174.966 205.479 174.098 204.387C173.231 203.296 172.085 202.42 170.764 201.837Z" fill="white"/>
    <path d="M183.659 202.824C181.561 203.312 179.667 204.366 178.217 205.853C177.211 206.837 175.959 207.575 174.571 208.003C173.184 208.431 171.703 208.534 170.262 208.305C167.782 207.989 166.771 206.76 166.637 205.543C166.509 206.909 167.421 208.467 170.262 208.833C171.703 209.062 173.184 208.958 174.571 208.53C175.959 208.103 177.211 207.364 178.217 206.381C179.667 204.894 181.561 203.84 183.659 203.352C185.977 202.799 186.232 201.682 186.192 200.062C186.145 201.396 185.716 202.358 183.659 202.824Z" fill="#37474F"/>
    <path d="M207.069 211.551C205.859 210.409 204.213 209.754 202.487 209.727C200.76 209.701 199.091 210.304 197.841 211.408C196.97 214.99 198.712 218.77 203.497 217.908C206.968 217.256 207.324 214.015 207.069 211.551Z" fill="#F5F5F5"/>
    <path d="M203.522 217.206C199.675 217.902 197.799 215.592 197.658 212.799C197.497 215.903 199.354 218.659 203.522 217.908C206.611 217.349 207.228 214.705 207.154 212.396C207.054 214.512 206.27 216.704 203.522 217.206Z" fill="#455A64"/>
    <path d="M152.143 197.198C141.078 186.874 122.919 186.874 111.854 197.198C100.788 207.522 100.788 224.463 111.854 234.787C122.919 245.111 140.794 245.111 151.859 234.787C162.925 224.463 163.208 207.522 152.143 197.198ZM139.943 227.11L131.998 219.698L124.054 227.11L120.082 223.404L128.026 215.992L120.082 208.581L124.054 204.875L131.998 212.286L139.943 204.875L143.915 208.581L135.97 215.992L143.915 223.404L139.943 227.11Z" fill="#D866C6"/>
    <defs>
        <linearGradient id="paint0_linear_2_1396" x1="274.991" y1="178.466" x2="256.544" y2="178.447" gradientUnits="userSpaceOnUse">
            <stop stop-color="#6B49FC"/>
            <stop offset="0.830081" stop-color="#DE85FF"/>
            <stop offset="1" stop-color="#E26FF1"/>
        </linearGradient>
        <linearGradient id="paint1_linear_2_1396" x1="266.235" y1="186.385" x2="242.516" y2="186.343" gradientUnits="userSpaceOnUse">
            <stop stop-color="#6B49FC"/>
            <stop offset="0.830081" stop-color="#DE85FF"/>
            <stop offset="1" stop-color="#E26FF1"/>
        </linearGradient>
        <linearGradient id="paint2_linear_2_1396" x1="281.994" y1="188.653" x2="258.642" y2="188.604" gradientUnits="userSpaceOnUse">
            <stop stop-color="#6B49FC"/>
            <stop offset="0.830081" stop-color="#DE85FF"/>
            <stop offset="1" stop-color="#E26FF1"/>
        </linearGradient>
        <linearGradient id="paint3_linear_2_1396" x1="144.677" y1="105.672" x2="1.88862" y2="105.47" gradientUnits="userSpaceOnUse">
            <stop stop-color="#6B49FC"/>
            <stop offset="0.830081" stop-color="#DE85FF"/>
            <stop offset="1" stop-color="#E26FF1"/>
        </linearGradient>
        <linearGradient id="paint4_linear_2_1396" x1="146.676" y1="106.697" x2="4.70281" y2="106.497" gradientUnits="userSpaceOnUse">
            <stop stop-color="#6B49FC"/>
            <stop offset="0.830081" stop-color="#DE85FF"/>
            <stop offset="1" stop-color="#E26FF1"/>
        </linearGradient>
        <linearGradient id="paint5_linear_2_1396" x1="146.273" y1="150.687" x2="7.80979" y2="150.345" gradientUnits="userSpaceOnUse">
            <stop stop-color="#6B49FC"/>
            <stop offset="0.830081" stop-color="#DE85FF"/>
            <stop offset="1" stop-color="#E26FF1"/>
        </linearGradient>
        <linearGradient id="paint6_linear_2_1396" x1="144.411" y1="82.0435" x2="6.82667" y2="81.7175" gradientUnits="userSpaceOnUse">
            <stop stop-color="#6B49FC"/>
            <stop offset="0.830081" stop-color="#DE85FF"/>
            <stop offset="1" stop-color="#E26FF1"/>
        </linearGradient>
        <linearGradient id="paint7_linear_2_1396" x1="60.0263" y1="60.1744" x2="23.0929" y2="60.1163" gradientUnits="userSpaceOnUse">
            <stop stop-color="#6B49FC"/>
            <stop offset="0.830081" stop-color="#DE85FF"/>
            <stop offset="1" stop-color="#E26FF1"/>
        </linearGradient>
        <linearGradient id="paint8_linear_2_1396" x1="186.89" y1="80.5899" x2="15.7362" y2="80.3791" gradientUnits="userSpaceOnUse">
            <stop stop-color="#6B49FC"/>
            <stop offset="0.830081" stop-color="#DE85FF"/>
            <stop offset="1" stop-color="#E26FF1"/>
        </linearGradient>
        <linearGradient id="paint9_linear_2_1396" x1="65.619" y1="200.394" x2="26.6204" y2="200.313" gradientUnits="userSpaceOnUse">
            <stop stop-color="#6B49FC"/>
            <stop offset="0.830081" stop-color="#DE85FF"/>
            <stop offset="1" stop-color="#E26FF1"/>
        </linearGradient>
        <linearGradient id="paint10_linear_2_1396" x1="130.031" y1="62.957" x2="106.78" y2="62.925" gradientUnits="userSpaceOnUse">
            <stop stop-color="#6B49FC"/>
            <stop offset="0.830081" stop-color="#DE85FF"/>
            <stop offset="1" stop-color="#E26FF1"/>
        </linearGradient>
        <linearGradient id="paint11_linear_2_1396" x1="135.768" y1="74.763" x2="101.691" y2="74.672" gradientUnits="userSpaceOnUse">
            <stop stop-color="#6B49FC"/>
            <stop offset="0.830081" stop-color="#DE85FF"/>
            <stop offset="1" stop-color="#E26FF1"/>
        </linearGradient>
        <linearGradient id="paint12_linear_2_1396" x1="119.673" y1="53.2007" x2="116.035" y2="53.1977" gradientUnits="userSpaceOnUse">
            <stop stop-color="#6B49FC"/>
            <stop offset="0.830081" stop-color="#DE85FF"/>
            <stop offset="1" stop-color="#E26FF1"/>
        </linearGradient>
        <linearGradient id="paint13_linear_2_1396" x1="121.809" y1="81.3779" x2="114.072" y2="81.3604" gradientUnits="userSpaceOnUse">
            <stop stop-color="#6B49FC"/>
            <stop offset="0.830081" stop-color="#DE85FF"/>
            <stop offset="1" stop-color="#E26FF1"/>
        </linearGradient>
        <linearGradient id="paint14_linear_2_1396" x1="230.901" y1="39.4975" x2="196.968" y2="39.4285" gradientUnits="userSpaceOnUse">
            <stop stop-color="#6B49FC"/>
            <stop offset="0.830081" stop-color="#DE85FF"/>
            <stop offset="1" stop-color="#E26FF1"/>
        </linearGradient>
        <linearGradient id="paint15_linear_2_1396" x1="215.995" y1="56.0068" x2="206.024" y2="55.9874" gradientUnits="userSpaceOnUse">
            <stop stop-color="#6B49FC"/>
            <stop offset="0.830081" stop-color="#DE85FF"/>
            <stop offset="1" stop-color="#E26FF1"/>
        </linearGradient>
        <linearGradient id="paint16_linear_2_1396" x1="210.621" y1="107.38" x2="174.149" y2="107.325" gradientUnits="userSpaceOnUse">
            <stop stop-color="#6B49FC"/>
            <stop offset="0.830081" stop-color="#DE85FF"/>
            <stop offset="1" stop-color="#E26FF1"/>
        </linearGradient>
        <linearGradient id="paint17_linear_2_1396" x1="185.277" y1="80.314" x2="177.661" y2="80.2957" gradientUnits="userSpaceOnUse">
            <stop stop-color="#6B49FC"/>
            <stop offset="0.830081" stop-color="#DE85FF"/>
            <stop offset="1" stop-color="#E26FF1"/>
        </linearGradient>
        <linearGradient id="paint18_linear_2_1396" x1="193.544" y1="80.3092" x2="185.009" y2="80.2864" gradientUnits="userSpaceOnUse">
            <stop stop-color="#6B49FC"/>
            <stop offset="0.830081" stop-color="#DE85FF"/>
            <stop offset="1" stop-color="#E26FF1"/>
        </linearGradient>
        <linearGradient id="paint19_linear_2_1396" x1="185.993" y1="80.8754" x2="184.017" y2="80.8641" gradientUnits="userSpaceOnUse">
            <stop stop-color="#6B49FC"/>
            <stop offset="0.830081" stop-color="#DE85FF"/>
            <stop offset="1" stop-color="#E26FF1"/>
        </linearGradient>
        <linearGradient id="paint20_linear_2_1396" x1="197.093" y1="80.8754" x2="191.995" y2="80.8001" gradientUnits="userSpaceOnUse">
            <stop stop-color="#6B49FC"/>
            <stop offset="0.830081" stop-color="#DE85FF"/>
            <stop offset="1" stop-color="#E26FF1"/>
        </linearGradient>
        <linearGradient id="paint21_linear_2_1396" x1="188.894" y1="198.991" x2="165.325" y2="198.936" gradientUnits="userSpaceOnUse">
            <stop stop-color="#6B49FC"/>
            <stop offset="0.830081" stop-color="#DE85FF"/>
            <stop offset="1" stop-color="#E26FF1"/>
        </linearGradient>
        <linearGradient id="paint22_linear_2_1396" x1="208.415" y1="205.928" x2="196.975" y2="205.918" gradientUnits="userSpaceOnUse">
            <stop stop-color="#6B49FC"/>
            <stop offset="0.830081" stop-color="#DE85FF"/>
            <stop offset="1" stop-color="#E26FF1"/>
        </linearGradient>
    </defs>
</svg>
