<svg width="243" height="235" viewBox="0 0 243 235" fill="none" xmlns="http://www.w3.org/2000/svg">
    <g opacity="0.78">
        <path d="M212.665 189.475L237.913 174.927C238.041 174.883 238.152 174.8 238.231 174.689C238.309 174.579 238.352 174.447 238.352 174.312C238.352 174.176 238.309 174.044 238.231 173.934C238.152 173.824 238.041 173.74 237.913 173.696L175.515 137.542C175.186 137.374 174.822 137.286 174.453 137.286C174.084 137.286 173.72 137.374 173.391 137.542L148.143 152.095C148.015 152.139 147.904 152.222 147.825 152.333C147.747 152.443 147.705 152.575 147.705 152.71C147.705 152.846 147.747 152.978 147.825 153.088C147.904 153.198 148.015 153.282 148.143 153.326L210.541 189.475C210.87 189.643 211.234 189.731 211.603 189.731C211.972 189.731 212.336 189.643 212.665 189.475Z" fill="#EBEBEB"/>
        <path d="M183.323 219.951L222.95 197.282C223.076 197.24 223.186 197.159 223.263 197.051C223.341 196.943 223.383 196.813 223.383 196.68C223.383 196.547 223.341 196.417 223.263 196.309C223.186 196.201 223.076 196.119 222.95 196.077L96.7582 123.235C96.4339 123.07 96.0754 122.984 95.7118 122.984C95.3481 122.984 94.9896 123.07 94.6653 123.235L55.079 145.877C54.9529 145.92 54.8433 146.001 54.7656 146.109C54.688 146.217 54.6462 146.347 54.6462 146.48C54.6462 146.613 54.688 146.743 54.7656 146.851C54.8433 146.959 54.9529 147.04 55.079 147.083L181.271 219.925C181.588 220.088 181.938 220.175 182.294 220.179C182.65 220.184 183.002 220.105 183.323 219.951Z" fill="#EBEBEB"/>
        <path d="M135.037 123.614C139.654 126.266 139.654 130.565 135.037 133.222C130.421 135.879 122.993 135.874 118.397 133.222C113.8 130.57 113.78 126.266 118.397 123.614C123.013 120.962 130.441 120.947 135.037 123.614Z" fill="#EBEBEB"/>
        <path d="M206.883 214.22C201.281 217.488 201.281 222.792 206.883 226.06C212.485 229.327 221.564 229.332 227.166 226.06C232.768 222.787 232.768 217.488 227.166 214.22C221.564 210.953 212.485 210.947 206.883 214.22Z" fill="#EBEBEB"/>
        <path d="M11.6173 196.149C-2.88959 204.623 -2.88959 218.355 11.6173 226.825C26.1243 235.294 49.6441 235.294 64.1511 226.825C78.658 218.355 78.658 204.623 64.1511 196.149C49.6441 187.674 26.1243 187.68 11.6173 196.149Z" fill="#EBEBEB"/>
        <path d="M207.332 175.403L209.501 186.16L211.605 187.376L213.698 186.17L215.883 175.403L211.605 172.936L207.332 175.403Z" fill="#E0E0E0"/>
        <path opacity="0.05" d="M207.332 175.403L209.501 186.16L211.605 187.376L213.698 186.17L215.883 175.403L211.605 172.936L207.332 175.403Z" fill="black"/>
        <path d="M211.602 187.375V177.87L207.328 175.402L209.498 186.159L211.602 187.375Z" fill="#EBEBEB"/>
        <path opacity="0.05" d="M207.332 175.403L208.732 182.349L211.605 184.011L214.472 182.354L215.883 175.403L211.605 172.936L207.332 175.403Z" fill="black"/>
        <path d="M226.127 164.548L228.297 175.3L230.405 176.521L232.493 175.315L234.684 164.548L230.405 162.075L226.127 164.548Z" fill="#E0E0E0"/>
        <path opacity="0.05" d="M226.127 164.548L228.297 175.3L230.405 176.521L232.493 175.315L234.684 164.548L230.405 162.075L226.127 164.548Z" fill="black"/>
        <path d="M230.406 176.521V167.015L226.128 164.548L228.298 175.3L230.406 176.521Z" fill="#EBEBEB"/>
        <path opacity="0.05" d="M226.127 164.548L227.528 171.493L230.405 173.15L233.268 171.499L234.684 164.548L230.405 162.075L226.127 164.548Z" fill="black"/>
        <path opacity="0.05" d="M151.707 143.286L153.876 154.043L155.98 155.264L158.073 154.058L160.258 143.286L155.98 140.818L151.707 143.286Z" fill="black"/>
        <path d="M155.98 155.263V145.758L151.707 143.285L153.877 154.042L155.98 155.263Z" fill="#EBEBEB"/>
        <path opacity="0.05" d="M151.707 143.286L153.107 150.237L155.98 151.893L158.847 150.242L160.258 143.286L155.98 140.818L151.707 143.286Z" fill="black"/>
        <path d="M211.602 182.272L234.906 168.821V118.386L211.602 131.836V182.272Z" fill="#E0E0E0"/>
        <path d="M211.602 131.836L150.496 96.5537V146.989L211.602 182.272V131.836Z" fill="#EBEBEB"/>
        <path d="M150.496 96.5537L211.602 131.836L234.906 118.386L173.796 83.1035L150.496 96.5537Z" fill="#F5F5F5"/>
        <path d="M208.277 156.823L153.825 125.383V143.896L153.21 144.25L207.662 175.685L208.277 175.331V156.823Z" fill="#E0E0E0"/>
        <path d="M207.664 157.178L153.212 125.737V144.251L207.664 175.686V157.178Z" fill="#F5F5F5"/>
        <path d="M181.488 145.568L176.958 142.957C176.368 142.614 175.896 142.773 175.896 143.301C175.938 143.628 176.056 143.941 176.24 144.214C176.425 144.488 176.671 144.714 176.958 144.876L181.488 147.492C182.078 147.831 182.555 147.677 182.555 147.148C182.51 146.821 182.39 146.508 182.205 146.234C182.02 145.96 181.775 145.732 181.488 145.568Z" fill="#E0E0E0"/>
        <path d="M208.277 134.473L153.825 103.033V121.546L153.21 121.9L207.662 153.336L208.277 152.982V134.473Z" fill="#E0E0E0"/>
        <path d="M207.664 134.827L153.212 103.387V121.9L207.664 153.335V134.827Z" fill="#F5F5F5"/>
        <path d="M181.488 123.213L176.958 120.597C176.373 120.258 175.896 120.412 175.896 120.94C175.94 121.268 176.058 121.581 176.242 121.855C176.426 122.129 176.671 122.357 176.958 122.52L181.488 125.131C182.078 125.47 182.555 125.316 182.555 124.788C182.512 124.46 182.393 124.148 182.207 123.874C182.022 123.601 181.776 123.374 181.488 123.213Z" fill="#E0E0E0"/>
        <path d="M188.521 98.2977C185.694 99.9289 185.694 102.571 188.521 104.202C191.347 105.833 195.928 105.833 198.749 104.202C201.571 102.571 201.576 99.9289 198.749 98.2977C195.923 96.6664 191.347 96.6664 188.521 98.2977Z" fill="#E0E0E0"/>
        <path d="M198.132 101.611C200.595 99.1029 202.036 92.8343 199.64 90.8389H187.432C185.031 92.8292 186.472 99.0926 188.935 101.611L189.001 101.678L189.083 101.76C189.155 101.831 189.23 101.898 189.309 101.96L189.366 102.006L189.55 102.145C189.653 102.219 189.759 102.287 189.868 102.35C191.004 102.927 192.26 103.227 193.533 103.227C194.807 103.227 196.063 102.927 197.199 102.35C197.309 102.288 197.415 102.22 197.517 102.145L197.691 102.017L197.763 101.955C197.838 101.896 197.91 101.832 197.978 101.765L198.076 101.673L198.132 101.611Z" fill="#EBEBEB"/>
        <path d="M188.489 90.044C185.703 91.6496 185.703 94.2607 188.489 95.8663C191.274 97.4719 195.793 97.477 198.579 95.8663C201.364 94.2555 201.364 91.6496 198.579 90.044C195.793 88.4384 191.274 88.4333 188.489 90.044Z" fill="#FAFAFA"/>
        <path d="M190.461 91.1928C188.769 92.1726 188.769 93.7577 190.461 94.7374C191.415 95.2206 192.47 95.4724 193.539 95.4724C194.609 95.4724 195.663 95.2206 196.617 94.7374C198.31 93.7577 198.31 92.1726 196.617 91.1928C195.664 90.7072 194.609 90.4541 193.539 90.4541C192.469 90.4541 191.415 90.7072 190.461 91.1928Z" fill="#F5F5F5"/>
        <path d="M196.607 92.8656C195.654 92.3801 194.599 92.127 193.529 92.127C192.459 92.127 191.404 92.3801 190.451 92.8656C190.037 93.0844 189.684 93.4037 189.425 93.7941C189.684 94.1861 190.037 94.5071 190.451 94.7277C191.405 95.2109 192.46 95.4627 193.529 95.4627C194.598 95.4627 195.653 95.2109 196.607 94.7277C197.021 94.5064 197.374 94.1856 197.633 93.7941C197.373 93.4043 197.021 93.0852 196.607 92.8656Z" fill="#EBEBEB"/>
        <path d="M190.84 93.7935C189.973 92.9135 189.228 91.9215 188.624 90.8439C187.598 89.0331 187.408 86.6016 187.937 86.3041C188.465 86.0065 190.625 88.4278 190.625 88.4278C190.428 87.4143 190.353 86.3812 190.399 85.3499C190.486 83.7392 190.881 82.2721 191.343 81.9746C191.805 81.677 192.841 83.7135 193.282 85.1909C193.723 86.6683 193.995 87.8789 193.995 87.8789C194.173 86.7283 194.439 85.593 194.79 84.483C195.303 82.9441 195.816 82.6055 196.19 82.7543C196.565 82.903 196.821 83.6212 196.934 85.6628C196.974 86.6384 196.943 87.6156 196.842 88.5868C196.842 88.5868 197.601 87.7506 198.448 86.935C199.294 86.1194 199.771 85.9091 200.033 86.0937C200.294 86.2784 200.371 87.6327 198.935 90.2488C198.221 91.5697 197.308 92.7723 196.226 93.814C196.226 93.814 194.236 95.0759 190.84 93.7935Z" fill="#E0E0E0"/>
        <path d="M223.184 119.827L222.409 120.206L207.974 111.871L208.754 111.496L223.184 119.827Z" fill="#FAFAFA"/>
        <path d="M208.757 111.495L222.484 119.421L224.484 98.8813L210.752 90.9609L208.757 111.495Z" fill="white"/>
        <path d="M208.862 88.335L225.949 98.1995L223.595 122.422L206.507 112.558L208.862 88.335ZM207.949 111.87L222.41 120.206L224.462 98.8817L210.026 90.551L207.949 111.87Z" fill="#F0F0F0"/>
        <path d="M207.975 111.87L208.755 111.496L210.75 90.9612L210.047 90.5508L207.975 111.87Z" fill="#E0E0E0"/>
        <path d="M208.861 88.3349L209.651 87.9707L226.738 97.8352L225.948 98.1994L208.861 88.3349Z" fill="#FAFAFA"/>
        <path d="M226.738 97.835L225.948 98.1992L223.594 122.422L224.384 122.058L226.738 97.835Z" fill="#E0E0E0"/>
        <path d="M209.358 111.106L222.013 118.411L222.352 114.954L219.997 104.792L217.75 108.259L218.217 111.178L214.472 100.396L209.691 107.644L209.358 111.106Z" fill="#F0F0F0"/>
        <path d="M220.195 100.508C220.457 100.675 220.672 100.906 220.818 101.18C220.965 101.454 221.038 101.762 221.031 102.072C220.974 102.642 220.518 102.857 220.005 102.56C219.745 102.397 219.532 102.169 219.385 101.9C219.239 101.63 219.164 101.328 219.169 101.021C219.21 100.426 219.677 100.21 220.195 100.508Z" fill="#F0F0F0"/>
        <path d="M116.707 125.496C116.707 124.018 117.672 122.541 119.626 121.392C123.535 119.135 129.886 119.135 133.784 121.392C135.739 122.521 136.708 123.998 136.703 125.496V126.881C136.703 128.338 135.703 129.795 133.774 130.908C129.865 133.165 123.515 133.165 119.616 130.908C117.687 129.795 116.707 128.343 116.687 126.881L116.707 125.496Z" fill="#E0E0E0"/>
        <path d="M133.795 121.413C137.704 123.67 137.704 127.327 133.795 129.584C129.886 131.841 123.535 131.841 119.637 129.584C115.738 127.327 115.728 123.67 119.637 121.413C123.546 119.155 129.886 119.155 133.795 121.413Z" fill="#F0F0F0"/>
        <path d="M127.75 32.6113H125.647V124.434C125.644 124.535 125.671 124.635 125.725 124.721C125.779 124.807 125.857 124.874 125.949 124.916C126.18 125.032 126.435 125.093 126.693 125.093C126.952 125.093 127.206 125.032 127.437 124.916C127.529 124.874 127.606 124.805 127.658 124.72C127.711 124.634 127.738 124.534 127.735 124.434L127.75 32.6113Z" fill="#E0E0E0"/>
        <path d="M140.314 27.8568L133.896 11.498H119.477L113.044 27.8568C112.131 30.4217 113.388 33.1764 116.825 35.1616C122.257 38.301 131.07 38.301 136.502 35.1616C139.97 33.1764 141.227 30.4114 140.314 27.8568Z" fill="#F0F0F0"/>
        <path d="M133.217 30.9593C135.833 26.717 132.488 18.6838 130.031 11.9793V11.4971H133.904L140.321 27.8558C141.234 30.4207 139.978 33.1754 136.541 35.1606C131.108 38.3 122.295 38.3 116.863 35.1606C121.767 37.0894 130.606 35.2068 133.217 30.9593Z" fill="#E0E0E0"/>
        <path d="M121.482 15.4166C124.36 17.0786 129.033 17.0786 131.916 15.4166C134.799 13.7545 134.799 11.0511 131.916 9.38911C129.033 7.72707 124.36 7.72707 121.482 9.38911C118.604 11.0511 118.599 13.734 121.482 15.4166Z" fill="#FAFAFA"/>
        <path d="M126.695 15.7857C125.027 15.8229 123.378 15.4327 121.904 14.652C120.785 14.0057 120.17 13.2003 120.17 12.3796C120.17 11.5588 120.785 10.7534 121.904 10.1122C123.39 9.36672 125.03 8.97852 126.692 8.97852C128.355 8.97852 129.995 9.36672 131.481 10.1122C132.599 10.7534 133.215 11.5639 133.215 12.3796C133.215 13.1952 132.599 14.0057 131.481 14.652C130.009 15.4329 128.361 15.8232 126.695 15.7857Z" fill="#E0E0E0"/>
        <path d="M176.777 9.7793L175.608 10.4359V57.1012L176.777 56.4446V9.7793Z" fill="#FAFAFA"/>
        <path d="M176.778 56.4448L176.783 11.1133L231.641 42.7997L231.63 88.1262L176.778 56.4448Z" fill="white"/>
        <path d="M173.428 58.3629V6.66016L233.82 41.5424V93.2451L173.428 58.3629ZM231.64 89.4645V42.7838L175.628 10.4356V57.1163L231.64 89.4645Z" fill="#F0F0F0"/>
        <path d="M175.608 57.1019L176.778 56.4453L231.63 88.1266L231.641 89.4655L175.608 57.1019Z" fill="#E0E0E0"/>
        <path d="M193.531 20.7826L192.357 20.1055V66.7708L193.531 66.1142V20.7826Z" fill="#FAFAFA"/>
        <path d="M217.797 34.8021L216.622 34.125V80.7903L217.797 80.1337V34.8021Z" fill="#FAFAFA"/>
        <path d="M233.82 93.2402L234.984 92.5579V40.8604L233.82 41.5375V93.2402Z" fill="#FAFAFA"/>
        <path d="M234.984 40.8608L233.82 41.5379L173.427 6.66077L174.592 5.97852L234.984 40.8608Z" fill="#E0E0E0"/>
        <path d="M231.641 63.5082V64.8573L175.603 32.4938L176.768 31.8115L231.641 63.5082Z" fill="#E0E0E0"/>
        <path d="M231.635 67.3764L231.641 64.8577L175.603 32.4941L175.608 35.0128L231.635 67.3764Z" fill="#F0F0F0"/>
        <path d="M216.617 83.3098L214.437 82.053V30.3555L216.617 31.6123V83.3098Z" fill="#F0F0F0"/>
        <path d="M192.359 69.2903L190.179 68.0335V16.3359L192.359 17.5927V69.2903Z" fill="#F0F0F0"/>
        <path d="M216.622 56.188L217.797 55.5109V34.8021L216.622 34.125V56.188Z" fill="#FAFAFA"/>
        <path d="M192.364 42.1744L193.539 41.4972V20.7885L192.364 20.1113V42.1744Z" fill="#FAFAFA"/>
        <path d="M162.41 45.4413L161.825 45.785L149.801 38.8137L150.391 38.4648L162.41 45.4413Z" fill="#FAFAFA"/>
        <path d="M150.392 38.4645L161.826 45.0973L161.852 33.1091L150.412 26.4814L150.392 38.4645Z" fill="white"/>
        <path d="M148.726 24.2148L162.961 32.4686L162.93 47.7091L148.695 39.4502L148.726 24.2148ZM149.803 38.8141L161.827 45.7906V33.1098L149.803 26.1334V38.8141Z" fill="#F0F0F0"/>
        <path d="M149.804 38.8135L150.394 38.4647L150.414 26.4816L149.829 26.1328L149.804 38.8135Z" fill="#E0E0E0"/>
        <path d="M148.725 24.2145L149.32 23.876L163.555 32.1297L162.96 32.4734L148.725 24.2145Z" fill="#FAFAFA"/>
        <path d="M163.555 32.1299L162.96 32.4736L162.929 47.7089L163.524 47.3652L163.555 32.1299Z" fill="#E0E0E0"/>
        <path d="M150.836 38.1106L161.378 44.2253L161.383 41.1782L158.756 35.0789L157.11 36.5973L157.695 39.152L154.068 31.3496L150.841 35.0635L150.836 38.1106Z" fill="#F0F0F0"/>
        <path d="M157.22 32.1297C157.447 32.2786 157.636 32.4788 157.771 32.714C157.907 32.9492 157.985 33.2129 158 33.4839C158 33.9969 157.651 34.1816 157.22 33.9353C156.993 33.7864 156.805 33.5862 156.669 33.351C156.534 33.1158 156.455 32.8521 156.441 32.5811C156.441 32.0835 156.789 31.8834 157.22 32.1297Z" fill="#F0F0F0"/>
        <path d="M162.41 24.9784L161.825 25.3272L149.801 18.3508L150.391 18.002L162.41 24.9784Z" fill="#FAFAFA"/>
        <path d="M150.392 18.0016L161.826 24.6344L161.852 12.6462L150.412 6.01855L150.392 18.0016Z" fill="white"/>
        <path d="M148.726 3.75195L162.961 12.0108L162.93 27.2462L148.695 18.9873L148.726 3.75195ZM149.803 18.3512L161.827 25.3277V12.6469L149.803 5.67048V18.3512Z" fill="#F0F0F0"/>
        <path d="M149.804 18.3507L150.394 18.0018L150.414 6.01874L149.829 5.66992L149.804 18.3507Z" fill="#E0E0E0"/>
        <path d="M148.725 3.75165L149.32 3.41309L163.555 11.6668L162.96 12.0105L148.725 3.75165Z" fill="#FAFAFA"/>
        <path d="M163.555 11.667L162.96 12.0107L162.929 27.246L163.524 26.9023L163.555 11.667Z" fill="#E0E0E0"/>
        <path d="M150.836 17.6477L161.378 23.7624L161.383 20.7153L158.756 14.616L157.11 16.1344L157.695 18.6891L154.068 10.8867L150.841 14.6007L150.836 17.6477Z" fill="#F0F0F0"/>
        <path d="M157.22 11.6822C157.447 11.8312 157.636 12.0313 157.771 12.2665C157.907 12.5017 157.985 12.7655 158 13.0365C158 13.5494 157.651 13.7392 157.22 13.4879C156.993 13.3389 156.805 13.1388 156.669 12.9036C156.534 12.6684 156.455 12.4046 156.441 12.1336C156.441 11.6207 156.789 11.4206 157.22 11.6822Z" fill="#F0F0F0"/>
        <path d="M96.223 128.451L93.93 127.127C93.93 127.127 81.752 87.3871 80.5927 85.0633C79.4333 82.7396 81.5058 81.5854 83.7013 82.8524L198.074 148.806C200.27 150.073 200.962 151.812 202.911 155.602C204.861 159.393 215.864 195.907 215.864 195.907C215.941 196.322 215.888 196.75 215.713 197.134C215.538 197.517 215.248 197.838 214.884 198.051L188.846 213.133L69.2405 144.081L96.223 128.451Z" fill="url(#paint0_linear_2_584)"/>
        <path opacity="0.35" d="M96.223 128.451L93.93 127.127C93.93 127.127 81.752 87.3871 80.5927 85.0633C79.4333 82.7396 81.5058 81.5854 83.7013 82.8524L198.074 148.806C200.27 150.073 200.962 151.812 202.911 155.602C204.861 159.393 215.864 195.907 215.864 195.907C215.941 196.322 215.888 196.75 215.713 197.134C215.538 197.517 215.248 197.838 214.884 198.051L188.846 213.133L69.2405 144.081L96.223 128.451Z" fill="white"/>
        <path d="M201.477 156.521C202.959 159.394 214.414 196.687 214.414 196.687L92.4851 126.292C92.4851 126.292 80.3943 88.388 79.1837 86.0027C77.9731 83.6173 80.0968 82.5247 82.2923 83.7866L196.665 149.724C198.835 150.991 199.994 153.649 201.477 156.521Z" fill="url(#paint1_linear_2_584)"/>
        <path opacity="0.15" d="M201.477 156.521C202.959 159.394 214.414 196.687 214.414 196.687L92.4851 126.292C92.4851 126.292 80.3943 88.388 79.1837 86.0027C77.9731 83.6173 80.0968 82.5247 82.2923 83.7866L196.665 149.724C198.835 150.991 199.994 153.649 201.477 156.521Z" fill="black"/>
        <path d="M94.8089 127.636L214.414 196.687L187.929 211.979L68.3189 142.933L94.8089 127.636Z" fill="url(#paint2_linear_2_584)"/>
        <path d="M86.4747 40.5477L201.709 106.952C204.238 108.414 205.023 110.774 204.577 113.888L190.942 209.588C190.496 212.702 188.018 214.518 185.494 213.061L71.2804 147.149C68.7514 145.687 67.0638 141.983 67.5101 138.875L81.0936 43.5383C81.5399 40.4092 83.9509 39.0857 86.4747 40.5477Z" fill="url(#paint3_linear_2_584)"/>
        <path opacity="0.35" d="M86.4747 40.5477L201.709 106.952C204.238 108.414 205.023 110.774 204.577 113.888L190.942 209.588C190.496 212.702 188.018 214.518 185.494 213.061L71.2804 147.149C68.7514 145.687 67.0638 141.983 67.5101 138.875L81.0936 43.5383C81.5399 40.4092 83.9509 39.0857 86.4747 40.5477Z" fill="white"/>
        <path d="M78.7084 42.5788C79.2216 42.4017 79.7685 42.3442 80.3073 42.4109C80.8461 42.4776 81.3625 42.6666 81.817 42.9636L196.031 108.881C197.312 109.683 198.326 110.847 198.945 112.225L202.633 110.686C201.822 108.917 200.412 108.275 199.201 107.568L84.9924 41.6503C84.5204 41.3408 83.9811 41.149 83.4196 41.091C82.8582 41.0329 82.291 41.1104 81.7657 41.3169L78.7084 42.5788Z" fill="#455A64"/>
        <path d="M187.241 214.026C188.374 213.559 189.216 212.384 189.462 210.671L202.974 115.817C203.251 113.872 203.343 112.128 202.635 110.661L198.947 112.226C199.044 112.426 199.137 112.636 199.224 112.846C199.311 113.057 199.352 113.19 199.403 113.359C199.406 113.387 199.406 113.414 199.403 113.441C199.47 113.637 199.526 113.835 199.573 114.037C199.629 114.242 199.675 114.457 199.711 114.662C199.747 114.868 199.762 114.975 199.778 115.134C199.868 115.805 199.868 116.485 199.778 117.155L186.194 212.487C185.948 214.215 185.091 215.4 183.947 215.862L187.241 214.026Z" fill="#263238"/>
        <path d="M81.8189 42.974L197.053 109.379C199.577 110.835 200.367 113.2 199.921 116.309L186.219 212.492C185.773 215.605 183.362 216.944 180.838 215.482L66.6246 149.57C64.0956 148.113 62.4079 144.41 62.8542 141.296L76.4378 45.9595C76.8841 42.8509 79.295 41.512 81.8189 42.974Z" fill="#37474F"/>
        <path d="M73.6361 149.159L175.585 207.962C176.893 208.721 178.149 208.023 178.37 206.423L191.82 112.066C191.918 111.241 191.787 110.405 191.442 109.649C191.098 108.893 190.552 108.246 189.866 107.778L87.9121 48.9448C86.604 48.1907 85.3473 48.8832 85.1267 50.4837L71.6765 144.83C71.5724 145.662 71.7003 146.507 72.0461 147.271C72.3919 148.035 72.9422 148.689 73.6361 149.159Z" fill="#263238"/>
        <path d="M191.82 112.067L178.37 206.413C178.37 206.48 178.37 206.536 178.334 206.598L76.3907 147.77C75.7037 147.302 75.1581 146.655 74.8134 145.899C74.4688 145.143 74.3384 144.307 74.4363 143.481L87.9121 48.9453L189.866 107.778C190.552 108.246 191.098 108.893 191.442 109.649C191.787 110.406 191.918 111.242 191.82 112.067Z" fill="#FAFAFA"/>
        <path d="M186.622 170.489C186.572 170.904 186.638 171.325 186.812 171.705C186.986 172.085 187.261 172.41 187.607 172.644C188.264 173.023 188.895 172.674 189.008 171.864C189.057 171.449 188.991 171.028 188.819 170.648C188.646 170.267 188.372 169.941 188.028 169.704C187.366 169.325 186.74 169.679 186.622 170.489Z" fill="#263238"/>
        <path d="M191.078 148.395C191.348 148.577 191.561 148.83 191.696 149.126C191.831 149.422 191.882 149.75 191.843 150.072L189.616 165.605C189.524 166.236 189.037 166.508 188.524 166.211C188.255 166.027 188.042 165.774 187.908 165.479C187.773 165.183 187.722 164.856 187.759 164.533L189.996 149C190.078 148.369 190.565 148.098 191.078 148.395Z" fill="#263238"/>
        <g opacity="0.5">
            <path d="M176.031 198.78L178.766 179.692L157.257 124.26L116.219 141.758L122.831 134.109L104.066 108.106L81.2286 118.556L77.8533 142.106L176.031 198.78Z" fill="url(#paint4_linear_2_584)"/>
            <path d="M118.971 101.201C118.432 104.951 115.862 106.752 113.23 105.233C110.599 103.715 108.896 99.4419 109.429 95.6972C109.963 91.9525 112.538 90.1673 115.175 91.6652C117.811 93.1631 119.509 97.4567 118.971 101.201Z" fill="url(#paint5_linear_2_584)"/>
        </g>
        <path opacity="0.9" d="M73.5501 22.8398C73.5629 22.7792 73.5836 22.7205 73.6117 22.6653C73.6117 22.6653 73.6117 22.6653 73.6117 22.6294C73.6311 22.572 73.6569 22.5169 73.6886 22.4653C73.7308 22.3786 73.7861 22.299 73.8528 22.2293C73.8761 22.1921 73.9056 22.1591 73.94 22.1319C73.9615 22.1087 73.9856 22.088 74.0118 22.0703C74.0595 22.022 74.115 21.9822 74.1759 21.9523C74.2404 21.9197 74.3073 21.8923 74.376 21.8702C74.6204 21.8002 74.8771 21.7836 75.1285 21.8217C75.3799 21.8598 75.6201 21.9516 75.8329 22.0908L178.607 81.1957C179.731 81.8421 180.51 83.3502 180.208 85.4534L167.029 177.496C166.886 178.492 165.542 179.066 164.608 178.522L61.9159 119.407C61.348 119.06 60.8864 118.564 60.5815 117.972C60.2766 117.38 60.1402 116.716 60.1871 116.052L73.4988 23.0757C73.5091 22.9936 73.5501 22.9116 73.5501 22.8398Z" fill="#455A64"/>
        <path d="M74.3967 21.855C74.6411 21.7849 74.8978 21.7684 75.1492 21.8065C75.4006 21.8445 75.6408 21.9363 75.8535 22.0756L178.607 81.1959C179.175 81.5434 179.636 82.04 179.941 82.6315C180.246 83.2231 180.383 83.8869 180.336 84.5507L179.823 88.2082L182.814 86.9104L183.327 83.3196C183.374 82.6569 183.238 81.9941 182.934 81.4034C182.63 80.8127 182.17 80.3168 181.603 79.9699L78.8544 20.829C78.6248 20.6745 78.3614 20.5774 78.0864 20.5462C77.8114 20.5149 77.5329 20.5504 77.2745 20.6495C76.8487 20.8393 74.8943 21.6601 74.3967 21.855Z" fill="url(#paint6_linear_2_584)"/>
        <path d="M73.4995 23.0599C73.6791 21.8698 74.7255 21.4287 75.8489 22.075L178.603 81.1953C179.169 81.5441 179.63 82.041 179.934 82.6322C180.239 83.2234 180.376 83.8866 180.332 84.5502L179.819 88.2128L72.9712 26.7431L73.4995 23.0599Z" fill="url(#paint7_linear_2_584)"/>
        <path opacity="0.3" d="M75.8489 22.0756L178.598 81.1959C179.174 81.5486 179.642 82.0548 179.947 82.6579L182.938 81.3857C182.636 80.7906 182.174 80.2915 181.604 79.9442L78.8498 20.829C78.6202 20.6745 78.3568 20.5774 78.0818 20.5462C77.8068 20.5149 77.5283 20.5504 77.2699 20.6495C76.8441 20.8393 74.8948 21.6754 74.4024 21.8499C74.6455 21.7811 74.9006 21.7656 75.1503 21.8046C75.4 21.8435 75.6383 21.936 75.8489 22.0756Z" fill="white"/>
        <path opacity="0.15" d="M182.811 86.9207L183.324 83.2991C183.389 82.636 183.252 81.9687 182.929 81.3857L179.933 82.6528C180.256 83.2301 180.39 83.8935 180.318 84.5508L179.805 88.2134L182.811 86.9207Z" fill="black"/>
        <path d="M81.6077 27.2875C81.8384 27.4656 82.0173 27.7023 82.1255 27.9729C82.2338 28.2436 82.2675 28.5383 82.2233 28.8264C82.1361 29.4368 81.7103 29.7292 81.2897 29.483C81.0585 29.3052 80.8794 29.0686 80.7711 28.7978C80.6628 28.5271 80.6293 28.2322 80.6741 27.9441C80.7613 27.3336 81.1768 27.0412 81.6077 27.2875Z" fill="white"/>
        <path d="M78.8151 25.6713C79.0455 25.8498 79.224 26.0865 79.3322 26.3571C79.4404 26.6276 79.4744 26.9222 79.4307 27.2102C79.3435 27.8155 78.9177 28.1131 78.4971 27.8617C78.2659 27.684 78.0868 27.4473 77.9785 27.1766C77.8702 26.9058 77.8367 26.6109 77.8815 26.3228C77.9687 25.7175 78.3842 25.4251 78.8151 25.6713Z" fill="white"/>
        <path d="M76.0199 24.0608C76.2528 24.2372 76.4336 24.4735 76.5429 24.7445C76.6522 25.0155 76.6859 25.311 76.6406 25.5997C76.5534 26.2101 76.1276 26.5025 75.707 26.2563C75.4753 26.0788 75.2955 25.8424 75.1863 25.5717C75.0771 25.301 75.0426 25.006 75.0863 24.7174C75.1735 24.1018 75.5992 23.8094 76.0199 24.0608Z" fill="white"/>
        <path opacity="0.9" d="M166.07 178.605L166.193 178.554L168.671 177.497C168.986 177.375 169.271 177.185 169.506 176.942C169.741 176.698 169.92 176.406 170.03 176.086C170.056 175.995 170.076 175.903 170.092 175.809L182.809 86.916L179.797 88.2138L167.014 177.497C166.988 177.659 166.931 177.814 166.845 177.954C166.659 178.244 166.388 178.471 166.07 178.605Z" fill="#263238"/>
        <path d="M60.1841 116.047L61.0869 109.717L167.898 171.387L167.026 177.496C166.883 178.491 165.539 179.066 164.605 178.522L61.9128 119.407C61.3441 119.059 60.8819 118.562 60.577 117.969C60.2721 117.377 60.1362 116.712 60.1841 116.047Z" fill="url(#paint8_linear_2_584)"/>
        <path d="M166.858 177.953C166.944 177.813 167.001 177.658 167.027 177.496L167.899 171.386L170.91 170.094L170.095 175.834C170.079 175.927 170.058 176.02 170.033 176.111C169.922 176.431 169.744 176.723 169.509 176.966C169.274 177.21 168.989 177.399 168.674 177.522L166.196 178.578L166.109 178.614C166.42 178.475 166.681 178.244 166.858 177.953Z" fill="url(#paint9_linear_2_584)"/>
        <path opacity="0.15" d="M166.858 177.953C166.944 177.813 167.001 177.658 167.027 177.496L167.899 171.386L170.91 170.094L170.095 175.834C170.079 175.927 170.058 176.02 170.033 176.111C169.922 176.431 169.744 176.723 169.509 176.966C169.274 177.21 168.989 177.399 168.674 177.522L166.196 178.578L166.109 178.614C166.42 178.475 166.681 178.244 166.858 177.953Z" fill="black"/>
        <path d="M152.984 168.396L153.328 166.006C153.328 165.837 153.246 165.647 153.128 165.642L150.676 165.519C150.512 165.519 150.471 165.816 150.609 165.98L152.718 168.494C152.82 168.617 152.959 168.566 152.984 168.396Z" fill="white"/>
        <path d="M147.672 165.328L148.016 162.937C148.041 162.768 147.934 162.578 147.816 162.573L145.364 162.455C145.199 162.455 145.158 162.747 145.297 162.917L147.416 165.425C147.513 165.574 147.646 165.502 147.672 165.328Z" fill="white"/>
        <path d="M144.853 163.959C144.95 164.016 145.042 163.959 145.058 163.847L145.412 161.395C145.419 161.333 145.409 161.272 145.384 161.216C145.359 161.16 145.319 161.111 145.268 161.076C145.171 161.025 145.078 161.076 145.063 161.194L144.709 163.646C144.703 163.707 144.714 163.767 144.739 163.822C144.764 163.877 144.803 163.924 144.853 163.959Z" fill="white"/>
        <path d="M160.976 173.008L161.315 170.617C161.315 170.448 161.479 170.397 161.581 170.525L163.69 173.033C163.828 173.198 163.787 173.505 163.623 173.495L161.176 173.377C161.053 173.367 160.95 173.182 160.976 173.008Z" fill="white"/>
        <path d="M163.741 174.87C163.689 174.837 163.648 174.79 163.623 174.734C163.597 174.679 163.588 174.617 163.597 174.557L163.946 172.105C163.945 172.08 163.95 172.056 163.962 172.035C163.974 172.013 163.991 171.996 164.012 171.984C164.034 171.971 164.058 171.965 164.082 171.966C164.107 171.966 164.13 171.974 164.151 171.987C164.201 172.022 164.242 172.07 164.267 172.126C164.292 172.182 164.302 172.244 164.295 172.305L163.946 174.757C163.925 174.875 163.833 174.926 163.741 174.87Z" fill="white"/>
        <path d="M72.1936 122.643C72.2326 122.651 72.2727 122.651 72.3116 122.643C72.3472 122.629 72.3785 122.606 72.4027 122.577C72.427 122.547 72.4433 122.512 72.4501 122.474L72.8656 119.581C72.8704 119.546 72.8641 119.51 72.8475 119.479C72.8309 119.448 72.805 119.422 72.7733 119.407L68.6131 117.006C68.5782 116.988 68.5395 116.979 68.5002 116.979C68.461 116.979 68.4223 116.988 68.3874 117.006C68.3517 117.018 68.32 117.04 68.2956 117.069C68.2712 117.098 68.2551 117.133 68.2489 117.17L67.8333 120.063C67.829 120.099 67.8354 120.135 67.8519 120.167C67.8684 120.199 67.8941 120.226 67.9257 120.243L72.0859 122.643C72.1214 122.652 72.1582 122.652 72.1936 122.643ZM72.3937 119.653L72.0397 122.095L68.3053 119.94L68.6592 117.498L72.3937 119.653Z" fill="white"/>
        <path d="M65.8513 117.011C65.9097 117.015 65.9675 116.998 66.0145 116.963C66.0615 116.929 66.0946 116.878 66.1078 116.821L66.272 115.662C66.2765 115.627 66.2706 115.592 66.255 115.561C66.2395 115.53 66.215 115.505 66.1848 115.488L65.1588 114.903C65.1058 114.875 65.0452 114.867 64.9866 114.878C64.928 114.889 64.8749 114.919 64.8356 114.964C64.8176 114.984 64.8043 115.007 64.7968 115.033C64.7892 115.058 64.7876 115.085 64.7921 115.112C64.7965 115.138 64.8069 115.163 64.8225 115.184C64.838 115.206 64.8583 115.224 64.8818 115.236L65.7846 115.749L65.6308 116.801C65.6282 116.83 65.6322 116.859 65.6425 116.887C65.6528 116.914 65.6692 116.939 65.6904 116.959C65.7116 116.979 65.7371 116.994 65.7649 117.003C65.7928 117.012 65.8223 117.015 65.8513 117.011Z" fill="white"/>
        <path d="M63.1141 115.426C63.1719 115.431 63.2297 115.415 63.2768 115.381C63.3239 115.347 63.3572 115.297 63.3706 115.241L63.4886 114.42L64.1759 114.815C64.2284 114.843 64.2887 114.853 64.3472 114.842C64.4058 114.832 64.4592 114.803 64.4991 114.759C64.5173 114.739 64.5309 114.716 64.5389 114.691C64.5468 114.666 64.5489 114.639 64.5449 114.613C64.541 114.587 64.5311 114.562 64.516 114.54C64.501 114.518 64.4812 114.5 64.4581 114.487L63.4321 113.902C63.3968 113.886 63.3583 113.877 63.3193 113.877C63.2803 113.877 63.2417 113.886 63.2064 113.902C63.1703 113.915 63.1384 113.938 63.1141 113.968C63.0897 113.998 63.0738 114.033 63.0679 114.071L62.8986 115.231C62.8976 115.258 62.9027 115.286 62.9134 115.311C62.9242 115.337 62.9404 115.36 62.961 115.378C62.9815 115.397 63.0058 115.411 63.0323 115.419C63.0587 115.427 63.0867 115.429 63.1141 115.426Z" fill="white"/>
        <path d="M63.801 118.202C63.8412 118.205 63.8816 118.199 63.919 118.183C63.9563 118.168 63.9897 118.145 64.0165 118.115C64.0345 118.095 64.0478 118.071 64.0553 118.046C64.0629 118.02 64.0645 117.994 64.06 117.967C64.0556 117.941 64.0452 117.916 64.0296 117.895C64.0141 117.873 63.9938 117.855 63.9703 117.843L63.0675 117.33L63.2214 116.304C63.2228 116.276 63.2185 116.249 63.2088 116.223C63.199 116.198 63.1839 116.175 63.1645 116.155C63.1452 116.136 63.122 116.121 63.0964 116.111C63.0708 116.101 63.0435 116.097 63.0162 116.099C62.9576 116.093 62.8993 116.11 62.852 116.145C62.8048 116.18 62.772 116.231 62.7597 116.288L62.5955 117.448C62.591 117.482 62.5969 117.517 62.6125 117.548C62.628 117.579 62.6525 117.605 62.6827 117.622L63.7087 118.202C63.739 118.209 63.7707 118.209 63.801 118.202Z" fill="white"/>
        <path d="M65.5388 119.206C65.5795 119.206 65.6196 119.197 65.6568 119.181C65.6928 119.169 65.7248 119.147 65.7492 119.118C65.7737 119.089 65.7896 119.054 65.7953 119.017L65.9646 117.857C65.966 117.83 65.9618 117.803 65.9524 117.778C65.943 117.752 65.9285 117.729 65.9097 117.709C65.891 117.69 65.8685 117.674 65.8435 117.663C65.8186 117.653 65.7917 117.647 65.7645 117.647C65.7062 117.643 65.6484 117.66 65.6014 117.695C65.5544 117.73 65.5213 117.78 65.508 117.837L65.3901 118.658L64.7027 118.263C64.6504 118.234 64.5899 118.224 64.5311 118.234C64.4724 118.244 64.4188 118.274 64.3795 118.319C64.3613 118.338 64.3477 118.361 64.3397 118.387C64.3318 118.412 64.3297 118.439 64.3337 118.465C64.3376 118.491 64.3475 118.516 64.3626 118.538C64.3776 118.56 64.3974 118.578 64.4205 118.591L65.4465 119.176C65.4758 119.19 65.5068 119.2 65.5388 119.206Z" fill="white"/>
        <path d="M78.2087 124.701L77.7932 124.521C77.7847 124.514 77.7737 124.51 77.7624 124.51C77.751 124.51 77.7401 124.514 77.7316 124.521C77.6924 124.609 77.6424 124.692 77.5828 124.768C77.5828 124.768 77.5828 124.839 77.5828 124.886L77.7624 125.368C77.7624 125.419 77.7624 125.465 77.7624 125.476L77.3776 125.691C77.3776 125.691 77.3263 125.691 77.3007 125.624L77.0596 125.178C77.034 125.132 76.998 125.101 76.9724 125.101C76.8858 125.116 76.7973 125.116 76.7108 125.101C76.6979 125.1 76.685 125.103 76.6745 125.111C76.664 125.118 76.6568 125.129 76.6543 125.142L76.5364 125.619C76.5349 125.626 76.5319 125.631 76.5277 125.636C76.5235 125.641 76.5182 125.645 76.5122 125.648C76.5062 125.65 76.4996 125.651 76.4931 125.651C76.4866 125.65 76.4803 125.648 76.4748 125.645L76.0337 125.388C76.0195 125.377 76.0079 125.363 75.9999 125.347C75.9919 125.331 75.9877 125.314 75.9875 125.296L76.0131 124.783C76.0139 124.761 76.0102 124.74 76.0023 124.719C75.9944 124.699 75.9823 124.681 75.967 124.665C75.8937 124.594 75.8267 124.517 75.7669 124.434C75.7669 124.398 75.7054 124.373 75.6848 124.378L75.3104 124.511C75.3104 124.511 75.2591 124.486 75.2334 124.439L74.9974 123.926C74.9974 123.88 74.9974 123.829 74.9974 123.819L75.3155 123.567C75.3298 123.531 75.3298 123.491 75.3155 123.454C75.2909 123.352 75.2738 123.247 75.2642 123.142C75.2606 123.098 75.2404 123.058 75.2078 123.029L74.823 122.747C74.808 122.737 74.796 122.723 74.7888 122.706C74.7815 122.69 74.7791 122.672 74.782 122.654L74.8589 122.105C74.8593 122.099 74.8612 122.092 74.8645 122.087C74.8678 122.081 74.8724 122.076 74.8779 122.073C74.8834 122.069 74.8897 122.067 74.8962 122.067C74.9027 122.066 74.9093 122.067 74.9154 122.069L75.3257 122.249C75.338 122.254 75.3518 122.254 75.3643 122.25C75.3767 122.245 75.3868 122.235 75.3924 122.223C75.4319 122.137 75.48 122.054 75.5361 121.977C75.5451 121.959 75.5498 121.939 75.5498 121.918C75.5498 121.898 75.5451 121.877 75.5361 121.859L75.3565 121.377C75.3565 121.326 75.3565 121.279 75.3565 121.269L75.7413 121.054C75.7413 121.054 75.7925 121.054 75.8182 121.12L76.0644 121.567C76.0901 121.613 76.126 121.644 76.1465 121.644C76.2351 121.634 76.3246 121.634 76.4132 121.644C76.4132 121.644 76.4594 121.644 76.4697 121.603L76.5825 121.126C76.584 121.119 76.587 121.113 76.5912 121.108C76.5954 121.103 76.6007 121.099 76.6067 121.097C76.6127 121.094 76.6193 121.093 76.6258 121.094C76.6323 121.094 76.6385 121.096 76.6441 121.1L77.0904 121.356C77.105 121.367 77.1166 121.381 77.1238 121.397C77.131 121.413 77.1337 121.431 77.1314 121.449L77.1058 121.962C77.1086 122.006 77.1268 122.048 77.1571 122.08C77.226 122.153 77.2911 122.23 77.352 122.311C77.3828 122.346 77.4187 122.372 77.4392 122.367L77.8137 122.234C77.8137 122.234 77.865 122.259 77.8855 122.305L78.1215 122.818C78.1215 122.865 78.1471 122.916 78.1215 122.926L77.7983 123.183C77.7983 123.183 77.7983 123.244 77.7983 123.29C77.8212 123.393 77.8366 123.498 77.8445 123.603C77.8502 123.646 77.8701 123.686 77.9009 123.716L78.2907 123.998C78.3046 124.009 78.3156 124.023 78.3228 124.039C78.3299 124.055 78.333 124.073 78.3318 124.091L78.2548 124.639C78.2594 124.646 78.2616 124.655 78.2613 124.663C78.261 124.671 78.2582 124.68 78.2531 124.686C78.2481 124.693 78.2412 124.698 78.2332 124.701C78.2253 124.703 78.2167 124.703 78.2087 124.701ZM77.3161 123.819C77.3457 123.558 77.3041 123.295 77.1957 123.056C77.0873 122.818 76.9161 122.613 76.7005 122.464C76.285 122.223 75.89 122.464 75.8182 122.977C75.7862 123.238 75.8268 123.502 75.9354 123.741C76.044 123.98 76.2165 124.184 76.4338 124.332C76.8493 124.537 77.2443 124.332 77.3161 123.819Z" fill="white"/>
        <path d="M157.677 171.392L158.123 171.648C158.134 171.656 158.148 171.661 158.162 171.662C158.175 171.662 158.189 171.659 158.201 171.652C158.213 171.645 158.223 171.634 158.229 171.622C158.235 171.609 158.237 171.596 158.236 171.582L158.616 168.945C158.62 168.91 158.615 168.875 158.6 168.843C158.586 168.812 158.563 168.785 158.533 168.766L158.087 168.509C158.036 168.478 157.985 168.509 157.974 168.576L157.595 171.212C157.59 171.247 157.595 171.282 157.61 171.314C157.624 171.346 157.647 171.373 157.677 171.392Z" fill="white"/>
        <path d="M156.209 170.524L156.65 170.786C156.707 170.817 156.758 170.786 156.768 170.719L157.148 168.083C157.15 168.048 157.144 168.014 157.129 167.983C157.115 167.951 157.093 167.924 157.066 167.903L156.62 167.647C156.608 167.639 156.595 167.635 156.582 167.635C156.568 167.634 156.555 167.637 156.543 167.644C156.531 167.65 156.521 167.659 156.514 167.67C156.506 167.682 156.502 167.695 156.502 167.708L156.127 170.35C156.123 170.384 156.128 170.418 156.143 170.449C156.157 170.48 156.18 170.506 156.209 170.524Z" fill="white"/>
        <path d="M111.507 206.54L119.992 201.642C120.602 201.288 120.505 200.744 119.792 200.58L105.588 197.276C104.649 197.056 103.572 197.676 103.946 198.22L109.671 206.428C109.968 206.828 110.912 206.889 111.507 206.54Z" fill="#E0E0E0"/>
        <path d="M92.3962 195.496L100.881 190.597C101.486 190.248 101.394 189.699 100.681 189.535L86.4765 186.231C85.5326 186.016 84.4554 186.637 84.835 187.18L90.5546 195.388C90.8419 195.788 91.7858 195.839 92.3962 195.496Z" fill="#E0E0E0"/>
        <path d="M79.2818 188.936C79.5198 189.058 79.7836 189.122 80.0512 189.122C80.3189 189.122 80.5827 189.058 80.8207 188.936L89.5413 183.908C89.633 183.877 89.7126 183.817 89.7689 183.738C89.8252 183.659 89.8555 183.564 89.8555 183.467C89.8555 183.37 89.8252 183.276 89.7689 183.196C89.7126 183.117 89.633 183.058 89.5413 183.026C89.3032 182.904 89.0395 182.84 88.7718 182.84C88.5042 182.84 88.2404 182.904 88.0023 183.026L79.2818 188.058C79.1894 188.089 79.109 188.147 79.052 188.226C78.995 188.305 78.9643 188.4 78.9643 188.497C78.9643 188.594 78.995 188.689 79.052 188.768C79.109 188.846 79.1894 188.905 79.2818 188.936Z" fill="#E0E0E0"/>
        <path d="M136.235 220.806L144.72 215.907C145.33 215.559 146.259 215.62 146.562 216.025L152.281 224.233C152.661 224.777 151.584 225.397 150.64 225.177L136.435 221.873C135.733 221.704 135.62 221.16 136.235 220.806Z" fill="#E0E0E0"/>
        <path d="M147.598 228.378C147.506 228.348 147.425 228.289 147.368 228.21C147.311 228.131 147.281 228.037 147.281 227.939C147.281 227.842 147.311 227.747 147.368 227.669C147.425 227.59 147.506 227.531 147.598 227.501L156.319 222.468C156.557 222.346 156.821 222.282 157.088 222.282C157.356 222.282 157.62 222.346 157.858 222.468C157.949 222.5 158.029 222.56 158.085 222.639C158.142 222.718 158.172 222.813 158.172 222.91C158.172 223.007 158.142 223.101 158.085 223.18C158.029 223.26 157.949 223.319 157.858 223.351L149.137 228.378C148.899 228.5 148.635 228.564 148.368 228.564C148.1 228.564 147.836 228.5 147.598 228.378Z" fill="#E0E0E0"/>
        <path d="M125.284 215.508L127.233 216.636C127.366 216.702 127.513 216.736 127.661 216.736C127.81 216.736 127.957 216.702 128.09 216.636L137.462 211.23C137.521 211.218 137.574 211.186 137.613 211.139C137.651 211.092 137.672 211.034 137.672 210.973C137.672 210.913 137.651 210.854 137.613 210.807C137.574 210.761 137.521 210.729 137.462 210.717L135.513 209.588C135.378 209.522 135.231 209.488 135.082 209.488C134.932 209.488 134.785 209.522 134.651 209.588L125.284 215C125.048 215.149 125.048 215.369 125.284 215.508Z" fill="#E0E0E0"/>
        <path d="M118.752 211.742L120.701 212.871C120.834 212.937 120.981 212.971 121.129 212.971C121.278 212.971 121.424 212.937 121.558 212.871L130.925 207.459C131.161 207.326 131.161 207.105 130.925 206.946L128.975 205.818C128.842 205.752 128.695 205.718 128.547 205.718C128.398 205.718 128.252 205.752 128.119 205.818L118.752 211.229C118.692 211.241 118.639 211.273 118.601 211.32C118.563 211.367 118.542 211.425 118.542 211.486C118.542 211.546 118.563 211.605 118.601 211.652C118.639 211.698 118.692 211.73 118.752 211.742Z" fill="#E0E0E0"/>
        <path d="M151.894 234.077C152.713 234.092 153.521 233.898 154.244 233.513L166.473 226.454C166.781 226.341 167.047 226.137 167.235 225.868C167.423 225.599 167.523 225.279 167.523 224.951C167.523 224.623 167.423 224.303 167.235 224.034C167.047 223.765 166.781 223.561 166.473 223.448L87.5672 177.886C86.839 177.517 86.0341 177.324 85.2178 177.324C84.4014 177.324 83.5965 177.517 82.8684 177.886L70.639 184.944C70.3315 185.058 70.0663 185.263 69.879 185.533C69.6917 185.802 69.5913 186.122 69.5913 186.45C69.5913 186.778 69.6917 187.098 69.879 187.367C70.0663 187.636 70.3315 187.841 70.639 187.955L149.545 233.507C150.267 233.894 151.075 234.09 151.894 234.077ZM85.2075 177.834C85.9372 177.826 86.6571 178.003 87.3005 178.347L166.216 223.889C166.445 223.957 166.646 224.098 166.788 224.289C166.931 224.48 167.008 224.712 167.008 224.951C167.008 225.19 166.931 225.422 166.788 225.613C166.646 225.805 166.445 225.945 166.216 226.013L153.987 233.071C153.339 233.401 152.622 233.573 151.894 233.573C151.167 233.573 150.45 233.401 149.801 233.071L70.8955 187.514C70.666 187.448 70.4643 187.308 70.3208 187.117C70.1773 186.926 70.0997 186.694 70.0997 186.455C70.0997 186.216 70.1773 185.983 70.3208 185.792C70.4643 185.601 70.666 185.462 70.8955 185.396L83.1248 178.332C83.7694 177.992 84.4893 177.821 85.2178 177.834H85.2075Z" fill="#E0E0E0"/>
        <path d="M126.263 125.275C128.436 125.384 130.606 125.005 132.614 124.167C137.328 122.161 140.401 117.744 141.263 111.732C142.976 99.7646 135.23 84.7652 123.996 78.2914C118.353 75.0392 112.639 74.3518 107.919 76.3575C103.2 78.3633 100.132 82.7748 99.2705 88.7869C97.5572 100.755 105.303 115.754 116.537 122.228C119.486 124.013 122.823 125.058 126.263 125.275ZM122.585 79.9791C133.219 86.1348 140.539 100.308 138.929 111.635C138.175 116.903 135.605 120.72 131.696 122.407C127.787 124.095 122.898 123.433 117.948 120.566C107.314 114.441 99.9938 100.236 101.605 88.91C102.359 83.6418 104.929 79.8252 108.837 78.1632C112.746 76.5012 117.635 77.1372 122.585 80.0048V79.9791Z" fill="url(#paint10_linear_2_584)"/>
        <path d="M122.514 112.738L125.679 114.569C126.063 114.789 126.428 114.569 126.494 114.112L129.177 95.3785C129.208 95.1368 129.171 94.8915 129.07 94.6696C128.969 94.4478 128.809 94.2581 128.608 94.1217L125.438 92.2903C125.053 92.0698 124.689 92.2903 124.622 92.7469L121.939 111.481C121.911 111.723 121.95 111.968 122.051 112.189C122.152 112.411 122.312 112.6 122.514 112.738Z" fill="url(#paint11_linear_2_584)"/>
        <path d="M111.893 106.628L115.063 108.455C115.442 108.675 115.812 108.455 115.879 107.998L118.561 89.2643C118.59 89.0223 118.551 88.7773 118.45 88.5557C118.348 88.3341 118.188 88.1445 117.987 88.0075L114.822 86.1813C114.437 85.9556 114.073 86.1813 114.001 86.6327L111.323 105.367C111.294 105.609 111.331 105.855 111.431 106.077C111.532 106.3 111.691 106.49 111.893 106.628Z" fill="url(#paint12_linear_2_584)"/>
        <g opacity="0.3">
            <path d="M126.263 125.275C128.436 125.384 130.606 125.005 132.614 124.167C137.328 122.161 140.401 117.744 141.263 111.732C142.976 99.7646 135.23 84.7652 123.996 78.2914C118.353 75.0392 112.639 74.3518 107.919 76.3575C103.2 78.3633 100.132 82.7748 99.2705 88.7869C97.5572 100.755 105.303 115.754 116.537 122.228C119.486 124.013 122.823 125.058 126.263 125.275ZM122.585 79.9791C133.219 86.1348 140.539 100.308 138.929 111.635C138.175 116.903 135.605 120.72 131.696 122.407C127.787 124.095 122.898 123.433 117.948 120.566C107.314 114.441 99.9938 100.236 101.605 88.91C102.359 83.6418 104.929 79.8252 108.837 78.1632C112.746 76.5012 117.635 77.1372 122.585 80.0048V79.9791Z" fill="white"/>
            <path d="M122.514 112.738L125.679 114.569C126.063 114.789 126.428 114.569 126.494 114.112L129.177 95.3785C129.208 95.1368 129.171 94.8915 129.07 94.6696C128.969 94.4478 128.809 94.2581 128.608 94.1217L125.438 92.2903C125.053 92.0698 124.689 92.2903 124.622 92.7469L121.939 111.481C121.911 111.723 121.95 111.968 122.051 112.189C122.152 112.411 122.312 112.6 122.514 112.738Z" fill="white"/>
            <path d="M111.893 106.628L115.063 108.455C115.442 108.675 115.812 108.455 115.879 107.998L118.561 89.2643C118.59 89.0223 118.551 88.7773 118.45 88.5557C118.348 88.3341 118.188 88.1445 117.987 88.0075L114.822 86.1813C114.437 85.9556 114.073 86.1813 114.001 86.6327L111.323 105.367C111.294 105.609 111.331 105.855 111.431 106.077C111.532 106.3 111.691 106.49 111.893 106.628Z" fill="white"/>
        </g>
        <path d="M205.416 208.701H228.5L226.115 218.643C225.935 219.843 225.053 221.013 223.463 221.931C219.872 223.983 214.05 223.983 210.464 221.931C208.75 220.946 207.863 219.663 207.786 218.371L205.416 208.701Z" fill="#37474F"/>
        <path d="M208.232 215.513C207.743 215.234 207.279 214.911 206.847 214.549L205.55 209.235C206.221 209.977 207.009 210.604 207.884 211.092C212.752 213.903 220.559 213.975 225.591 211.322L225.007 208.953L225.186 208.701H228.5L226.115 218.637C225.935 219.838 225.053 221.007 223.463 221.926C220.898 223.403 217.22 223.824 214.008 223.193C219.764 223.624 223.709 221.11 224.299 218.791C224.535 217.868 224.95 215.821 224.95 215.821C220.139 218.258 212.823 218.16 208.232 215.513Z" fill="#263238"/>
        <path d="M204.216 205.756C204.347 206.401 204.609 207.012 204.986 207.551C205.743 208.617 206.735 209.494 207.884 210.116C212.896 213.009 221.021 213.009 226.033 210.116C227.181 209.494 228.171 208.617 228.926 207.551C229.303 207.012 229.565 206.401 229.696 205.756C230.142 203.586 228.916 201.319 226.028 199.646C221.016 196.753 212.891 196.753 207.879 199.646C204.996 201.319 203.77 203.586 204.216 205.756Z" fill="#455A64"/>
        <path d="M204.985 207.551C205.743 208.617 206.734 209.494 207.884 210.116C212.895 213.009 221.021 213.009 226.033 210.116C227.181 209.494 228.171 208.617 228.926 207.551C229.302 207.012 229.564 206.401 229.695 205.756L229.131 209.69C228.869 211.265 227.695 212.799 225.602 214.005C220.826 216.759 213.085 216.759 208.309 214.005C206.258 212.814 205.078 211.301 204.796 209.747L204.765 209.547L204.216 205.776C204.35 206.414 204.611 207.018 204.985 207.551Z" fill="#37474F"/>
        <path d="M209.399 200.519C213.574 198.108 220.346 198.108 224.521 200.519C226.881 201.889 227.907 203.73 227.599 205.51C227.358 206.875 226.332 208.204 224.521 209.25C220.346 211.661 213.574 211.661 209.399 209.25C207.588 208.224 206.562 206.875 206.321 205.51C206.008 203.73 207.034 201.889 209.399 200.519Z" fill="#263238"/>
        <path d="M226.891 207.161C226.264 208.024 225.455 208.737 224.521 209.249C220.345 211.66 213.574 211.66 209.398 209.249C208.461 208.738 207.65 208.025 207.023 207.161C207.054 205.715 208.049 204.278 209.932 203.175C213.815 200.934 220.104 200.934 223.982 203.175C225.901 204.278 226.86 205.72 226.891 207.161Z" fill="#FAFAFA"/>
        <path d="M207.024 162.148L215.17 169.134L207.188 165.061C207.104 167.69 207.48 170.314 208.301 172.812C210.473 174.226 212.532 175.808 214.457 177.542L208.301 174.839C208.301 174.839 207.717 178.943 209.184 185.257C209.563 186.914 211.287 190.115 212.359 192.5C212.85 193.602 213.414 194.669 214.047 195.696C214.083 195.763 214.124 195.825 214.165 195.891C215.622 195.132 217.133 194.4 218.699 193.696C219.782 191.644 221.264 186.478 221.926 182.236C224.363 166.005 212.4 156.187 202.612 152.668C202.612 152.668 205.849 157.069 207.024 162.148Z" fill="url(#paint13_linear_2_584)"/>
        <path opacity="0.45" d="M207.024 162.148L215.17 169.134L207.188 165.061C207.104 167.69 207.48 170.314 208.301 172.812C210.473 174.226 212.532 175.808 214.457 177.542L208.301 174.839C208.301 174.839 207.717 178.943 209.184 185.257C209.563 186.914 211.287 190.115 212.359 192.5C212.85 193.602 213.414 194.669 214.047 195.696C214.083 195.763 214.124 195.825 214.165 195.891C215.622 195.132 217.133 194.4 218.699 193.696C219.782 191.644 221.264 186.478 221.926 182.236C224.363 166.005 212.4 156.187 202.612 152.668C202.612 152.668 205.849 157.069 207.024 162.148Z" fill="white"/>
        <path d="M214.025 163.097C215.672 164.887 216.59 167.2 217.267 169.499C217.934 171.816 218.344 174.201 218.488 176.608C218.831 181.427 218.032 186.259 216.154 190.71C216.129 190.768 216.128 190.833 216.151 190.892C216.174 190.951 216.219 190.998 216.277 191.023C216.335 191.048 216.4 191.049 216.459 191.026C216.518 191.003 216.565 190.958 216.59 190.9C218.421 186.367 219.151 181.463 218.719 176.593C218.533 174.175 218.084 171.784 217.38 169.463C216.667 167.165 215.703 164.861 214.025 163.097Z" fill="white"/>
        <path d="M242.137 168.534C241.962 168.837 239.11 173.772 235.232 183.077L226.547 186.093H233.334L230.769 192.316L222.31 195.691L229.364 195.594C229.364 195.594 228.645 202.626 224.234 206.284C221.797 208.305 220.643 208.551 219.561 208.146C218.263 207.633 217.365 205.827 216.38 203.047C215.395 200.267 215.354 194.301 217.078 188.202C217.549 186.572 218.251 185.017 219.161 183.585C224.393 175.182 236.053 169.524 242.137 168.534Z" fill="url(#paint14_linear_2_584)"/>
        <path opacity="0.35" d="M242.137 168.534C241.962 168.837 239.11 173.772 235.232 183.077L226.547 186.093H233.334L230.769 192.316L222.31 195.691L229.364 195.594C229.364 195.594 228.645 202.626 224.234 206.284C221.797 208.305 220.643 208.551 219.561 208.146C218.263 207.633 217.365 205.827 216.38 203.047C215.395 200.267 215.354 194.301 217.078 188.202C217.549 186.572 218.251 185.017 219.161 183.585C224.393 175.182 236.053 169.524 242.137 168.534Z" fill="white"/>
        <path d="M186.683 171.566C187.58 171.552 188.478 171.593 189.371 171.689C192.891 172.095 196.348 172.936 199.661 174.193C200.892 174.649 202.123 175.172 203.339 175.731C203.944 176.024 204.545 176.327 205.14 176.65C208.082 178.188 210.747 180.208 213.024 182.626C214.082 183.78 214.993 185.06 215.738 186.437C215.83 186.617 215.933 186.791 216.025 186.95C216.256 187.422 216.461 187.884 216.656 188.34C218.928 193.47 219.123 197.061 218.98 201.001C218.867 204.078 217.826 207.577 217.225 208.151C217.144 208.228 217.055 208.295 216.959 208.352C216.087 208.906 214.691 208.582 212.096 207.131C206.884 204.237 204.837 196.866 204.837 196.866L212.08 195.64L202.78 193.788L199.004 187.894L205.955 186.607L196.506 185.155C190.781 176.347 186.914 171.853 186.698 171.576L186.683 171.566Z" fill="url(#paint15_linear_2_584)"/>
        <path opacity="0.35" d="M186.683 171.566C187.58 171.552 188.478 171.593 189.371 171.689C192.891 172.095 196.348 172.936 199.661 174.193C200.892 174.649 202.123 175.172 203.339 175.731C203.944 176.024 204.545 176.327 205.14 176.65C208.082 178.188 210.747 180.208 213.024 182.626C214.082 183.78 214.993 185.06 215.738 186.437C215.83 186.617 215.933 186.791 216.025 186.95C216.256 187.422 216.461 187.884 216.656 188.34C218.928 193.47 219.123 197.061 218.98 201.001C218.867 204.078 217.826 207.577 217.225 208.151C217.144 208.228 217.055 208.295 216.959 208.352C216.087 208.906 214.691 208.582 212.096 207.131C206.884 204.237 204.837 196.866 204.837 196.866L212.08 195.64L202.78 193.788L199.004 187.894L205.955 186.607L196.506 185.155C190.781 176.347 186.914 171.853 186.698 171.576L186.683 171.566Z" fill="white"/>
        <path opacity="0.35" d="M189.371 171.689C192.891 172.095 196.348 172.936 199.661 174.193C200.892 174.649 202.123 175.172 203.339 175.732C203.944 176.024 204.545 176.327 205.14 176.65C208.082 178.188 210.747 180.208 213.024 182.626C214.082 183.78 214.993 185.06 215.738 186.437C215.83 186.617 215.933 186.791 216.025 186.95C216.256 187.422 216.461 187.884 216.656 188.34C218.928 193.47 219.123 197.061 218.98 201.001C218.867 204.079 217.826 207.577 217.225 208.152C217.144 208.228 217.055 208.295 216.959 208.352C216.782 208.457 216.587 208.528 216.384 208.562C217.025 203.807 214.686 191.741 211.147 186.781C207.433 181.646 198.712 174.162 186.698 171.576C187.591 171.561 188.483 171.599 189.371 171.689Z" fill="white"/>
        <path d="M216.415 208.588C216.642 205.066 216.413 201.53 215.733 198.067C215.095 194.581 213.919 191.217 212.245 188.094C210.46 184.986 207.9 182.452 205.181 180.205C202.417 177.996 199.368 176.168 196.117 174.772C196.111 174.767 196.104 174.765 196.096 174.765C196.089 174.765 196.081 174.767 196.076 174.772C196.071 174.777 196.068 174.784 196.068 174.79C196.068 174.797 196.071 174.804 196.076 174.808C199.171 176.458 202.092 178.413 204.796 180.646C206.152 181.745 207.431 182.937 208.623 184.211C209.84 185.455 210.914 186.832 211.824 188.315C213.525 191.374 214.737 194.68 215.415 198.113C216.171 201.545 216.48 205.061 216.333 208.572C216.333 208.572 216.333 208.572 216.333 208.603C216.334 208.609 216.336 208.614 216.339 208.618C216.342 208.623 216.346 208.627 216.351 208.63C216.36 208.636 216.371 208.639 216.382 208.637C216.393 208.634 216.402 208.628 216.409 208.619C216.415 208.61 216.417 208.599 216.415 208.588Z" fill="white"/>
        <path d="M15.7519 200.724C16.3059 193.116 15.4544 187.284 16.0854 175.398C16.1418 172.356 16.2546 169.094 16.4547 166.19C17.1421 156.444 18.6451 153.104 18.7887 151.222C18.7887 151.222 19.0452 136.048 19.6813 114.708C19.9788 104.669 22.8874 101.633 25.2163 96.3027H52.84C55.9178 109.45 56.8104 138.126 56.7181 151.673C56.6668 158.583 53.8813 195.543 53.8249 196.389C53.6248 199.406 53.8916 200.596 55.0714 201.868C57.5491 204.52 61.1348 207.049 64.2383 209.367C63.7869 210.552 60.0575 210.511 58.2108 209.603C55.7935 208.343 53.4902 206.876 51.3267 205.217C48.7618 203.33 45.5198 201.816 45.4788 198.944C45.4684 198.77 45.4391 198.598 45.3916 198.431C45.3454 196.753 41.4366 172.033 41.1134 166.298C40.8312 161.363 41.4314 152.992 41.4314 152.992L38.251 132.098C38.251 132.098 36.2863 144.451 34.3011 152.879C32.6852 159.747 30.0229 171.459 28.2018 179.907C26.4577 189.654 23.8928 196.564 23.4465 201.452C23.3132 202.612 22 214.03 21.4511 216.647C20.9022 219.263 15.2082 219.329 14.844 214.831C14.6029 211.825 15.6493 202.16 15.7519 200.724Z" fill="#C8856A"/>
        <path d="M38.2508 132.098L40.5746 117.027C40.5746 117.027 49.5722 115.96 52.8398 112.815C52.8398 112.815 48.7361 118.638 42.6163 119.587L40.0514 132.078L41.4056 152.812L38.2508 132.098Z" fill="#F28F8F"/>
        <path d="M69.5156 212.399C69.6747 212.399 69.9311 214.133 69.0796 214.881C68.0998 215.743 65.2118 217.174 61.385 216.723C57.5582 216.272 55.455 215.102 53.9058 213.835C52.3566 212.568 50.1868 210.757 48.4478 210.413C46.8319 210.075 45.0775 209.362 44.5543 208.875C44.0311 208.387 44.0823 206.166 44.0823 206.166L69.5156 212.399Z" fill="#263238"/>
        <path d="M45.3337 197.62C45.3337 197.62 45.0413 197.62 44.9489 198.133C44.8361 198.744 44.7283 200.518 44.4872 201.524C44.1487 202.919 43.9435 205.776 44.1641 206.91C44.3846 208.044 47.0265 208.803 48.7142 209.424C50.6979 210.267 52.5432 211.405 54.1876 212.799C56.0087 214.266 59.8303 215.718 62.3131 215.728C66.1296 215.728 68.5919 214.702 69.3409 213.302C70.2693 211.594 69.5153 210.619 65.1088 208.634C64.2727 208.259 61.3385 206.582 60.3382 205.946C59.2765 205.303 58.2709 204.572 57.3321 203.76C56.8571 203.348 56.405 202.909 55.9779 202.447C55.5335 202.038 55.1531 201.564 54.8493 201.042C54.798 200.929 54.7621 200.79 54.7211 200.672C54.5924 200.34 54.4928 199.996 54.4236 199.646C54.3466 199.282 54.2953 198.754 53.9465 198.538C53.4489 198.338 52.9056 198.28 52.3768 198.369C51.8088 198.414 51.2447 198.499 50.6891 198.626C50.0479 198.779 49.2989 198.841 48.9245 199.451C48.6751 199.945 48.5567 200.494 48.5808 201.047C48.5808 201.303 48.5808 201.56 48.5808 201.816C48.5808 201.924 48.6269 202.124 48.4731 202.078C48.3192 202.032 48.1601 201.657 48.1037 201.524C47.9806 201.242 47.8985 200.934 47.76 200.652C47.6114 200.324 47.4255 200.014 47.206 199.728C46.9994 199.47 46.7636 199.236 46.5032 199.031C46.2426 198.887 45.9908 198.728 45.7492 198.554C45.5208 198.291 45.3761 197.966 45.3337 197.62Z" fill="#37474F"/>
        <path d="M65.7975 208.978C60.2778 209.419 58.5748 212.845 58.3644 214.959C59.626 215.421 60.9514 215.686 62.2938 215.744C66.1104 215.744 68.7317 214.718 69.4755 213.317C70.3527 211.707 69.732 210.419 65.7975 208.978Z" fill="#FAFAFA"/>
        <path d="M57.5167 209.121C57.4532 209.121 57.3916 209.099 57.3423 209.06C57.2872 209.015 57.252 208.951 57.2443 208.881C57.2366 208.811 57.2571 208.74 57.3012 208.685C57.9357 208.007 58.7082 207.473 59.5666 207.119C60.4249 206.765 61.3492 206.6 62.2771 206.633C62.3484 206.641 62.4137 206.677 62.4589 206.732C62.504 206.788 62.5254 206.859 62.5182 206.931C62.5156 206.966 62.506 207 62.4897 207.032C62.4735 207.063 62.451 207.091 62.4236 207.114C62.3963 207.136 62.3647 207.153 62.3306 207.163C62.2966 207.173 62.2609 207.176 62.2258 207.172C61.3897 207.146 60.5575 207.294 59.782 207.608C59.0066 207.922 58.305 208.393 57.7218 208.993C57.7005 209.029 57.6707 209.06 57.635 209.082C57.5993 209.104 57.5587 209.118 57.5167 209.121Z" fill="#F0F0F0"/>
        <path d="M55.1227 207.762C55.0609 207.762 55.001 207.74 54.9534 207.701C54.8973 207.656 54.861 207.592 54.8523 207.52C54.8437 207.449 54.8634 207.378 54.9073 207.321C55.545 206.649 56.3187 206.122 57.1769 205.773C58.035 205.425 58.9576 205.263 59.8831 205.3C59.9211 205.3 59.9587 205.308 59.9935 205.323C60.0283 205.338 60.0595 205.361 60.0851 205.389C60.1107 205.417 60.1302 205.45 60.1422 205.486C60.1543 205.522 60.1586 205.56 60.155 205.598C60.1514 205.636 60.1399 205.672 60.1213 205.705C60.1027 205.738 60.0773 205.767 60.0469 205.79C60.0164 205.813 59.9816 205.829 59.9445 205.837C59.9075 205.845 59.8691 205.846 59.8318 205.839C58.9963 205.811 58.1643 205.959 57.3894 206.272C56.6145 206.586 55.914 207.059 55.333 207.66C55.3076 207.691 55.2756 207.717 55.2392 207.734C55.2029 207.752 55.1631 207.762 55.1227 207.762Z" fill="#F0F0F0"/>
        <path d="M52.8989 206.202C52.8369 206.202 52.7768 206.181 52.7297 206.14C52.6735 206.096 52.6372 206.031 52.6286 205.96C52.6199 205.889 52.6397 205.817 52.6835 205.761C53.3212 205.089 54.095 204.561 54.9531 204.213C55.8112 203.864 56.7339 203.703 57.6593 203.74C57.6947 203.742 57.7292 203.752 57.7607 203.768C57.7922 203.784 57.82 203.807 57.8426 203.834C57.8651 203.861 57.8819 203.893 57.8918 203.927C57.9018 203.961 57.9047 203.997 57.9004 204.032C57.8979 204.067 57.8883 204.102 57.872 204.133C57.8558 204.165 57.8333 204.193 57.8059 204.215C57.7786 204.238 57.747 204.254 57.7129 204.264C57.6789 204.274 57.6432 204.277 57.608 204.273C56.7724 204.248 55.9407 204.397 55.1661 204.712C54.3915 205.026 53.691 205.499 53.1093 206.099C53.083 206.13 53.0508 206.154 53.0146 206.172C52.9785 206.19 52.9391 206.2 52.8989 206.202Z" fill="#F0F0F0"/>
        <path d="M50.7281 204.638C50.6665 204.642 50.6057 204.622 50.5588 204.581C50.5308 204.56 50.5073 204.534 50.4895 204.503C50.4718 204.473 50.4602 204.439 50.4554 204.405C50.4506 204.37 50.4528 204.335 50.4617 204.301C50.4707 204.267 50.4862 204.235 50.5075 204.207C51.5335 202.858 53.9342 201.95 55.9451 202.155C55.9801 202.158 56.0143 202.168 56.0454 202.185C56.0766 202.201 56.1041 202.224 56.1266 202.251C56.149 202.278 56.1658 202.309 56.176 202.343C56.1862 202.377 56.1897 202.412 56.1862 202.447C56.1784 202.518 56.1437 202.583 56.0892 202.629C56.0348 202.675 55.9648 202.698 55.8938 202.694C54.083 202.514 51.8618 203.345 50.9384 204.54C50.9125 204.571 50.8803 204.595 50.844 204.612C50.8077 204.629 50.7681 204.638 50.7281 204.638Z" fill="#F0F0F0"/>
        <path d="M23.2422 218.668C23.0934 221.274 22.6882 223.002 21.7648 224.531C20.8415 226.06 19.0922 226.537 17.3276 226.07C15.563 225.603 13.2956 224.428 12.7929 222.176C12.2902 219.925 11.9875 218.391 12.3928 215.975L23.2422 218.668Z" fill="#263238"/>
        <path d="M15.8164 199.795C15.0879 199.851 14.8725 203.35 14.4519 206.853C14.0004 210.608 12.8822 212.163 12.4769 215.241C12.0204 218.76 12.6 220.334 13.8363 222.458C15.0726 224.582 19.4329 226.675 21.5822 223.628C23.3366 221.145 23.4084 218.39 23.2494 214.876C23.1551 211.908 23.2321 208.936 23.4802 205.976C23.6238 203.34 24.2086 200.682 23.5725 200.39C23.5264 200.78 23.4802 201.267 23.4238 201.647C23.4015 202.123 23.324 202.594 23.1929 203.052C23.116 203.247 22.957 203.452 22.8903 203.134C22.8544 202.919 22.8544 202.699 22.8903 202.483C22.998 201.513 22.5056 201.431 22.2439 201.354C21.1278 201.137 20.0012 200.978 18.8686 200.877C18.3094 200.841 16.3909 200.754 16.1395 201.072C15.9763 201.389 15.8935 201.742 15.8984 202.098C15.8318 202.611 15.7138 203.011 15.6984 202.847C15.6625 202.468 15.7343 201.483 15.7446 201.242C15.7548 201 15.7907 200.729 15.7959 200.477C15.801 200.226 15.801 200.021 15.8164 199.795Z" fill="#37474F"/>
        <path d="M12.2799 217.282C12.148 219.164 12.6246 221.038 13.6393 222.627C14.8756 224.756 19.5898 226.849 21.7392 223.802C22.8113 222.263 23.0986 220.493 23.2422 218.672C21.9546 216.318 14.3113 215.282 12.2799 217.282Z" fill="#FAFAFA"/>
        <path d="M21.6534 214.821C21.6214 214.817 21.5903 214.808 21.561 214.795C21.5302 214.795 18.1651 213.39 14.8924 214.149C14.8317 214.148 14.773 214.127 14.7256 214.09C14.6781 214.052 14.6447 213.999 14.6305 213.94C14.6163 213.881 14.6223 213.819 14.6475 213.764C14.6726 213.709 14.7155 213.664 14.7692 213.636C18.237 212.835 21.6739 214.262 21.8021 214.323C21.8339 214.338 21.8624 214.36 21.8858 214.386C21.9093 214.413 21.9273 214.444 21.9387 214.477C21.9502 214.51 21.9549 214.546 21.9526 214.581C21.9502 214.616 21.941 214.651 21.9252 214.682C21.9001 214.731 21.8604 214.77 21.8116 214.795C21.7628 214.82 21.7075 214.829 21.6534 214.821Z" fill="#F0F0F0"/>
        <path d="M15.0681 211.548C15.017 211.541 14.9689 211.52 14.929 211.487C14.8891 211.455 14.8591 211.412 14.8424 211.363C14.8195 211.295 14.8245 211.221 14.8562 211.156C14.8879 211.092 14.9438 211.043 15.0117 211.019C18.2742 209.916 21.8958 211.573 22.0343 211.645C22.0962 211.68 22.1424 211.737 22.1634 211.805C22.1844 211.872 22.1786 211.946 22.1472 212.009C22.1134 212.072 22.0563 212.119 21.9881 212.14C21.92 212.161 21.8463 212.155 21.7829 212.122C21.7522 212.122 18.2229 210.501 15.1861 211.532C15.1481 211.545 15.1081 211.55 15.0681 211.548Z" fill="#F0F0F0"/>
        <path d="M15.1658 209.075C15.1149 209.07 15.0666 209.051 15.0266 209.019C14.9866 208.987 14.9565 208.944 14.9401 208.896C14.9278 208.863 14.9222 208.828 14.9236 208.793C14.9249 208.757 14.9332 208.723 14.948 208.691C14.9628 208.659 14.9838 208.63 15.0097 208.606C15.0356 208.583 15.066 208.564 15.0991 208.552C18.6899 207.265 22.1269 209.065 22.2551 209.157C22.2857 209.175 22.3123 209.199 22.3336 209.228C22.3548 209.256 22.3702 209.288 22.3788 209.323C22.3874 209.357 22.389 209.393 22.3836 209.428C22.3782 209.463 22.3659 209.497 22.3474 209.527C22.329 209.558 22.3047 209.584 22.2758 209.606C22.247 209.627 22.2142 209.642 22.1794 209.651C22.1446 209.659 22.1085 209.661 22.073 209.656C22.0376 209.65 22.0036 209.638 21.973 209.619C21.973 209.619 18.6232 207.865 15.3043 209.06C15.2598 209.075 15.2125 209.08 15.1658 209.075Z" fill="#F0F0F0"/>
        <path d="M15.3482 206.639C15.2889 206.633 15.2333 206.607 15.1904 206.565C15.1474 206.524 15.1196 206.469 15.1113 206.41C15.1031 206.351 15.1148 206.291 15.1448 206.239C15.1747 206.188 15.221 206.148 15.2764 206.126C18.6415 204.864 22.3452 206.721 22.4837 206.803C22.5452 206.839 22.5899 206.898 22.6082 206.967C22.6264 207.037 22.6167 207.11 22.5811 207.172C22.5636 207.203 22.54 207.23 22.5119 207.252C22.4837 207.274 22.4514 207.29 22.417 207.299C22.3826 207.308 22.3467 207.31 22.3115 207.305C22.2762 207.3 22.2423 207.288 22.2118 207.27C22.181 207.27 18.5902 205.459 15.4662 206.628C15.4283 206.642 15.3878 206.645 15.3482 206.639Z" fill="#EBEBEB"/>
        <path d="M21.6383 96.3906C19.3505 102.931 17.5345 107.066 17.673 124.815C17.8218 143.979 18.1604 147.703 18.0937 149.848C18.027 151.992 16.7753 155.808 15.6827 166.35C14.5901 176.892 15.8828 189.434 15.8828 189.434C15.8828 189.434 16.6368 191.132 20.6688 191.486C24.3879 191.819 26.2295 190.424 26.2295 190.424C26.2295 190.424 31.3284 169.905 32.7391 163.549C34.1498 157.193 38.2484 136.336 38.2484 136.336L40.6799 153.264C40.6799 153.264 39.5463 159.081 40.6799 168.325C41.8136 177.569 43.8091 187.038 43.8091 187.038C45.6457 187.677 47.5792 187.993 49.5236 187.972C51.2822 188.001 53.0153 187.549 54.5354 186.664C54.5354 186.664 57.6953 159.158 57.6953 148.678C57.6953 138.198 56.8079 112.006 53.5094 96.4932L21.6383 96.3906Z" fill="#37474F"/>
        <path d="M52.4671 111.62C50.8871 115.95 45.1367 118.981 42.6128 119.587L39.6427 136.12L40.6687 153.279L38.2372 136.351L41.5561 116.201C41.5561 116.201 48.5736 115.693 52.4671 111.62ZM28.1521 154.084C29.178 148.657 29.8859 143.168 30.5938 137.669C31.3017 132.17 31.9738 126.671 32.7381 121.177C32.4047 126.717 32.0045 132.247 31.4557 137.766C30.9068 143.286 30.2502 148.801 29.2499 154.279C28.2496 159.758 27.1108 165.154 25.972 170.587C24.8332 176.019 23.6482 181.421 22.3811 186.822C23.2224 181.35 24.1338 175.879 25.1153 170.407C26.0797 164.975 27.1159 159.506 28.1521 154.084ZM53.3699 135.617L52.4671 121.161C53.2109 125.937 53.7906 130.739 54.2368 135.525C54.6831 140.311 55.0781 145.194 55.0781 150.078C54.914 154.941 54.5652 159.737 54.1496 164.559C53.7341 169.381 53.2725 174.177 52.7031 178.979C52.8398 174.147 53.0314 169.319 53.2776 164.498L53.6418 157.27C53.7649 154.864 53.9137 152.448 53.9598 150.062C54.006 147.677 53.8572 145.266 53.7495 142.881C53.6418 140.495 53.5033 138.049 53.3699 135.643V135.617Z" fill="#263238"/>
        <path d="M56.6615 71.5617C59.7752 75.8194 65.5975 84.1398 65.5975 84.1398C65.5975 84.1398 80.7508 87.1356 82.2076 86.9202C83.6645 86.7047 87.8503 85.094 89.3174 84.5707C90.1382 84.2732 94.4472 83.6063 95.3449 83.7346C96.2426 83.8628 99.4743 83.9449 100.644 84.1552C101.383 84.2886 101.157 85.4684 100.003 85.8173C99.0999 86.084 97.0736 86.0635 96.1451 86.1353C95.6248 86.1547 95.1084 86.2338 94.6062 86.3713C94.9677 86.5181 95.2769 86.7701 95.4937 87.0946C95.5929 87.259 95.6491 87.4457 95.6572 87.6375C95.6652 87.8294 95.6249 88.0202 95.5398 88.1923C96.1195 88.5412 97.0428 88.9361 96.7145 89.9929C96.6468 90.283 96.5362 90.5614 96.3862 90.8188C96.5323 90.9122 96.6384 91.0566 96.6838 91.224C96.93 92.0448 95.1448 93.7017 94.3651 93.9479C93.8162 94.1274 93.2417 93.9223 92.5543 93.4965C91.9695 93.1323 92.5543 92.6296 92.5543 92.6296L91.6617 92.291C89.1892 92.804 87.9119 95.3688 85.1675 94.8559C84.095 94.5025 82.9927 94.2466 81.8742 94.0915C76.3802 93.5786 67.4545 94.5327 62.0836 93.5221C60.9866 93.3159 59.9899 92.749 59.252 91.9114C55.8099 88.023 48.4128 78.3689 48.4128 78.3689L46.361 64.5186C50.6905 64.8058 52.9629 66.5089 56.6615 71.5617Z" fill="#C8856A"/>
        <path d="M91.648 92.2914C89.1755 92.8044 87.8982 95.3692 85.1538 94.8563C84.0812 94.5028 82.979 94.247 81.8605 94.0919L81.3475 94.0509C81.3475 94.0509 83.5071 93.9996 85.2358 94.0098C85.7389 94.0383 86.2408 93.9355 86.6922 93.7115C87.1437 93.4876 87.5291 93.1503 87.811 92.7325C88.1136 92.3786 88.3547 91.5219 88.9652 91.1936C89.5756 90.8653 91.9609 90.7217 91.9609 90.7217C91.9609 90.7217 90.9093 90.7986 90.7093 91.3578C90.5092 91.9169 90.6888 91.9887 91.648 92.2914Z" fill="#AF6152"/>
        <path d="M94.5798 86.3721C94.0208 86.5631 93.4842 86.8142 92.9794 87.121L95.0312 86.6491L94.5798 86.3721Z" fill="#AF6152"/>
        <path d="M88.0956 86.9209C87.8904 87.2638 87.7939 87.6608 87.8186 88.0597C87.8331 88.1638 87.8699 88.2636 87.9266 88.3521C87.9832 88.4407 88.0584 88.5159 88.1469 88.5727C88.3325 88.6771 88.5451 88.7235 88.7573 88.706C89.5524 88.706 90.3219 88.5162 91.0811 88.4496C91.4595 88.412 91.8397 88.3949 92.2199 88.3983C92.5826 88.3888 92.9446 88.4373 93.292 88.5419C93.4319 88.5783 93.5568 88.6578 93.6489 88.7693C93.741 88.8807 93.7956 89.0183 93.805 89.1626C93.8306 89.3986 93.5742 89.614 93.251 89.7628C92.9075 89.9143 92.5524 90.0378 92.1891 90.1321C91.8274 90.2478 91.4591 90.342 91.0862 90.4143C90.288 90.5051 89.511 90.7306 88.7881 91.0811C88.4542 91.338 88.1955 91.68 88.0392 92.0712C87.8747 92.4102 87.666 92.7258 87.4185 93.0099C86.8554 93.5463 86.1373 93.891 85.3666 93.9948C86.1667 93.9708 86.9358 93.6801 87.5518 93.1689C87.8429 92.8908 88.0887 92.5689 88.2803 92.2148C88.4284 91.887 88.6602 91.604 88.9523 91.394C89.6587 91.1224 90.3992 90.9498 91.1529 90.8811C91.5447 90.8147 91.9318 90.7239 92.3122 90.6092C92.7031 90.5093 93.0856 90.3789 93.4562 90.2193C93.6611 90.1253 93.8485 89.9969 94.0102 89.8397C94.104 89.7469 94.1775 89.6355 94.226 89.5128C94.2746 89.3901 94.2972 89.2586 94.2923 89.1267C94.2784 88.8767 94.1849 88.6376 94.0256 88.4444C93.8654 88.2627 93.6574 88.1294 93.4254 88.0597C93.024 87.9543 92.6086 87.9128 92.1943 87.9366C91.7953 87.9474 91.3975 87.9869 91.0042 88.0546C90.2244 88.1879 89.4652 88.3931 88.7163 88.4855C88.5424 88.5123 88.3645 88.4892 88.2033 88.4188C88.1271 88.3765 88.0612 88.3177 88.0107 88.2467C87.9601 88.1757 87.926 88.0943 87.9109 88.0084C87.8734 87.6359 87.9372 87.2601 88.0956 86.9209Z" fill="#AF6152"/>
        <path d="M96.3867 90.8184C95.8693 91.4213 95.3031 91.9806 94.6939 92.4907C94.5524 92.6143 94.4033 92.7291 94.2476 92.8343C94.0781 92.8663 93.9041 92.8663 93.7346 92.8343C93.3448 92.783 92.9549 92.6958 92.5548 92.624C92.9207 92.7992 93.3042 92.9351 93.6987 93.0293C93.9152 93.0894 94.144 93.0894 94.3605 93.0293C94.5421 92.9217 94.7138 92.7981 94.8735 92.6599C95.494 92.1515 96.0082 91.5257 96.3867 90.8184Z" fill="#AF6152"/>
        <path d="M95.5391 88.1924C95.1444 88.9487 94.7094 89.6833 94.2361 90.393C94.113 90.5521 93.9899 90.7521 93.8411 90.7726C93.6439 90.8139 93.4423 90.8312 93.2409 90.8239C92.8152 90.8239 92.3894 90.7778 91.9585 90.7419C92.3709 90.8824 92.7975 90.977 93.2307 91.024C93.4548 91.0623 93.6837 91.0623 93.9078 91.024C93.9757 91.0089 94.0401 90.9811 94.0976 90.9419C94.1471 90.9048 94.1934 90.8636 94.2361 90.8188C94.313 90.7316 94.3797 90.6444 94.4464 90.5572C94.6936 90.1974 94.9082 89.8163 95.0876 89.4184C95.2772 89.0252 95.4284 88.6146 95.5391 88.1924Z" fill="#AF6152"/>
        <path d="M18.2102 108.456C19.5901 98.4065 21.4009 94.7285 21.719 93.5179C22.5192 90.4657 20.5802 85.0333 20.0364 81.8939C18.8566 75.0508 21.2624 66.8894 22.827 65.4787C22.827 65.4787 24.6327 64.9657 26.1511 64.6785C27.3514 64.4322 28.2799 64.2681 29.865 63.8474C33.8046 62.8215 38.1598 63.6423 39.6731 63.7602C40.4169 63.8167 41.4172 63.6269 42.7509 63.909C43.823 64.1347 46.3417 64.5041 46.3417 64.5041C48.2889 66.1996 49.9319 68.2156 51.1996 70.4648C53.0155 73.5427 54.5391 75.5484 54.6622 82.7762C54.8058 91.2711 55.1034 99.4889 55.3906 108.302C48.4655 112.795 27.3822 113.534 18.2102 108.456Z" fill="#455A64"/>
        <path d="M34.5644 32.3861C36.4573 33.2377 37.278 33.9251 38.9401 32.1655C40.8842 30.5753 43.8082 31.2063 45.2753 33.1505C45.7883 33.7865 46.3013 34.6227 47.0861 34.6176C47.5273 34.6176 48.1121 34.3252 48.902 34.238C49.5169 34.1987 50.1296 34.3418 50.6634 34.6493C51.1973 34.9569 51.6285 35.4151 51.9029 35.9667C52.1492 36.6438 51.9388 37.403 51.8619 38.1263C51.8054 38.4735 51.8464 38.8295 51.9805 39.1547C52.1146 39.4799 52.3363 39.7614 52.6211 39.9679C52.7681 40.0525 52.9321 40.103 53.1012 40.1158C53.2702 40.1286 53.44 40.1033 53.598 40.0418C53.756 39.9802 53.8982 39.8841 54.0141 39.7603C54.13 39.6365 54.2167 39.4884 54.2677 39.3267C54.8782 39.8397 54.8064 40.8656 54.396 41.4658C53.9087 42.2045 52.5698 42.4917 51.749 42.6251C52.1697 42.5482 52.8109 44.323 52.8878 44.6103C53.1108 45.4698 53.0588 46.3776 52.7391 47.206C52.303 48.5346 51.4669 50.3402 52.4364 51.6381C53.17 52.6281 54.7397 52.664 55.7656 51.9664C55.5232 52.9294 54.9514 53.7772 54.1494 54.3628C53.3474 54.9484 52.3657 55.2348 51.3746 55.1725C51.549 55.1725 51.6516 56.9063 51.6618 57.1012C51.6949 57.7445 51.6239 58.3889 51.4515 59.0095C51.113 60.0355 49.9126 60.7075 48.9225 61.0101C47.8435 61.2671 46.7425 61.4217 45.6344 61.4718C44.8929 61.5201 44.1596 61.6544 43.4491 61.8719C42.8028 62.0874 42.218 62.4362 41.5614 62.6568C40.7209 62.9615 39.8535 63.1865 38.9708 63.3288C38.2288 63.4408 37.4735 63.4322 36.7343 63.3031C36.1238 63.1851 35.5647 62.7901 34.9799 62.744C33.2255 62.5644 31.4352 62.6055 30.0246 61.4051C29.2295 60.7228 28.5267 59.8662 27.5777 59.4404C26.444 58.9274 25.1103 58.9839 23.9356 58.5324C23.1854 58.2327 22.5331 57.7307 22.0513 57.0822C21.5694 56.4338 21.277 55.6643 21.2065 54.8595C20.4108 55.0103 19.5875 54.8968 18.8622 54.5364C18.5055 54.351 18.2129 54.0624 18.0226 53.7083C17.8323 53.3542 17.753 52.951 17.7952 52.5512C18.7494 53.2078 20.1498 52.7974 20.8731 51.9048C21.5541 50.9567 21.8858 49.8021 21.8118 48.6372C21.8118 46.9546 21.4425 45.2874 21.4528 43.6049C21.4528 42.1942 21.817 39.973 23.1917 39.1933C24.4793 38.47 26.1106 38.2597 27.1673 37.1414C27.6886 36.4833 28.1071 35.7499 28.4087 34.9664C29.527 32.6683 32.0559 31.2678 34.5644 32.3861Z" fill="#263238"/>
        <path d="M47.5247 44.5537C46.1756 41.9324 44.4776 41.9016 42.5437 41.5066C38.7477 40.7371 37.7525 40.2754 36.0956 38.3877C37.1934 40.9833 34.5567 45.1846 32.8895 45.6463C33.6179 47.7495 33.2281 49.9758 31.3865 50.6427C30.4118 48.4215 28.0009 48.1086 26.7441 49.5244C25.3283 51.1249 25.4565 54.1411 27.3545 55.916C29.4064 57.8243 30.6991 56.2341 30.6991 56.2341L30.853 63.6876C30.853 63.6876 32.433 68.9302 44.098 72.8647C44.4639 71.2567 44.4209 69.5827 43.9728 67.9956C43.5248 66.4085 42.686 64.9591 41.5331 63.7799L41.4716 61.0612C42.7079 61.0304 44.5956 60.7072 45.6934 59.9275C46.6783 59.2247 48.6122 57.8089 48.3557 50.617C48.2377 47.4007 48.0377 45.5386 47.5247 44.5537Z" fill="#C8856A"/>
        <path d="M38.4008 53.9209L42.125 54.7724C42.0816 55.0205 41.9886 55.2573 41.8516 55.4686C41.7145 55.6799 41.5363 55.8614 41.3275 56.0022C41.1186 56.143 40.8836 56.2402 40.6363 56.288C40.3891 56.3359 40.1347 56.3333 39.8884 56.2806C39.3821 56.1583 38.9434 55.8434 38.6656 55.4028C38.3877 54.9621 38.2928 54.4305 38.4008 53.9209Z" fill="#AF6152"/>
        <path d="M40.7891 56.234C40.4957 56.3212 40.1849 56.3318 39.8862 56.2647C39.5348 56.1807 39.2131 56.0019 38.9562 55.7478C38.6993 55.4936 38.5171 55.1738 38.4294 54.8233C38.9207 54.7832 39.4122 54.8976 39.8353 55.1505C40.2583 55.4034 40.5918 55.7822 40.7891 56.234Z" fill="#FFA8A7"/>
        <path d="M40.8292 47.0781L41.8552 52.7208L44.6406 51.5974C43.1838 49.2634 42.1476 47.9604 40.8292 47.0781Z" fill="#AF6152"/>
        <path d="M41.4731 61.0618C38.6261 60.8618 33.7785 60.1282 31.9677 56.8965C32.3432 58.0724 33.0144 59.1322 33.917 59.9743C36.3382 61.9749 41.5039 62.4777 41.5039 62.4777L41.4731 61.0618Z" fill="#AF6152"/>
        <path d="M37.8906 45.5953L35.5822 46.6212C35.4534 46.3062 35.4514 45.9535 35.5767 45.6371C35.7019 45.3206 35.9447 45.0648 36.2542 44.9233C36.4055 44.8572 36.5684 44.8222 36.7334 44.8204C36.8985 44.8186 37.0621 44.8499 37.2148 44.9126C37.3674 44.9753 37.506 45.068 37.6221 45.1853C37.7382 45.3026 37.8295 45.442 37.8906 45.5953Z" fill="#263238"/>
        <path d="M46.703 45.7596L44.2869 44.9902C44.3292 44.8316 44.4032 44.6833 44.5043 44.5541C44.6055 44.4248 44.7318 44.3175 44.8756 44.2384C45.0194 44.1593 45.1777 44.1101 45.341 44.0939C45.5043 44.0776 45.6692 44.0946 45.8258 44.1438C46.1521 44.248 46.4256 44.4744 46.589 44.7754C46.7525 45.0765 46.7933 45.4291 46.703 45.7596Z" fill="#263238"/>
        <path d="M38.7788 48.401C38.7924 48.5941 38.7486 48.7869 38.6528 48.9551C38.5569 49.1232 38.4135 49.2593 38.2404 49.346C38.0674 49.4327 37.8725 49.4662 37.6804 49.4423C37.4884 49.4184 37.3077 49.3381 37.1611 49.2116C37.0146 49.0851 36.9089 48.9181 36.8572 48.7315C36.8056 48.545 36.8103 48.3473 36.8709 48.1635C36.9314 47.9797 37.0451 47.8179 37.1975 47.6985C37.3499 47.5792 37.5342 47.5077 37.7272 47.4931C37.856 47.4833 37.9854 47.499 38.108 47.5394C38.2306 47.5798 38.344 47.644 38.4418 47.7284C38.5395 47.8128 38.6196 47.9156 38.6774 48.0311C38.7353 48.1465 38.7697 48.2722 38.7788 48.401Z" fill="#263238"/>
        <path d="M46.392 47.7551C46.406 47.9493 46.3619 48.1433 46.2652 48.3123C46.1685 48.4813 46.0236 48.6177 45.849 48.704C45.6745 48.7903 45.4782 48.8227 45.2852 48.7969C45.0922 48.7712 44.9112 48.6885 44.7654 48.5595C44.6196 48.4304 44.5155 48.2608 44.4665 48.0724C44.4175 47.884 44.4257 47.6852 44.4902 47.5014C44.5546 47.3177 44.6724 47.1573 44.8284 47.0408C44.9844 46.9243 45.1716 46.8569 45.366 46.8472C45.6221 46.8331 45.8734 46.9205 46.0655 47.0905C46.2575 47.2604 46.3748 47.4993 46.392 47.7551Z" fill="#263238"/>
        <path d="M18.9019 116.576C17.2707 117.197 14.952 115.304 14.2852 114.632C13.6183 113.96 14.239 112.175 14.4698 110.697C14.7007 109.22 14.1108 106.799 15.978 107.327C17.8452 107.855 22.0465 112.37 18.9019 116.576Z" fill="#AF6152"/>
        <path d="M22.8317 65.499C18.7279 66.4583 17.0248 66.2736 13.7418 72.6807C10.6639 78.6568 5.30337 88.9266 4.34923 91.4658C3.14374 94.6668 2.63077 95.7953 5.60089 99.2425C8.31966 102.397 17.4916 110.641 18.7228 111.836C19.8103 112.893 19.5538 116.222 16.1066 116.032C16.1066 116.032 18.8972 118.084 20.2976 117.72C21.5031 117.392 23.3396 116.15 24.7861 112.272C25.6992 109.825 24.6066 108.061 22.6778 105.603C20.3745 102.659 14.4394 94.2513 14.4394 94.2513L22.2161 81.9091C23.3879 80.063 24.191 78.0075 24.581 75.856C25.1914 72.4755 25.4427 67.7869 22.8317 65.499Z" fill="#C8856A"/>
        <path d="M37.7398 19.8906L32.7537 22.8146L34.7338 27.3288C34.7709 27.4199 34.8378 27.4959 34.9236 27.5442L36.6369 28.5702C36.6968 28.6048 36.7637 28.6254 36.8327 28.6304C36.9017 28.6354 36.971 28.6246 37.0352 28.5989C37.0994 28.5732 37.157 28.5333 37.2035 28.4821C37.25 28.4309 37.2843 28.3698 37.3038 28.3034L39.4531 20.9166L37.7398 19.8906Z" fill="url(#paint16_linear_2_584)"/>
        <path opacity="0.15" d="M37.7398 19.8906L32.7537 22.8146L34.7338 27.3288C34.7709 27.4199 34.8378 27.4959 34.9236 27.5442L36.6369 28.5702C36.6968 28.6048 36.7637 28.6254 36.8327 28.6304C36.9017 28.6354 36.971 28.6246 37.0352 28.5989C37.0994 28.5732 37.157 28.5333 37.2035 28.4821C37.25 28.4309 37.2843 28.3698 37.3038 28.3034L39.4531 20.9166L37.7398 19.8906Z" fill="black"/>
        <path d="M34.467 23.8041L36.4471 28.3183C36.4848 28.4042 36.548 28.4764 36.6282 28.5251C36.7084 28.5738 36.8016 28.5966 36.8952 28.5905C36.9888 28.5843 37.0783 28.5495 37.1514 28.4907C37.2245 28.4318 37.2777 28.352 37.3038 28.2618L39.4531 20.875L34.467 23.8041Z" fill="url(#paint17_linear_2_584)"/>
        <path d="M48.4133 0.909868L19.9535 17.3251C19.8138 17.4133 19.6974 17.534 19.6143 17.6769C19.5313 17.8198 19.484 17.9807 19.4765 18.1458V30.9291C19.4848 31.0934 19.5325 31.2532 19.6155 31.3951C19.6985 31.5371 19.8144 31.657 19.9535 31.7448L21.631 32.7143C21.7774 32.7907 21.9402 32.8306 22.1054 32.8306C22.2707 32.8306 22.4335 32.7907 22.58 32.7143L51.0398 16.2991C51.1786 16.2103 51.2939 16.0893 51.3761 15.9464C51.4582 15.8036 51.5048 15.643 51.5117 15.4783V2.64885C51.5039 2.48508 51.457 2.32556 51.3749 2.18365C51.2928 2.04174 51.1779 1.92157 51.0398 1.83322L49.347 0.884219C49.1996 0.817424 49.0389 0.785021 48.8772 0.789465C48.7155 0.793909 48.5568 0.835081 48.4133 0.909868Z" fill="url(#paint18_linear_2_584)"/>
        <path opacity="0.3" d="M51.4922 2.56192C51.4563 2.32595 51.2613 2.23875 51.0254 2.37725L22.5655 18.7924C22.4261 18.8802 22.3114 19.002 22.2321 19.1464L19.5954 17.6382C19.6762 17.5021 19.7888 17.3876 19.9237 17.3048L48.4143 0.910143C48.5618 0.836927 48.7242 0.798828 48.8888 0.798828C49.0535 0.798828 49.2159 0.836927 49.3633 0.910143L51.0562 1.85915C51.1736 1.93962 51.2731 2.04366 51.3481 2.16465C51.4232 2.28564 51.4723 2.42094 51.4922 2.56192Z" fill="white"/>
        <path d="M22.108 32.4167V19.6283C22.1158 19.4645 22.1627 19.305 22.2448 19.163C22.3269 19.0211 22.4418 18.901 22.58 18.8126L51.0398 2.39744C51.3014 2.24354 51.5117 2.36666 51.5117 2.66931V15.4373C51.5048 15.6019 51.4582 15.7625 51.3761 15.9053C51.2939 16.0482 51.1786 16.1692 51.0398 16.258L22.58 32.6732C22.3183 32.8425 22.108 32.7142 22.108 32.4167Z" fill="url(#paint19_linear_2_584)"/>
        <path opacity="0.15" d="M22.5781 32.7143C22.4307 32.7875 22.2683 32.8256 22.1036 32.8256C21.939 32.8256 21.7766 32.7875 21.6291 32.7143L19.9363 31.7653C19.7979 31.678 19.6824 31.5589 19.5994 31.4179C19.5164 31.2769 19.4684 31.1181 19.4592 30.9548V18.1458C19.4622 17.9639 19.5154 17.7863 19.6131 17.6328L22.2498 19.1666C22.1638 19.3056 22.116 19.4649 22.1113 19.6283V32.4167C22.1062 32.7143 22.3011 32.8528 22.5781 32.7143Z" fill="black"/>
        <path d="M46.7346 7.75786C46.1097 8.11823 45.6034 8.65304 45.2778 9.29679C44.9201 10.0071 44.7439 10.7948 44.7648 11.5898C44.7648 12.467 44.9341 13.0364 45.2778 13.298C45.6215 13.5596 46.1088 13.5083 46.7346 13.1492L47.976 12.4311V15.0934C47.9731 15.1275 47.977 15.1619 47.9876 15.1945C47.9982 15.2271 48.0152 15.2573 48.0376 15.2832C48.0573 15.3009 48.0829 15.3106 48.1094 15.3106C48.1359 15.3106 48.1615 15.3009 48.1812 15.2832L48.8122 14.919C48.8791 14.876 48.9311 14.8132 48.9609 14.7394C49.0006 14.6579 49.0217 14.5685 49.0225 14.4778V6.78321C49.0254 6.74907 49.0215 6.71468 49.0109 6.68208C49.0004 6.64948 48.9834 6.61933 48.9609 6.59341C48.9404 6.57537 48.9139 6.56543 48.8865 6.56543C48.8592 6.56543 48.8328 6.57537 48.8122 6.59341L46.7346 7.75786ZM47.976 10.9178L46.7757 11.6154C46.6762 11.6913 46.5606 11.7432 46.4378 11.7672C46.3151 11.7912 46.1885 11.7867 46.0678 11.7539C45.8933 11.6719 45.8061 11.4102 45.8061 10.9691C45.7884 10.5924 45.8792 10.2185 46.0678 9.89184C46.2456 9.61497 46.4887 9.38599 46.7757 9.22497L47.976 8.53245V10.9178Z" fill="white"/>
        <path d="M41.6879 10.6568C41.6049 10.7047 41.54 10.7786 41.5032 10.8671C41.4534 10.984 41.4172 11.1062 41.3955 11.2313L39.4974 19.8903C39.4946 19.9193 39.4946 19.9485 39.4974 19.9775C39.4939 20.0121 39.498 20.0471 39.5096 20.0799C39.5211 20.1127 39.5397 20.1426 39.5641 20.1673C39.5839 20.185 39.6095 20.1948 39.636 20.1948C39.6625 20.1948 39.688 20.185 39.7078 20.1673L40.2669 19.8442C40.3618 19.7949 40.4376 19.7155 40.4824 19.6184C40.5196 19.5395 40.5488 19.457 40.5696 19.3722L40.903 17.8333L43.3499 16.4226L43.6833 17.5512C43.6991 17.6074 43.7291 17.6587 43.7705 17.6999C43.8116 17.7461 43.8834 17.7358 43.986 17.6999L44.5451 17.3767C44.611 17.3325 44.6627 17.2702 44.6939 17.1972C44.7342 17.114 44.7552 17.0229 44.7554 16.9305C44.7586 16.9049 44.7586 16.8791 44.7554 16.8535L42.8574 10.4105C42.8413 10.3227 42.8043 10.2401 42.7497 10.1694C42.7087 10.1233 42.6471 10.1284 42.565 10.1694L41.6879 10.6568ZM41.2621 16.1405L42.1188 12.247L42.9703 15.1556L41.2621 16.1405Z" fill="white"/>
        <path d="M34.7084 14.7038C34.6431 14.7474 34.593 14.8101 34.5648 14.8833C34.5251 14.9649 34.5041 15.0543 34.5032 15.145V20.0387C34.4951 20.4602 34.5417 20.8809 34.6417 21.2904C34.7072 21.5846 34.8507 21.8557 35.0572 22.0752C35.1499 22.1637 35.2594 22.2324 35.3793 22.2774C35.4992 22.3223 35.627 22.3426 35.7549 22.3369C36.1006 22.3111 36.4342 22.1981 36.7244 22.0086C37.0916 21.8 37.4211 21.5313 37.6991 21.2134C37.9799 20.8947 38.2131 20.5371 38.3916 20.1516C38.5796 19.7489 38.7191 19.3253 38.8071 18.8897C38.8966 18.4231 38.9413 17.949 38.9405 17.4739V12.5801C38.9434 12.5459 38.9395 12.5116 38.9289 12.479C38.9183 12.4464 38.9013 12.4162 38.8789 12.3903C38.8583 12.3722 38.8319 12.3623 38.8045 12.3623C38.7772 12.3623 38.7507 12.3722 38.7301 12.3903L38.1043 12.7545C38.0373 12.7975 37.9854 12.8602 37.9555 12.934C37.9158 13.0156 37.8948 13.105 37.894 13.1957V18.0279C37.8978 18.3241 37.8703 18.6198 37.8119 18.9102C37.762 19.1555 37.681 19.3934 37.5708 19.6181C37.4721 19.8067 37.3459 19.9796 37.1964 20.1311C37.0559 20.2758 36.8973 20.4017 36.7244 20.5055C36.579 20.5947 36.4164 20.6523 36.2473 20.6748C36.1812 20.6859 36.1135 20.6825 36.0488 20.6648C35.9841 20.6471 35.9241 20.6155 35.8729 20.5722C35.7532 20.4557 35.668 20.3083 35.6266 20.1465C35.5634 19.895 35.5341 19.6362 35.5394 19.377V14.5448C35.5424 14.5106 35.5384 14.4762 35.5279 14.4436C35.5173 14.411 35.5003 14.3809 35.4779 14.355C35.4578 14.3358 35.4312 14.3252 35.4035 14.3252C35.3758 14.3252 35.3492 14.3358 35.3291 14.355L34.7084 14.7038Z" fill="white"/>
        <path d="M31.4842 16.4526C31.1409 16.6486 30.8324 16.8999 30.5711 17.1964C30.3148 17.4751 30.0926 17.7834 29.9093 18.1146C29.7417 18.4118 29.6075 18.7266 29.5092 19.0534C29.4287 19.3204 29.3787 19.5958 29.3604 19.8741C29.3543 19.9096 29.3562 19.9459 29.366 19.9806C29.3758 20.0152 29.3931 20.0472 29.4169 20.0742C29.4391 20.0909 29.4661 20.0999 29.4938 20.0999C29.5216 20.0999 29.5486 20.0909 29.5708 20.0742L30.1094 19.7613C30.1921 19.7175 30.2613 19.6518 30.3094 19.5715C30.3586 19.4836 30.3981 19.3908 30.4274 19.2945C30.5118 19.0383 30.6309 18.795 30.7814 18.5712C30.964 18.311 31.2046 18.0967 31.4842 17.9454C31.6033 17.8725 31.7331 17.8189 31.8689 17.7863C31.973 17.7577 32.0828 17.7577 32.1869 17.7863C32.2764 17.8189 32.3511 17.8826 32.3973 17.9659C32.4536 18.0769 32.4801 18.2006 32.4742 18.325C32.481 18.4989 32.4567 18.6726 32.4024 18.8379C32.3432 18.9966 32.2602 19.1454 32.1562 19.2791C32.0147 19.4609 31.8604 19.6323 31.6945 19.7921C31.4995 19.9767 31.2636 20.1973 30.9814 20.4538C30.6934 20.7111 30.4242 20.9888 30.1761 21.2848C29.9646 21.5364 29.7806 21.8098 29.6272 22.1005C29.4875 22.3723 29.3807 22.6599 29.3091 22.9571C29.2404 23.2636 29.206 23.5767 29.2065 23.8907C29.1979 24.2006 29.2501 24.5091 29.3604 24.7987C29.4453 25.0147 29.6008 25.1955 29.8016 25.3117C30.018 25.4282 30.2676 25.468 30.5095 25.4245C30.8413 25.3734 31.1591 25.2547 31.4431 25.0757C31.747 24.8993 32.0264 24.6837 32.2741 24.4345C32.8137 23.9065 33.2229 23.2602 33.4694 22.5467C33.589 22.1991 33.6598 21.8366 33.6797 21.4695C33.6797 21.372 33.6797 21.3053 33.6181 21.2746C33.5967 21.2583 33.5706 21.2496 33.5438 21.2496C33.5169 21.2496 33.4908 21.2583 33.4694 21.2746L32.9256 21.5875C32.8439 21.6327 32.775 21.698 32.7256 21.7773C32.6713 21.8644 32.6315 21.9596 32.6076 22.0594C32.5717 22.1825 32.5255 22.3108 32.4742 22.4441C32.4212 22.5833 32.3524 22.7158 32.269 22.8391C32.1712 22.9799 32.0595 23.1105 31.9356 23.229C31.7821 23.3719 31.6094 23.4927 31.4226 23.5881C31.2822 23.6734 31.1325 23.7422 30.9763 23.7933C30.8557 23.8405 30.7246 23.8546 30.5967 23.8343C30.4909 23.8168 30.3957 23.76 30.33 23.6753C30.254 23.5564 30.2197 23.4157 30.2325 23.2752C30.2284 23.0982 30.2653 22.9226 30.3402 22.7622C30.4252 22.5877 30.5359 22.4269 30.6685 22.2851C30.8414 22.0956 31.0246 21.9157 31.2174 21.7465C31.4329 21.5464 31.6842 21.3105 31.9664 21.0386C32.2099 20.8111 32.4362 20.566 32.6435 20.305C32.8321 20.0708 32.9939 19.8162 33.1257 19.5458C33.2541 19.2782 33.3489 18.9956 33.4078 18.7046C33.472 18.3837 33.5029 18.0571 33.5001 17.7299C33.5094 17.4217 33.4571 17.1148 33.3463 16.8271C33.2612 16.6159 33.1124 16.4366 32.9205 16.3141C32.7256 16.1997 32.4984 16.1528 32.2741 16.1807C31.9941 16.2124 31.7244 16.3052 31.4842 16.4526Z" fill="white"/>
        <path d="M24.692 27.3432C24.6268 27.3868 24.5766 27.4495 24.5484 27.5228C24.5087 27.6043 24.4877 27.6937 24.4868 27.7844V28.6103C24.4835 28.6452 24.4872 28.6805 24.4978 28.714C24.5084 28.7475 24.5256 28.7785 24.5484 28.8052C24.5686 28.8219 24.594 28.831 24.6202 28.831C24.6464 28.831 24.6718 28.8219 24.692 28.8052L28.0982 26.8405C28.1624 26.7958 28.2123 26.7334 28.2418 26.661C28.2816 26.5776 28.3026 26.4866 28.3034 26.3942V18.6996C28.3069 18.6654 28.3033 18.6309 28.2927 18.5982C28.2821 18.5655 28.2648 18.5354 28.2418 18.5098C28.2226 18.491 28.1969 18.4805 28.17 18.4805C28.1432 18.4805 28.1174 18.491 28.0982 18.5098L24.7536 20.4386C24.6896 20.4835 24.6398 20.5458 24.61 20.6181C24.5703 20.6997 24.5492 20.789 24.5484 20.8797V21.7364C24.5449 21.7706 24.5485 21.8051 24.5591 21.8378C24.5697 21.8705 24.587 21.9006 24.61 21.9262C24.6291 21.945 24.6549 21.9555 24.6818 21.9555C24.7086 21.9555 24.7344 21.945 24.7536 21.9262L27.2569 20.4848V22.3776L24.928 23.7268C24.861 23.7698 24.8091 23.8325 24.7792 23.9063C24.7395 23.9878 24.7185 24.0772 24.7177 24.1679V25.0194C24.7143 25.0544 24.7181 25.0897 24.7286 25.1232C24.7392 25.1567 24.7564 25.1877 24.7792 25.2144C24.8006 25.2306 24.8268 25.2394 24.8536 25.2394C24.8805 25.2394 24.9066 25.2306 24.928 25.2144L27.2569 23.8653V25.8453L24.692 27.3432Z" fill="white"/>
    </g>
    <defs>
        <linearGradient id="paint0_linear_2_584" x1="49.0242" y1="130.674" x2="225.575" y2="130.301" gradientUnits="userSpaceOnUse">
            <stop stop-color="#6B49FC"/>
            <stop offset="0.830081" stop-color="#DE85FF"/>
            <stop offset="1" stop-color="#E26FF1"/>
        </linearGradient>
        <linearGradient id="paint1_linear_2_584" x1="60.1417" y1="125.18" x2="223.36" y2="124.812" gradientUnits="userSpaceOnUse">
            <stop stop-color="#6B49FC"/>
            <stop offset="0.830081" stop-color="#DE85FF"/>
            <stop offset="1" stop-color="#E26FF1"/>
        </linearGradient>
        <linearGradient id="paint2_linear_2_584" x1="48.1801" y1="158.809" x2="224.052" y2="158.235" gradientUnits="userSpaceOnUse">
            <stop stop-color="#6B49FC"/>
            <stop offset="0.830081" stop-color="#DE85FF"/>
            <stop offset="1" stop-color="#E26FF1"/>
        </linearGradient>
        <linearGradient id="paint3_linear_2_584" x1="48.5181" y1="104.122" x2="213.752" y2="103.875" gradientUnits="userSpaceOnUse">
            <stop stop-color="#6B49FC"/>
            <stop offset="0.830081" stop-color="#DE85FF"/>
            <stop offset="1" stop-color="#E26FF1"/>
        </linearGradient>
        <linearGradient id="paint4_linear_2_584" x1="63.9428" y1="141.619" x2="185.424" y2="141.364" gradientUnits="userSpaceOnUse">
            <stop stop-color="#6B49FC"/>
            <stop offset="0.830081" stop-color="#DE85FF"/>
            <stop offset="1" stop-color="#E26FF1"/>
        </linearGradient>
        <linearGradient id="paint5_linear_2_584" x1="107.989" y1="96.5452" x2="119.713" y2="96.5305" gradientUnits="userSpaceOnUse">
            <stop stop-color="#6B49FC"/>
            <stop offset="0.830081" stop-color="#DE85FF"/>
            <stop offset="1" stop-color="#E26FF1"/>
        </linearGradient>
        <linearGradient id="paint6_linear_2_584" x1="59.3797" y1="45.5467" x2="190.523" y2="45.149" gradientUnits="userSpaceOnUse">
            <stop stop-color="#6B49FC"/>
            <stop offset="0.830081" stop-color="#DE85FF"/>
            <stop offset="1" stop-color="#E26FF1"/>
        </linearGradient>
        <linearGradient id="paint7_linear_2_584" x1="58.1707" y1="46.3315" x2="187.423" y2="45.938" gradientUnits="userSpaceOnUse">
            <stop stop-color="#6B49FC"/>
            <stop offset="0.830081" stop-color="#DE85FF"/>
            <stop offset="1" stop-color="#E26FF1"/>
        </linearGradient>
        <linearGradient id="paint8_linear_2_584" x1="45.3252" y1="135.224" x2="175.005" y2="134.843" gradientUnits="userSpaceOnUse">
            <stop stop-color="#6B49FC"/>
            <stop offset="0.830081" stop-color="#DE85FF"/>
            <stop offset="1" stop-color="#E26FF1"/>
        </linearGradient>
        <linearGradient id="paint9_linear_2_584" x1="165.447" y1="173.243" x2="171.227" y2="173.237" gradientUnits="userSpaceOnUse">
            <stop stop-color="#6B49FC"/>
            <stop offset="0.830081" stop-color="#DE85FF"/>
            <stop offset="1" stop-color="#E26FF1"/>
        </linearGradient>
        <linearGradient id="paint10_linear_2_584" x1="93.1792" y1="93.7333" x2="144.302" y2="93.6516" gradientUnits="userSpaceOnUse">
            <stop stop-color="#6B49FC"/>
            <stop offset="0.830081" stop-color="#DE85FF"/>
            <stop offset="1" stop-color="#E26FF1"/>
        </linearGradient>
        <linearGradient id="paint11_linear_2_584" x1="120.93" y1="100.502" x2="129.666" y2="100.497" gradientUnits="userSpaceOnUse">
            <stop stop-color="#6B49FC"/>
            <stop offset="0.830081" stop-color="#DE85FF"/>
            <stop offset="1" stop-color="#E26FF1"/>
        </linearGradient>
        <linearGradient id="paint12_linear_2_584" x1="110.313" y1="94.3895" x2="119.049" y2="94.3842" gradientUnits="userSpaceOnUse">
            <stop stop-color="#6B49FC"/>
            <stop offset="0.830081" stop-color="#DE85FF"/>
            <stop offset="1" stop-color="#E26FF1"/>
        </linearGradient>
        <linearGradient id="paint13_linear_2_584" x1="199.906" y1="168.643" x2="223.542" y2="168.623" gradientUnits="userSpaceOnUse">
            <stop stop-color="#6B49FC"/>
            <stop offset="0.830081" stop-color="#DE85FF"/>
            <stop offset="1" stop-color="#E26FF1"/>
        </linearGradient>
        <linearGradient id="paint14_linear_2_584" x1="212.054" y1="183.235" x2="243.881" y2="183.195" gradientUnits="userSpaceOnUse">
            <stop stop-color="#6B49FC"/>
            <stop offset="0.830081" stop-color="#DE85FF"/>
            <stop offset="1" stop-color="#E26FF1"/>
        </linearGradient>
        <linearGradient id="paint15_linear_2_584" x1="182.226" y1="185.254" x2="221.149" y2="185.19" gradientUnits="userSpaceOnUse">
            <stop stop-color="#6B49FC"/>
            <stop offset="0.830081" stop-color="#DE85FF"/>
            <stop offset="1" stop-color="#E26FF1"/>
        </linearGradient>
        <linearGradient id="paint16_linear_2_584" x1="31.8302" y1="23.1212" x2="39.8952" y2="23.1096" gradientUnits="userSpaceOnUse">
            <stop stop-color="#6B49FC"/>
            <stop offset="0.830081" stop-color="#DE85FF"/>
            <stop offset="1" stop-color="#E26FF1"/>
        </linearGradient>
        <linearGradient id="paint17_linear_2_584" x1="33.7797" y1="23.727" x2="39.7821" y2="23.7197" gradientUnits="userSpaceOnUse">
            <stop stop-color="#6B49FC"/>
            <stop offset="0.830081" stop-color="#DE85FF"/>
            <stop offset="1" stop-color="#E26FF1"/>
        </linearGradient>
        <linearGradient id="paint18_linear_2_584" x1="15.0605" y1="12.6314" x2="53.6254" y2="12.5588" gradientUnits="userSpaceOnUse">
            <stop stop-color="#6B49FC"/>
            <stop offset="0.830081" stop-color="#DE85FF"/>
            <stop offset="1" stop-color="#E26FF1"/>
        </linearGradient>
        <linearGradient id="paint19_linear_2_584" x1="18.0548" y1="13.5732" x2="53.4518" y2="13.5088" gradientUnits="userSpaceOnUse">
            <stop stop-color="#6B49FC"/>
            <stop offset="0.830081" stop-color="#DE85FF"/>
            <stop offset="1" stop-color="#E26FF1"/>
        </linearGradient>
    </defs>
</svg>
