<svg width="38" height="38" viewBox="0 0 38 38" fill="none" xmlns="http://www.w3.org/2000/svg">
    <circle opacity="0.1" cx="19.3848" cy="19.001" r="18.5957" fill="url(#paint0_linear_2_2316)"/>
    <path d="M23.7124 19.0013C23.7126 19.9983 23.3683 20.9647 22.7379 21.737C22.1074 22.5094 21.2294 23.0401 20.2526 23.2395V26.7858H18.5227V23.2395C17.5451 23.041 16.6661 22.5106 16.0348 21.7382C15.4035 20.9658 15.0586 19.9989 15.0586 19.0013C15.0586 18.0037 15.4035 17.0368 16.0348 16.2644C16.6661 15.492 17.5451 14.9616 18.5227 14.7631V11.2168H20.2526V14.7631C21.2294 14.9625 22.1074 15.4932 22.7379 16.2656C23.3683 17.0379 23.7126 18.0043 23.7124 19.0013ZM19.3877 16.4065C18.6995 16.4065 18.0395 16.6799 17.5528 17.1665C17.0662 17.6531 16.7928 18.3131 16.7928 19.0013C16.7928 19.6895 17.0662 20.3495 17.5528 20.8361C18.0395 21.3228 18.6995 21.5961 19.3877 21.5961C20.0758 21.5961 20.7359 21.3228 21.2225 20.8361C21.7091 20.3495 21.9825 19.6895 21.9825 19.0013C21.9825 18.3131 21.7091 17.6531 21.2225 17.1665C20.7359 16.6799 20.0758 16.4065 19.3877 16.4065Z" fill="url(#paint1_linear_2_2316)"/>
    <defs>
        <linearGradient id="paint0_linear_2_2316" x1="43.1072" y1="14.151" x2="-1.66483" y2="14.0666" gradientUnits="userSpaceOnUse">
            <stop stop-color="#6B49FC"/>
            <stop offset="0.830081" stop-color="#DE85FF"/>
            <stop offset="1" stop-color="#E26FF1"/>
        </linearGradient>
        <linearGradient id="paint1_linear_2_2316" x1="24.9053" y1="16.971" x2="14.4876" y2="16.9601" gradientUnits="userSpaceOnUse">
            <stop stop-color="#6B49FC"/>
            <stop offset="0.830081" stop-color="#DE85FF"/>
            <stop offset="1" stop-color="#E26FF1"/>
        </linearGradient>
    </defs>
</svg>
