<svg width="38" height="38" viewBox="0 0 38 38" fill="none" xmlns="http://www.w3.org/2000/svg">
    <circle opacity="0.1" cx="19.3848" cy="18.6182" r="18.5957" fill="url(#paint0_linear_2_2310)"/>
    <g clip-path="url(#clip0_2_2310)">
        <path d="M28.1288 11.1744C27.702 10.7506 27.1248 10.5127 26.5233 10.5127C25.9217 10.5127 25.3446 10.7506 24.9177 11.1744C24.4939 11.6013 24.256 12.1784 24.256 12.78C24.256 13.3816 24.4939 13.9587 24.9177 14.3856C24.9956 14.465 25.0797 14.5382 25.1691 14.6045L22.7608 19.0806C22.4059 18.9503 22.0241 18.9109 21.6501 18.9662C21.2762 19.0214 20.922 19.1695 20.62 19.3968L18.609 17.3858C18.9539 16.9264 19.1117 16.3533 19.0508 15.7821C18.9899 15.2109 18.7147 14.684 18.2808 14.3076C17.8468 13.9313 17.2863 13.7334 16.7122 13.7539C16.1381 13.7743 15.5931 14.0116 15.1871 14.418C14.7632 14.8448 14.5253 15.422 14.5253 16.0235C14.5253 16.6251 14.7632 17.2023 15.1871 17.6291C15.265 17.7086 15.349 17.7818 15.4385 17.848L13.0301 22.3241C12.6237 22.1768 12.1837 22.1481 11.7616 22.2414C11.3394 22.3347 10.9526 22.5462 10.6461 22.8512C10.2223 23.2781 9.98438 23.8552 9.98438 24.4568C9.98438 25.0583 10.2223 25.6355 10.6461 26.0623C10.857 26.2732 11.1073 26.4404 11.3828 26.5546C11.6582 26.6687 11.9535 26.7274 12.2517 26.7274C12.5499 26.7274 12.8451 26.6687 13.1206 26.5546C13.3961 26.4404 13.6464 26.2732 13.8572 26.0623C14.2811 25.6355 14.519 25.0583 14.519 24.4568C14.519 23.8552 14.2811 23.2781 13.8572 22.8512C13.7793 22.7717 13.6953 22.6985 13.6059 22.6323L16.0142 18.1562C16.2638 18.2465 16.5272 18.2931 16.7926 18.294C17.2836 18.2923 17.7611 18.1331 18.1549 17.8399L20.1659 19.8509C19.9047 20.1992 19.7492 20.6153 19.7178 21.0495C19.6864 21.4837 19.7805 21.9178 19.9889 22.3C20.1973 22.6822 20.5112 22.9965 20.8932 23.2053C21.2752 23.4141 21.7091 23.5088 22.1434 23.4779C22.5776 23.447 22.9939 23.292 23.3424 23.0312C23.691 22.7704 23.9573 22.4149 24.1095 22.007C24.2618 21.5992 24.2935 21.1562 24.201 20.7308C24.1085 20.3053 23.8957 19.9155 23.5879 19.6077C23.51 19.5282 23.4259 19.455 23.3365 19.3887L25.7448 14.9126C25.9945 15.003 26.2578 15.0496 26.5233 15.0505C26.8216 15.0514 27.1171 14.9931 27.3927 14.879C27.6683 14.7648 27.9185 14.5971 28.1288 14.3856C28.5527 13.9587 28.7906 13.3816 28.7906 12.78C28.7906 12.1784 28.5527 11.6013 28.1288 11.1744ZM13.395 25.6001C13.0918 25.9033 12.6805 26.0737 12.2517 26.0737C11.8228 26.0737 11.4116 25.9033 11.1083 25.6001C10.8051 25.2969 10.6347 24.8856 10.6347 24.4568C10.6347 24.0279 10.8051 23.6166 11.1083 23.3134C11.4116 23.0102 11.8228 22.8398 12.2517 22.8398C12.6805 22.8398 13.0918 23.0102 13.395 23.3134C13.6983 23.6166 13.8686 24.0279 13.8686 24.4568C13.8686 24.8856 13.6983 25.2969 13.395 25.6001ZM15.6493 17.1669C15.4988 17.017 15.3793 16.8388 15.2978 16.6426C15.2163 16.4464 15.1743 16.236 15.1743 16.0235C15.1743 15.8111 15.2163 15.6007 15.2978 15.4045C15.3793 15.2083 15.4988 15.0301 15.6493 14.8802C15.9525 14.577 16.3638 14.4066 16.7926 14.4066C17.2215 14.4066 17.6328 14.577 17.936 14.8802C18.2392 15.1834 18.4096 15.5947 18.4096 16.0235C18.4096 16.4524 18.2392 16.8637 17.936 17.1669C17.7861 17.3174 17.6079 17.4369 17.4117 17.5184C17.2155 17.5999 17.0051 17.6418 16.7926 17.6418C16.5802 17.6418 16.3698 17.5999 16.1736 17.5184C15.9774 17.4369 15.7992 17.3174 15.6493 17.1669ZM23.1257 22.3566C22.8224 22.6598 22.4112 22.8302 21.9823 22.8302C21.5535 22.8302 21.1422 22.6598 20.839 22.3566C20.5357 22.0533 20.3654 21.6421 20.3654 21.2132C20.3654 20.7844 20.5357 20.3731 20.839 20.0699C21.1422 19.7666 21.5535 19.5963 21.9823 19.5963C22.4112 19.5963 22.8224 19.7666 23.1257 20.0699C23.4289 20.3731 23.5993 20.7844 23.5993 21.2132C23.5993 21.6421 23.4289 22.0533 23.1257 22.3566ZM27.6666 13.9234C27.3634 14.2266 26.9521 14.3969 26.5233 14.3969C26.0944 14.3969 25.6832 14.2266 25.3799 13.9234C25.0767 13.6201 24.9063 13.2088 24.9063 12.78C24.9063 12.3512 25.0767 11.9399 25.3799 11.6367C25.6832 11.3334 26.0944 11.1631 26.5233 11.1631C26.9521 11.1631 27.3634 11.3334 27.6666 11.6367C27.9699 11.9399 28.1402 12.3512 28.1402 12.78C28.1402 13.2088 27.9699 13.6201 27.6666 13.9234Z" fill="url(#paint1_linear_2_2310)"/>
    </g>
    <defs>
        <linearGradient id="paint0_linear_2_2310" x1="43.1072" y1="13.7682" x2="-1.66483" y2="13.6838" gradientUnits="userSpaceOnUse">
            <stop stop-color="#6B49FC"/>
            <stop offset="0.830081" stop-color="#DE85FF"/>
            <stop offset="1" stop-color="#E26FF1"/>
        </linearGradient>
        <linearGradient id="paint1_linear_2_2310" x1="31.383" y1="16.5056" x2="8.74357" y2="16.4561" gradientUnits="userSpaceOnUse">
            <stop stop-color="#6B49FC"/>
            <stop offset="0.830081" stop-color="#DE85FF"/>
            <stop offset="1" stop-color="#E26FF1"/>
        </linearGradient>
        <clipPath id="clip0_2_2310">
            <rect width="20.7587" height="20.7587" fill="white" transform="translate(9.00781 8.23926)"/>
        </clipPath>
    </defs>
</svg>
