<svg id="SvgjsSvg1001" width="288" height="288" xmlns="http://www.w3.org/2000/svg" version="1.1" xmlns:xlink="http://www.w3.org/1999/xlink" xmlns:svgjs="http://svgjs.com/svgjs"><defs id="SvgjsDefs1002"></defs><g id="SvgjsG1008"><svg xmlns="http://www.w3.org/2000/svg" viewBox="0 0 64 64" width="288" height="288"><path d="M11,42A11,11,0,1,0,22,53,11.01245,11.01245,0,0,0,11,42Zm0,20a9,9,0,1,1,9-9A9.01047,9.01047,0,0,1,11,62Z" fill="#8257fe" class="color000 svgShape"></path><path d="M12.74463 49.44678a.82164.82164 0 01.25488.53076A1.00026 1.00026 0 0013.95068 51a1.03218 1.03218 0 001.04737-.95068 2.79677 2.79677 0 00-.79932-1.977A3.67763 3.67763 0 0012 47.06232V47a1 1 0 00-2 0v.0849a3.44494 3.44494 0 000 6.83191v2.98987a1.57572 1.57572 0 01-.74463-.35346A.84147.84147 0 019 56.04688v.00048a1.00019 1.00019 0 00-1.998-.09668 2.79677 2.79677 0 00.79932 1.977A3.67685 3.67685 0 0010 58.938V59a1 1 0 002 0v-.0849a3.44494 3.44494 0 000-6.83191V49.0943A1.57287 1.57287 0 0112.74463 49.44678zM9.001 50.50049A1.4211 1.4211 0 0110 49.14288v2.71576A1.42263 1.42263 0 019.001 50.50049zm3.998 4.999A1.4211 1.4211 0 0112 56.85712V54.14136A1.42263 1.42263 0 0112.999 55.49951zM63 57H58V15a.99974.99974 0 00-1-1H49a.99974.99974 0 00-1 1V57H44V21a.99974.99974 0 00-1-1H35a.99974.99974 0 00-1 1V57H30V27a1 1 0 00-1-1H21a1 1 0 00-1 1V43.21a1 1 0 002 0V28h6V57H24.06982a1 1 0 100 2H62v3H20.79a1 1 0 000 2H63a.99974.99974 0 001-1V58A.99974.99974 0 0063 57zM50 16h6V57H50zM36 22h6V57H36zM7 40.58008a1.00005 1.00005 0 001-1V33h6v6.58008a1 1 0 002 0V32a1 1 0 00-1-1H7a1 1 0 00-1 1v7.58008A1.00005 1.00005 0 007 40.58008zM10.999 25l.04834-.001C28.96722 24.14539 46.51917 8.67279 52 3.40405V10a1 1 0 002 0V1L53.99768.9884A1.02413 1.02413 0 0053 0H44a1 1 0 000 2h6.55377C45.165 7.1189 27.9201 22.1933 10.95264 23.001A1.00007 1.00007 0 0010.999 25z" fill="#8257fe" class="color000 svgShape"></path></svg></g></svg>