<svg id="SvgjsSvg1025" width="288" height="288" xmlns="http://www.w3.org/2000/svg" version="1.1" xmlns:xlink="http://www.w3.org/1999/xlink" xmlns:svgjs="http://svgjs.com/svgjs"><defs id="SvgjsDefs1026"></defs><g id="SvgjsG1027"><svg xmlns="http://www.w3.org/2000/svg" data-name="Layer 1" viewBox="0 0 64 64" width="288" height="288"><path d="M13 23h4a1 1 0 001-1V19.67a3 3 0 00-2-2.84V15.05l4.64 1.55-1.58 4.75a1 1 0 00.78 1.3l12 2h.33l12-2a1 1 0 00.78-1.3L43.36 16.6l8-2.65a1 1 0 00.07-1.87l-19-8a1 1 0 00-.78 0l-19 8a1 1 0 00.07 1.87l1.32.44v2.44a3 3 0 00-2 2.84V22A1 1 0 0013 23zm19-.35L21.32 20.87l1.54-4.63c.68-.55 3.55-2.57 9.14-2.57s8.46 2 9.14 2.57l1.54 4.63zM32 6.09l16.16 6.81-5.48 1.83a.94.94 0 00-.15.09c-.75-.66-4-3.14-10.53-3.14s-9.78 2.48-10.53 3.14a.94.94 0 00-.15-.08l-5.48-1.83zM14 19.68a.92.92 0 011-1 .92.92 0 011 1V21H14zM52.93 29.95V28.61A2.62 2.62 0 0050.24 26 49.56 49.56 0 0032 29.71 49.56 49.56 0 0013.76 26a2.55 2.55 0 00-1.9.74 2.59 2.59 0 00-.79 1.87v1.34A4.06 4.06 0 008 33.88V55.34a4.07 4.07 0 004.07 4.07H51.93A4.07 4.07 0 0056 55.34V33.88A4.06 4.06 0 0052.93 29.95zM50.29 28a.63.63 0 01.45.18.6.6 0 01.19.44V53a.61.61 0 01-.59.61A51.54 51.54 0 0033 56.89V31.46A48.81 48.81 0 0150.29 28zm-37.23.61a.6.6 0 01.19-.44.62.62 0 01.44-.18h0A48.81 48.81 0 0131 31.46V56.89A51.54 51.54 0 0013.65 53.6a.61.61 0 01-.59-.61zM10 55.34V33.88a2.06 2.06 0 011.07-1.8V53A2.59 2.59 0 0013.6 55.6a53.16 53.16 0 0112.55 1.81H12.07A2.07 2.07 0 0110 55.34zm44 0a2.07 2.07 0 01-2.07 2.07H37.83A53.15 53.15 0 0150.4 55.6 2.59 2.59 0 0052.93 53V32.08A2.06 2.06 0 0154 33.88z" fill="#8257fe" class="color000 svgShape"></path><path d="M15.83 32.6c1 .07 2 .16 3 .28H19a1 1 0 00.12-2c-1-.13-2.09-.22-3.12-.29a1 1 0 00-.13 2zM14.9 34.7a1 1 0 00.93 1.06 54.89 54.89 0 015.56.65h.17a1 1 0 00.17-2A56.79 56.79 0 0016 33.77 1 1 0 0014.9 34.7zM14.9 40.07a1 1 0 00.93 1.06 51.55 51.55 0 0112 2.2 1 1 0 00.3 0 1 1 0 00.3-2A53.55 53.55 0 0016 39.14 1 1 0 0014.9 40.07zM28.46 45.16A53.57 53.57 0 0016 42.87a1 1 0 10-.13 2 51.58 51.58 0 0112 2.2 1 1 0 00.3 0 1 1 0 00.3-2zM28.46 49A53.55 53.55 0 0016 46.76a1 1 0 10-.13 2 51.55 51.55 0 0112 2.2 1 1 0 00.3 0 1 1 0 00.3-2zM35.83 43.38a1 1 0 00.3 0 51.54 51.54 0 0112-2.2 1 1 0 10-.13-2 53.53 53.53 0 00-12.5 2.29 1 1 0 00.3 2zM35.83 47.11a1 1 0 00.3 0 51.57 51.57 0 0112-2.2 1 1 0 00.93-1.06A1 1 0 0048 42.87a53.56 53.56 0 00-12.5 2.29 1 1 0 00.3 2zM35.83 51a1 1 0 00.3 0 51.54 51.54 0 0112-2.2 1 1 0 10-.13-2A53.53 53.53 0 0035.53 49a1 1 0 00.3 2z" fill="#8257fe" class="color000 svgShape"></path></svg></g></svg>