<svg id="SvgjsSvg1031" width="288" height="288" xmlns="http://www.w3.org/2000/svg" version="1.1" xmlns:xlink="http://www.w3.org/1999/xlink" xmlns:svgjs="http://svgjs.com/svgjs"><defs id="SvgjsDefs1032"></defs><g id="SvgjsG1033"><svg xmlns="http://www.w3.org/2000/svg" enable-background="new 0 0 404.556 404.556" viewBox="0 0 404.556 404.556" width="288" height="288"><path d="M300.903 144.956l-53.28-136c-2.961-7.247-11.17-10.8-18.48-8l-136 53.28c-7.312 2.894-10.893 11.168-8 18.48l53.68 136c2.894 7.312 11.168 10.893 18.48 8l135.6-53.28C300.215 160.542 303.796 152.268 300.903 144.956zM153.063 201.116l-52-132.32 132.32-52.08 52 132.4L153.063 201.116zM169.543 230.316H23.863c-7.865 0-14.24 6.375-14.24 14.24v145.76c0 7.865 6.375 14.24 14.24 14.24h145.68c7.865 0 14.24-6.375 14.24-14.24v-145.76C183.783 236.691 177.407 230.316 169.543 230.316zM167.783 388.476H25.623v-142.16h142.16V388.476zM384.663 229.516l-140.8-37.44c-7.677-1.873-15.439 2.755-17.44 10.4l-37.44 140.8c-2.034 7.597 2.476 15.404 10.073 17.438.002.001.005.001.007.002l140.8 37.44c7.597 2.034 15.404-2.476 17.438-10.073.001-.002.001-.005.002-.007l37.12-141.12C396.48 239.453 392.134 231.687 384.663 229.516zM342.343 381.516l-137.44-36.08 36.56-137.36 137.36 36.56L342.343 381.516z" fill="#8257fe" class="color000 svgShape"></path><path d="M240.823 124.636c-1.453-2.764-3.375-5.254-5.68-7.36l-40-42.16-4.72-5.12c-1.186-1.23-2.5-2.329-3.92-3.28-1.436-.977-3.079-1.607-4.8-1.84-4.094-.286-8.097 1.303-10.88 4.32-1.1 1.35-1.867 2.939-2.24 4.64-.406 2-.594 4.039-.56 6.08 0 2.32 0 4.32 0 6v58.24c.16 2.4.293 4.24.4 5.52.061 1.203.304 2.39.72 3.52.778 1.877 2.321 3.333 4.24 4 1.948.8 4.132.8 6.08 0 1.981-.563 3.563-2.056 4.24-4 .6-3.081.815-6.226.64-9.36v-11.44l31.6-12.4 7.52 8 3.44 3.44c.98 1.036 2.081 1.949 3.28 2.72.9.542 1.913.87 2.96.96 1.175.085 2.353-.107 3.44-.56 1.88-.772 3.396-2.231 4.24-4.08C241.619 128.611 241.619 126.501 240.823 124.636zM183.623 118.796l-1.12-36.32 24.32 27.2L183.623 118.796zM116.663 311.196c7.621-2.846 12.621-10.186 12.48-18.32.007-2.346-.4-4.675-1.2-6.88-.785-2.187-1.95-4.218-3.44-6-1.469-1.775-3.227-3.29-5.2-4.48-2.455-1.469-5.172-2.447-8-2.88-3.415-.522-6.866-.762-10.32-.72h-26.56c-2.881-.314-5.767.551-8 2.4-1.825 2.245-2.687 5.121-2.4 8v62.72c-.292 2.867.539 5.735 2.32 8 2.231 1.916 5.159 2.814 8.08 2.48h25.52c3.725-.115 7.438-.463 11.12-1.04 3.019-.355 5.979-1.108 8.8-2.24 3.95-1.645 7.32-4.43 9.68-8 2.41-3.771 3.662-8.165 3.6-12.64C133.327 321.698 126.378 313.097 116.663 311.196zM81.063 284.796h13.36c4.654-.24 9.308.467 13.68 2.08 3.025 1.461 4.815 4.657 4.48 8 .018 1.885-.48 3.738-1.44 5.36-1.1 2.149-2.994 3.785-5.28 4.56-3.169.916-6.464 1.321-9.76 1.2h-15.44L81.063 284.796zM115.943 330.476c0 8.213-5.707 12.32-17.12 12.32h-18.16l.4-24.32h17.36c4.608-.291 9.206.706 13.28 2.88C114.64 323.423 116.255 326.898 115.943 330.476zM331.943 271.436c-2.04-5.048-5.313-9.504-9.52-12.96-4.641-3.872-10.118-6.61-16-8-5.204-1.439-10.639-1.846-16-1.2-5.156.629-10.119 2.347-14.56 5.04-4.595 2.83-8.547 6.59-11.6 11.04-3.44 5.065-5.959 10.699-7.44 16.64-1.04 3.79-1.684 7.677-1.92 11.6-.206 3.669.035 7.35.72 10.96.645 3.428 1.72 6.761 3.2 9.92 1.539 3.242 3.592 6.214 6.08 8.8 2.478 2.538 5.34 4.671 8.48 6.32 3.584 1.864 7.368 3.313 11.28 4.32 5.013 1.44 10.265 1.848 15.44 1.2 4.36-.671 8.531-2.252 12.24-4.64 3.066-1.916 5.773-4.352 8-7.2 1.894-2.359 3.282-5.082 4.08-8 .562-1.885.3-3.919-.72-5.6-.972-1.685-2.59-2.899-4.48-3.36-1.848-.666-3.904-.398-5.52.72-1.545 1.266-2.87 2.78-3.92 4.48-2.484 3.615-5.995 6.402-10.08 8-4.159 1.356-8.641 1.356-12.8 0-3.779-.734-7.289-2.475-10.16-5.04-2.777-3.159-4.509-7.099-4.96-11.28-.536-5.381-.02-10.816 1.52-16 1.427-8.033 5.547-15.34 11.68-20.72 5.124-3.989 11.865-5.241 18.08-3.36 3.791.87 7.225 2.88 9.84 5.76 2.56 3.19 4.316 6.949 5.12 10.96.408 2.124 1.136 4.174 2.16 6.08 1.032 1.433 2.581 2.409 4.32 2.72 1.829.506 3.788.184 5.36-.88 1.625-.983 2.802-2.562 3.28-4.4C333.986 279.354 333.567 275.189 331.943 271.436z" fill="#8257fe" class="color000 svgShape"></path></svg></g></svg>