<svg id="SvgjsSvg1017" width="288" height="288" xmlns="http://www.w3.org/2000/svg" version="1.1" xmlns:xlink="http://www.w3.org/1999/xlink" xmlns:svgjs="http://svgjs.com/svgjs"><defs id="SvgjsDefs1018"></defs><g id="SvgjsG1019"><svg xmlns="http://www.w3.org/2000/svg" data-name="Layer 3" viewBox="0 0 64 64" width="288" height="288"><path d="M22,23H15V16a1,1,0,0,0-1-1,9,9,0,1,0,9,9A1,1,0,0,0,22,23Zm-9-5.929v6.515l-4.6,4.6A6.985,6.985,0,0,1,13,17.071ZM14,31a6.953,6.953,0,0,1-4.184-1.4l4.6-4.6h6.515A7.011,7.011,0,0,1,14,31Z" fill="#8257fe" class="color000 svgShape"></path><path d="M18 21h8a1 1 0 001-1 9.011 9.011 0 00-9-9 1 1 0 00-1 1v8A1 1 0 0018 21zm1-7.929A7.018 7.018 0 0124.929 19H19zM39 26A13 13 0 1052 39 13.015 13.015 0 0039 26zm-5 9V29.214a10.974 10.974 0 012-.788V35zm12 2v2H32V37zm-4-2V28.426a10.974 10.974 0 012 .788V35zm-2-6.949V35H38V28.051c.33-.03.662-.051 1-.051S39.67 28.021 40 28.051zm-8 2.47V35H31a1 1 0 00-1 1v4a1 1 0 001 1H47a1 1 0 001-1V36a1 1 0 00-1-1H46V30.521A10.948 10.948 0 0149.236 43H28.764A10.948 10.948 0 0132 30.521zM39 50a11 11 0 01-9.208-5H48.208A11 11 0 0139 50z" fill="#8257fe" class="color000 svgShape"></path><path d="M61.671,55.257l-4.326-4.326A2,2,0,0,0,57,48.586l-2.545-2.545A16.883,16.883,0,0,0,53,29.378V4a3,3,0,0,0-3-3H4A3,3,0,0,0,1,4V42a3,3,0,0,0,3,3H23.114a16.934,16.934,0,0,0,22.927,9.455L48.586,57a1.972,1.972,0,0,0,2.345.345l4.326,4.326a4.535,4.535,0,1,0,6.414-6.414ZM4,3H50a1,1,0,0,1,1,1V7H3V4A1,1,0,0,1,4,3ZM4,43a1,1,0,0,1-1-1V9H51V26.971a17.056,17.056,0,0,0-5-3.445V12a1,1,0,0,0-1-1H41a1,1,0,0,0-1,1V22.051c-.333-.02-.662-.051-1-.051s-.667.031-1,.051V18a1,1,0,0,0-1-1H33a1,1,0,0,0-1,1v5.526A16.882,16.882,0,0,0,22.5,43ZM44,22.753a16.817,16.817,0,0,0-2-.472V13h2Zm-8-.472a16.817,16.817,0,0,0-2,.472V19h2ZM24,39A15,15,0,1,1,39,54,15.017,15.017,0,0,1,24,39ZM47.882,53.468a17.1,17.1,0,0,0,5.586-5.586L55.586,50,50,55.586ZM58.464,61a2.52,2.52,0,0,1-1.793-.743L52.414,56,56,52.414l4.257,4.257A2.536,2.536,0,0,1,58.464,61Z" fill="#8257fe" class="color000 svgShape"></path><path d="M18,35H6a1,1,0,0,0-1,1v4a1,1,0,0,0,1,1H18a1,1,0,0,0,1-1V36A1,1,0,0,0,18,35Zm-1,4H7V37H17Z" fill="#8257fe" class="color000 svgShape"></path></svg></g></svg>