<svg xmlns="http://www.w3.org/2000/svg" version="1.1" xmlns:xlink="http://www.w3.org/1999/xlink"
     width="512" height="512" x="0" y="0" viewBox="0 0 512 512"
     style="enable-background:new 0 0 512 512" xml:space="preserve" class=""><g><linearGradient xmlns="http://www.w3.org/2000/svg" id="SVGID_1_" gradientUnits="userSpaceOnUse" x1="256" x2="256" y1="512" y2="0"><stop offset="0" stop-color="#c3ffe8"></stop><stop
        offset=".9973" stop-color="#f0fff4"></stop></linearGradient><linearGradient xmlns="http://www.w3.org/2000/svg"
                                                                                    id="SVGID_00000083079754116000188880000014212812344731010475_"
                                                                                    gradientUnits="userSpaceOnUse"
                                                                                    x1="256" x2="256" y1="452" y2="60"><stop offset="0" stop-color="#00b59c"></stop>
    <stop offset="1" stop-color="#9cffac"></stop></linearGradient><g xmlns="http://www.w3.org/2000/svg"><path d="m256 512c-68.38 0-132.667-26.629-181.02-74.98-48.351-48.353-74.98-112.64-74.98-181.02s26.629-132.667 74.98-181.02c48.353-48.351 112.64-74.98 181.02-74.98s132.667 26.629 181.02 74.98c48.351 48.353 74.98 112.64 74.98 181.02s-26.629 132.667-74.98 181.02c-48.353 48.351-112.64 74.98-181.02 74.98z" fill="url(#SVGID_1_)" ></path>
    <path d="m220.645 316.104-49.498-49.497c-5.858-5.858-5.858-15.355 0-21.213 5.858-5.858 15.355-5.858 21.213 0l38.891 38.891 88.388-88.388c5.858-5.858 15.355-5.858 21.213 0 5.858 5.858 5.858 15.355 0 21.213l-98.995 98.994c-5.857 5.857-15.354 5.857-21.212 0zm231.355-60.104c0-108.075-87.925-196-196-196-8.284 0-15 6.716-15 15s6.716 15 15 15c91.533 0 166 74.467 166 166s-74.467 166-166 166-166-74.467-166-166c0-8.284-6.716-15-15-15s-15 6.716-15 15c0 108.075 87.925 196 196 196s196-87.925 196-196zm-265.265-182.222c-8.284 0-15 6.716-15 15s6.716 15 15 15 15-6.716 15-15-6.716-15-15-15zm-58.721 39.236c-8.284 0-15 6.716-15 15s6.716 15 15 15 15-6.716 15-15-6.716-15-15-15zm-39.236 58.72c-8.284 0-15 6.716-15 15s6.716 15 15 15 15-6.716 15-15-6.716-15-15-15z"
          fill="url(#SVGID_00000083079754116000188880000014212812344731010475_)"
    ></path></g></g></svg>
